Milasfont-Regular.ufo
<glyph name="exclam" format="2">
  <advance width="97"/>
  <unicode hex="0021"/>
  <outline>
    <contour>
      <point x="22" y="601" type="qcurve" smooth="yes"/>
      <point x="30" y="609"/>
      <point x="39" y="609" type="qcurve" smooth="yes"/>
      <point x="51" y="609"/>
      <point x="54" y="596" type="qcurve" smooth="yes"/>
      <point x="56" y="588"/>
      <point x="56" y="534" type="qcurve" smooth="yes"/>
      <point x="56" y="523"/>
      <point x="55" y="466"/>
      <point x="55" y="450" type="qcurve" smooth="yes"/>
      <point x="54" y="309"/>
      <point x="45" y="309" type="qcurve" smooth="yes"/>
      <point x="41" y="309"/>
      <point x="30" y="335" type="qcurve" smooth="yes"/>
      <point x="22" y="355"/>
      <point x="18" y="399"/>
      <point x="16" y="478" type="qcurve" smooth="yes"/>
      <point x="15" y="512"/>
      <point x="15" y="594"/>
    </contour>
    <contour>
      <point x="25" y="204" type="qcurve" smooth="yes"/>
      <point x="38" y="212"/>
      <point x="52" y="212" type="qcurve" smooth="yes"/>
      <point x="65" y="212"/>
      <point x="81" y="196"/>
      <point x="81" y="175" type="qcurve" smooth="yes"/>
      <point x="81" y="160"/>
      <point x="71" y="140"/>
      <point x="50" y="141" type="qcurve" smooth="yes"/>
      <point x="32" y="142"/>
      <point x="21" y="154"/>
      <point x="17" y="175" type="qcurve" smooth="yes"/>
      <point x="16" y="181"/>
      <point x="16" y="188" type="qcurve" smooth="yes"/>
      <point x="16" y="198"/>
    </contour>
  </outline>
</glyph>
<glyph name="quotedbl" format="2">
  <advance width="181"/>
  <unicode hex="0022"/>
  <unicode hex="201E"/>
  <unicode hex="201E"/>
  <outline>
    <contour>
      <point x="19" y="599" type="qcurve" smooth="yes"/>
      <point x="22" y="604"/>
      <point x="24" y="604" type="qcurve" smooth="yes"/>
      <point x="30" y="604"/>
      <point x="33" y="554" type="qcurve" smooth="yes"/>
      <point x="36" y="503"/>
      <point x="45" y="485" type="qcurve" smooth="yes"/>
      <point x="51" y="473"/>
      <point x="51" y="464" type="qcurve" smooth="yes"/>
      <point x="51" y="449"/>
      <point x="31" y="449"/>
      <point x="23" y="463" type="qcurve" smooth="yes"/>
      <point x="15" y="475"/>
      <point x="15" y="516" type="qcurve" smooth="yes"/>
      <point x="15" y="536" type="line" smooth="yes"/>
      <point x="17" y="596"/>
    </contour>
    <contour>
      <point x="126" y="549" type="qcurve" smooth="yes"/>
      <point x="125" y="566"/>
      <point x="125" y="586" type="qcurve" smooth="yes"/>
      <point x="125" y="603"/>
      <point x="130" y="603" type="qcurve" smooth="yes"/>
      <point x="133" y="603" type="line" smooth="yes"/>
      <point x="143" y="602"/>
      <point x="147" y="578" type="qcurve" smooth="yes"/>
      <point x="166" y="483"/>
      <point x="166" y="455"/>
      <point x="156" y="455"/>
      <point x="140" y="472"/>
      <point x="134" y="482" type="qcurve" smooth="yes"/>
      <point x="128" y="494"/>
    </contour>
  </outline>
</glyph>
<glyph name="numbersign" format="2">
  <advance width="457"/>
  <unicode hex="0023"/>
  <outline>
    <contour>
      <point x="280" y="432"/>
      <point x="280" y="434" type="qcurve" smooth="yes"/>
      <point x="280" y="439"/>
      <point x="265" y="439" type="qcurve" smooth="yes"/>
      <point x="255" y="439" type="line" smooth="yes"/>
      <point x="228" y="438"/>
      <point x="153" y="430"/>
      <point x="149" y="426"/>
      <point x="128" y="330"/>
      <point x="128" y="324" type="qcurve" smooth="yes"/>
      <point x="128" y="323"/>
      <point x="131" y="323" type="qcurve" smooth="yes"/>
      <point x="135" y="323"/>
      <point x="195" y="327" type="qcurve" smooth="yes"/>
      <point x="260" y="333" type="line"/>
      <point x="269" y="377" type="line" smooth="yes"/>
      <point x="271" y="387"/>
      <point x="275" y="413"/>
      <point x="278" y="428"/>
    </contour>
    <contour>
      <point x="156" y="562" type="qcurve" smooth="yes"/>
      <point x="163" y="588"/>
      <point x="170" y="588" type="qcurve" smooth="yes"/>
      <point x="175" y="588"/>
      <point x="175" y="583" type="qcurve" smooth="yes"/>
      <point x="175" y="577"/>
      <point x="164" y="513"/>
      <point x="153" y="453"/>
      <point x="153" y="452" type="qcurve"/>
      <point x="155" y="452" type="line" smooth="yes"/>
      <point x="168" y="452"/>
      <point x="285" y="473"/>
      <point x="289" y="479"/>
      <point x="297" y="518" type="qcurve" smooth="yes"/>
      <point x="306" y="572"/>
      <point x="315" y="572" type="qcurve"/>
      <point x="318" y="570" type="line" smooth="yes"/>
      <point x="320" y="568"/>
      <point x="320" y="558" type="qcurve" smooth="yes"/>
      <point x="320" y="541"/>
      <point x="316" y="520" type="qcurve" smooth="yes"/>
      <point x="309" y="475" type="line"/>
      <point x="364" y="478" type="line" smooth="yes"/>
      <point x="377" y="479"/>
      <point x="398" y="479" type="qcurve" smooth="yes"/>
      <point x="441" y="479"/>
      <point x="441" y="465" type="qcurve" smooth="yes"/>
      <point x="441" y="452"/>
      <point x="356" y="446" type="qcurve" smooth="yes"/>
      <point x="304" y="443" type="line"/>
      <point x="298" y="396" type="line" smooth="yes"/>
      <point x="293" y="354"/>
      <point x="293" y="348" type="qcurve" smooth="yes"/>
      <point x="293" y="336"/>
      <point x="306" y="336" type="qcurve" smooth="yes"/>
      <point x="309" y="336" type="line" smooth="yes"/>
      <point x="330" y="336"/>
      <point x="379" y="329"/>
      <point x="379" y="326" type="qcurve" smooth="yes"/>
      <point x="379" y="322"/>
      <point x="318" y="306"/>
      <point x="300" y="304" type="qcurve" smooth="yes"/>
      <point x="284" y="303" type="line"/>
      <point x="276" y="244" type="line" smooth="yes"/>
      <point x="269" y="188"/>
      <point x="262" y="181" type="qcurve" smooth="yes"/>
      <point x="257" y="176"/>
      <point x="246" y="190" type="qcurve" smooth="yes"/>
      <point x="236" y="203"/>
      <point x="236" y="213" type="qcurve" smooth="yes"/>
      <point x="236" y="225"/>
      <point x="243" y="254" type="qcurve" smooth="yes"/>
      <point x="249" y="279"/>
      <point x="249" y="288" type="qcurve" smooth="yes"/>
      <point x="249" y="300"/>
      <point x="227" y="300" type="qcurve" smooth="yes"/>
      <point x="223" y="300"/>
      <point x="198" y="299"/>
      <point x="189" y="299" type="qcurve" smooth="yes"/>
      <point x="127" y="297"/>
      <point x="124" y="294" type="qcurve" smooth="yes"/>
      <point x="120" y="290"/>
      <point x="115" y="253" type="qcurve" smooth="yes"/>
      <point x="108" y="196"/>
      <point x="94" y="196" type="qcurve" smooth="yes"/>
      <point x="88" y="196"/>
      <point x="80" y="210" type="qcurve" smooth="yes"/>
      <point x="77" y="218"/>
      <point x="77" y="236" type="qcurve" smooth="yes"/>
      <point x="77" y="270"/>
      <point x="84" y="287" type="qcurve" smooth="yes"/>
      <point x="84" y="288"/>
      <point x="85" y="288"/>
      <point x="85" y="289" type="qcurve" smooth="yes"/>
      <point x="85" y="295"/>
      <point x="51" y="296" type="qcurve" smooth="yes"/>
      <point x="16" y="298"/>
      <point x="16" y="308"/>
      <point x="54" y="313" type="qcurve" smooth="yes"/>
      <point x="92" y="318" type="line"/>
      <point x="107" y="372" type="line" smooth="yes"/>
      <point x="110" y="385"/>
      <point x="118" y="413"/>
      <point x="120" y="420" type="qcurve" smooth="yes"/>
      <point x="122" y="427" type="line"/>
      <point x="118" y="427" type="line" smooth="yes"/>
      <point x="113" y="427"/>
      <point x="73" y="425" type="qcurve" smooth="yes"/>
      <point x="62" y="424"/>
      <point x="46" y="424" type="qcurve" smooth="yes"/>
      <point x="25" y="424"/>
      <point x="22" y="428" type="qcurve" smooth="yes"/>
      <point x="18" y="434"/>
      <point x="22" y="435" type="qcurve" smooth="yes"/>
      <point x="23" y="435"/>
      <point x="37" y="437"/>
      <point x="64" y="440"/>
      <point x="75" y="441" type="qcurve" smooth="yes"/>
      <point x="124" y="447" type="line"/>
      <point x="136" y="491" type="line" smooth="yes"/>
      <point x="147" y="535"/>
    </contour>
  </outline>
</glyph>
<glyph name="dollar" format="2">
  <advance width="311"/>
  <unicode hex="0024"/>
  <outline>
    <contour>
      <point x="226" y="347" type="qcurve" smooth="yes"/>
      <point x="215" y="355"/>
      <point x="189" y="361" type="qcurve" smooth="yes"/>
      <point x="164" y="365" type="line"/>
      <point x="164" y="274" type="line"/>
      <point x="164" y="260" type="line" smooth="yes"/>
      <point x="164" y="210"/>
      <point x="168" y="182"/>
      <point x="176" y="182" type="qcurve" smooth="yes"/>
      <point x="181" y="182"/>
      <point x="205" y="194" type="qcurve" smooth="yes"/>
      <point x="264" y="224"/>
      <point x="264" y="278" type="qcurve" smooth="yes"/>
      <point x="264" y="319"/>
    </contour>
    <contour>
      <point x="137" y="500" type="qcurve" smooth="yes"/>
      <point x="139" y="536"/>
      <point x="139" y="539" type="qcurve" smooth="yes"/>
      <point x="139" y="558"/>
      <point x="130" y="558" type="qcurve" smooth="yes"/>
      <point x="108" y="558"/>
      <point x="57" y="509"/>
      <point x="48" y="479" type="qcurve" smooth="yes"/>
      <point x="44" y="467"/>
      <point x="44" y="455" type="qcurve" smooth="yes"/>
      <point x="44" y="410"/>
      <point x="112" y="401" type="qcurve" smooth="yes"/>
      <point x="133" y="398" type="line"/>
      <point x="133" y="420" type="line" smooth="yes"/>
      <point x="133" y="436"/>
    </contour>
    <contour>
      <point x="139" y="616" type="line"/>
      <point x="139" y="627" type="line" smooth="yes"/>
      <point x="139" y="671"/>
      <point x="152" y="671" type="qcurve" smooth="yes"/>
      <point x="159" y="671"/>
      <point x="159" y="627" type="qcurve" smooth="yes"/>
      <point x="159" y="595"/>
      <point x="163" y="583"/>
      <point x="174" y="581" type="qcurve" smooth="yes"/>
      <point x="214" y="572"/>
      <point x="233" y="546" type="qcurve" smooth="yes"/>
      <point x="243" y="532"/>
      <point x="243" y="512" type="qcurve" smooth="yes"/>
      <point x="243" y="495"/>
      <point x="235" y="487" type="qcurve" smooth="yes"/>
      <point x="227" y="480"/>
      <point x="227" y="484" type="qcurve" smooth="yes"/>
      <point x="226" y="486"/>
      <point x="229" y="499" type="qcurve" smooth="yes"/>
      <point x="230" y="504"/>
      <point x="230" y="511" type="qcurve" smooth="yes"/>
      <point x="230" y="524"/>
      <point x="219" y="536" type="qcurve" smooth="yes"/>
      <point x="207" y="551"/>
      <point x="192" y="555" type="qcurve" smooth="yes"/>
      <point x="171" y="560"/>
      <point x="169" y="561" type="qcurve" smooth="yes"/>
      <point x="168" y="561"/>
      <point x="166" y="562" type="qcurve" smooth="yes"/>
      <point x="159" y="562"/>
      <point x="159" y="489" type="qcurve" smooth="yes"/>
      <point x="159" y="414"/>
      <point x="165" y="398"/>
      <point x="176" y="398" type="qcurve" smooth="yes"/>
      <point x="216" y="398"/>
      <point x="252" y="369" type="qcurve" smooth="yes"/>
      <point x="295" y="332"/>
      <point x="295" y="270" type="qcurve" smooth="yes"/>
      <point x="295" y="219"/>
      <point x="256" y="183" type="qcurve" smooth="yes"/>
      <point x="242" y="170"/>
      <point x="185" y="140"/>
      <point x="174" y="140" type="qcurve" smooth="yes"/>
      <point x="168" y="140"/>
      <point x="164" y="128"/>
      <point x="164" y="108" type="qcurve" smooth="yes"/>
      <point x="162" y="72"/>
      <point x="157" y="66" type="qcurve" smooth="yes"/>
      <point x="152" y="59"/>
      <point x="147" y="62"/>
      <point x="141" y="75" type="qcurve" smooth="yes"/>
      <point x="133" y="95"/>
      <point x="133" y="114" type="qcurve" smooth="yes"/>
      <point x="133" y="119" type="line" smooth="yes"/>
      <point x="133" y="131"/>
      <point x="128" y="135"/>
      <point x="114" y="135" type="qcurve" smooth="yes"/>
      <point x="93" y="135"/>
      <point x="40" y="162"/>
      <point x="31" y="178" type="qcurve" smooth="yes"/>
      <point x="16" y="203"/>
      <point x="16" y="224" type="qcurve" smooth="yes"/>
      <point x="16" y="250"/>
      <point x="42" y="277" type="qcurve" smooth="yes"/>
      <point x="63" y="300"/>
      <point x="68" y="300" type="qcurve" smooth="yes"/>
      <point x="69" y="300"/>
      <point x="69" y="296"/>
      <point x="66" y="290" type="qcurve" smooth="yes"/>
      <point x="62" y="281"/>
      <point x="56" y="255" type="qcurve" smooth="yes"/>
      <point x="54" y="241"/>
      <point x="54" y="234" type="qcurve" smooth="yes"/>
      <point x="54" y="187"/>
      <point x="111" y="175" type="qcurve" smooth="yes"/>
      <point x="127" y="172" type="line"/>
      <point x="130" y="219" type="line" smooth="yes"/>
      <point x="133" y="258"/>
      <point x="133" y="315" type="qcurve" smooth="yes"/>
      <point x="133" y="364" type="line"/>
      <point x="102" y="371" type="line" smooth="yes"/>
      <point x="54" y="380"/>
      <point x="31" y="414" type="qcurve" smooth="yes"/>
      <point x="21" y="430"/>
      <point x="21" y="444" type="qcurve" smooth="yes"/>
      <point x="21" y="454"/>
      <point x="22" y="460" type="qcurve" smooth="yes"/>
      <point x="26" y="502"/>
      <point x="74" y="566"/>
      <point x="111" y="576" type="qcurve" smooth="yes"/>
      <point x="139" y="584" type="line"/>
    </contour>
  </outline>
</glyph>
<glyph name="percent" format="2">
  <advance width="357"/>
  <unicode hex="0025"/>
  <outline>
    <contour>
      <point x="307" y="603" type="qcurve" smooth="yes"/>
      <point x="326" y="640"/>
      <point x="336" y="640" type="qcurve" smooth="yes"/>
      <point x="341" y="640"/>
      <point x="341" y="627" type="qcurve" smooth="yes"/>
      <point x="341" y="587"/>
      <point x="167" y="314" type="qcurve" smooth="yes"/>
      <point x="109" y="222"/>
      <point x="109" y="220" type="qcurve" smooth="yes"/>
      <point x="109" y="216"/>
      <point x="77" y="161" type="qcurve" smooth="yes"/>
      <point x="45" y="104"/>
      <point x="31" y="104"/>
      <point x="17" y="122"/>
      <point x="16" y="131" type="qcurve" smooth="yes"/>
      <point x="16" y="147"/>
      <point x="145" y="341" type="qcurve" smooth="yes"/>
      <point x="264" y="516"/>
    </contour>
    <contour>
      <point x="45" y="471" type="qcurve" smooth="yes"/>
      <point x="54" y="480"/>
      <point x="81" y="480" type="qcurve" smooth="yes"/>
      <point x="102" y="480"/>
      <point x="114" y="468"/>
      <point x="114" y="449" type="qcurve" smooth="yes"/>
      <point x="114" y="428"/>
      <point x="97" y="416" type="qcurve" smooth="yes"/>
      <point x="81" y="404"/>
      <point x="72" y="404" type="qcurve" smooth="yes"/>
      <point x="64" y="404"/>
      <point x="50" y="416" type="qcurve" smooth="yes"/>
      <point x="37" y="428"/>
      <point x="37" y="447" type="qcurve" smooth="yes"/>
      <point x="37" y="463"/>
    </contour>
    <contour>
      <point x="265" y="351" type="qcurve" smooth="yes"/>
      <point x="278" y="357"/>
      <point x="290" y="357" type="qcurve" smooth="yes"/>
      <point x="319" y="357"/>
      <point x="319" y="327" type="qcurve" smooth="yes"/>
      <point x="319" y="314"/>
      <point x="312" y="300" type="qcurve" smooth="yes"/>
      <point x="304" y="283"/>
      <point x="288" y="283" type="qcurve" smooth="yes"/>
      <point x="268" y="283"/>
      <point x="256" y="309" type="qcurve" smooth="yes"/>
      <point x="250" y="321"/>
      <point x="250" y="330" type="qcurve" smooth="yes"/>
      <point x="250" y="344"/>
    </contour>
  </outline>
</glyph>
<glyph name="ampersand" format="2">
  <advance width="444"/>
  <unicode hex="0026"/>
  <outline>
    <contour>
      <point x="201" y="335" type="qcurve" smooth="yes"/>
      <point x="175" y="374"/>
      <point x="173" y="374" type="qcurve" smooth="yes"/>
      <point x="165" y="374"/>
      <point x="127" y="334" type="qcurve" smooth="yes"/>
      <point x="55" y="259"/>
      <point x="55" y="201" type="qcurve" smooth="yes"/>
      <point x="55" y="192" type="line" smooth="yes"/>
      <point x="57" y="162"/>
      <point x="72" y="146" type="qcurve" smooth="yes"/>
      <point x="96" y="122"/>
      <point x="127" y="122" type="qcurve" smooth="yes"/>
      <point x="137" y="122"/>
      <point x="146" y="125" type="qcurve" smooth="yes"/>
      <point x="170" y="133"/>
      <point x="240" y="187"/>
      <point x="263" y="216" type="qcurve" smooth="yes"/>
      <point x="282" y="238" type="line"/>
      <point x="253" y="269" type="line" smooth="yes"/>
      <point x="223" y="304"/>
    </contour>
    <contour>
      <point x="292" y="552" type="qcurve" smooth="yes"/>
      <point x="286" y="565"/>
      <point x="253" y="582"/>
      <point x="233" y="582" type="qcurve" smooth="yes"/>
      <point x="216" y="582"/>
      <point x="201" y="576" type="qcurve" smooth="yes"/>
      <point x="167" y="561"/>
      <point x="167" y="533" type="qcurve" smooth="yes"/>
      <point x="167" y="519"/>
      <point x="177" y="489" type="qcurve" smooth="yes"/>
      <point x="191" y="450"/>
      <point x="199" y="450" type="qcurve" smooth="yes"/>
      <point x="205" y="450"/>
      <point x="237" y="476" type="qcurve" smooth="yes"/>
      <point x="295" y="523"/>
      <point x="295" y="541" type="qcurve" smooth="yes"/>
      <point x="295" y="546"/>
    </contour>
    <contour>
      <point x="197" y="625" type="qcurve" smooth="yes"/>
      <point x="214" y="628"/>
      <point x="227" y="628" type="qcurve" smooth="yes"/>
      <point x="303" y="628"/>
      <point x="323" y="563" type="qcurve" smooth="yes"/>
      <point x="326" y="552"/>
      <point x="326" y="542" type="qcurve" smooth="yes"/>
      <point x="326" y="519"/>
      <point x="286" y="469"/>
      <point x="235" y="428" type="qcurve" smooth="yes"/>
      <point x="211" y="409" type="line"/>
      <point x="221" y="392" type="line" smooth="yes"/>
      <point x="230" y="377"/>
      <point x="309" y="272"/>
      <point x="312" y="272" type="qcurve" smooth="yes"/>
      <point x="317" y="272"/>
      <point x="360" y="308" type="qcurve" smooth="yes"/>
      <point x="405" y="346"/>
      <point x="413" y="346" type="qcurve" smooth="yes"/>
      <point x="418" y="346"/>
      <point x="418" y="344" type="qcurve" smooth="yes"/>
      <point x="418" y="339"/>
      <point x="377" y="287" type="qcurve" smooth="yes"/>
      <point x="344" y="246" type="line"/>
      <point x="387" y="201" type="line" smooth="yes"/>
      <point x="427" y="160"/>
      <point x="427" y="149" type="qcurve" smooth="yes"/>
      <point x="427" y="146"/>
      <point x="422" y="140"/>
      <point x="421" y="140" type="qcurve" smooth="yes"/>
      <point x="417" y="140"/>
      <point x="368" y="176" type="qcurve" smooth="yes"/>
      <point x="317" y="211" type="line"/>
      <point x="267" y="161" type="line" smooth="yes"/>
      <point x="186" y="81"/>
      <point x="129" y="81" type="qcurve" smooth="yes"/>
      <point x="109" y="81"/>
      <point x="94" y="86" type="qcurve" smooth="yes"/>
      <point x="16" y="109"/>
      <point x="16" y="197" type="qcurve" smooth="yes"/>
      <point x="16" y="223"/>
      <point x="22" y="249"/>
      <point x="36" y="277" type="qcurve" smooth="yes"/>
      <point x="56" y="317"/>
      <point x="105" y="366" type="qcurve" smooth="yes"/>
      <point x="150" y="410"/>
      <point x="150" y="422" type="qcurve" smooth="yes"/>
      <point x="150" y="425"/>
      <point x="135" y="468" type="qcurve" smooth="yes"/>
      <point x="122" y="503"/>
      <point x="122" y="540" type="qcurve" smooth="yes"/>
      <point x="122" y="564"/>
      <point x="129" y="578" type="qcurve" smooth="yes"/>
      <point x="137" y="594"/>
      <point x="176" y="621"/>
    </contour>
  </outline>
</glyph>
<glyph name="quotesingle" format="2">
  <advance width="58"/>
  <unicode hex="0027"/>
  <unicode hex="201A"/>
  <unicode hex="201A"/>
  <outline>
    <contour>
      <point x="33" y="615" type="qcurve" smooth="yes"/>
      <point x="36" y="620"/>
      <point x="38" y="620" type="qcurve" smooth="yes"/>
      <point x="43" y="620"/>
      <point x="43" y="585" type="qcurve" smooth="yes"/>
      <point x="43" y="556"/>
      <point x="42" y="536" type="qcurve" smooth="yes"/>
      <point x="38" y="452"/>
      <point x="37" y="451" type="qcurve"/>
      <point x="36" y="452" type="line" smooth="yes"/>
      <point x="35" y="453"/>
      <point x="32" y="459"/>
      <point x="29" y="464"/>
      <point x="26" y="470" type="qcurve" smooth="yes"/>
      <point x="15" y="492"/>
      <point x="15" y="523" type="qcurve" smooth="yes"/>
      <point x="15" y="548"/>
      <point x="23" y="580" type="qcurve" smooth="yes"/>
      <point x="32" y="614"/>
    </contour>
  </outline>
</glyph>
<glyph name="parenleft" format="2">
  <advance width="159"/>
  <unicode hex="0028"/>
  <outline>
    <contour>
      <point x="99" y="588" type="qcurve" smooth="yes"/>
      <point x="118" y="609"/>
      <point x="131" y="609" type="qcurve" smooth="yes"/>
      <point x="142" y="609"/>
      <point x="144" y="597"/>
      <point x="134" y="591" type="qcurve" smooth="yes"/>
      <point x="114" y="579"/>
      <point x="73" y="455"/>
      <point x="63" y="380" type="qcurve" smooth="yes"/>
      <point x="57" y="334"/>
      <point x="57" y="279" type="qcurve" smooth="yes"/>
      <point x="57" y="206"/>
      <point x="67" y="176" type="qcurve" smooth="yes"/>
      <point x="74" y="156"/>
      <point x="111" y="77"/>
      <point x="121" y="62" type="qcurve" smooth="yes"/>
      <point x="127" y="53"/>
      <point x="127" y="48" type="qcurve" smooth="yes"/>
      <point x="127" y="45"/>
      <point x="123" y="45" type="qcurve" smooth="yes"/>
      <point x="116" y="45"/>
      <point x="101" y="51" type="qcurve" smooth="yes"/>
      <point x="16" y="89"/>
      <point x="16" y="255" type="qcurve" smooth="yes"/>
      <point x="16" y="314"/>
      <point x="28" y="388" type="qcurve" smooth="yes"/>
      <point x="51" y="534"/>
    </contour>
  </outline>
</glyph>
<glyph name="parenright" format="2">
  <advance width="159"/>
  <unicode hex="0029"/>
  <outline>
    <contour>
      <point x="32" y="609"/>
      <point x="39" y="609" type="qcurve" smooth="yes"/>
      <point x="49" y="609"/>
      <point x="63" y="602" type="qcurve" smooth="yes"/>
      <point x="101" y="582"/>
      <point x="144" y="439"/>
      <point x="144" y="348" type="qcurve" smooth="yes"/>
      <point x="144" y="212"/>
      <point x="99" y="117" type="qcurve" smooth="yes"/>
      <point x="89" y="95"/>
      <point x="25" y="24"/>
      <point x="17" y="24" type="qcurve" smooth="yes"/>
      <point x="16" y="24" type="line" smooth="yes"/>
      <point x="12" y="26"/>
      <point x="50" y="121" type="qcurve" smooth="yes"/>
      <point x="84" y="207"/>
      <point x="104" y="297"/>
      <point x="105" y="367" type="qcurve" smooth="yes"/>
      <point x="105" y="376" type="line" smooth="yes"/>
      <point x="105" y="521"/>
      <point x="52" y="577" type="qcurve" smooth="yes"/>
      <point x="32" y="599"/>
    </contour>
  </outline>
</glyph>
<glyph name="asterisk" format="2">
  <advance width="380"/>
  <unicode hex="002A"/>
  <outline>
    <contour>
      <point x="172" y="627" type="qcurve" smooth="yes"/>
      <point x="174" y="633"/>
      <point x="180" y="636"/>
      <point x="185" y="630"/>
      <point x="186" y="624" type="qcurve" smooth="yes"/>
      <point x="187" y="621"/>
      <point x="196" y="489"/>
      <point x="198" y="485" type="qcurve"/>
      <point x="199" y="485" type="line" smooth="yes"/>
      <point x="207" y="485"/>
      <point x="263" y="522" type="qcurve" smooth="yes"/>
      <point x="336" y="569"/>
      <point x="360" y="569" type="qcurve" smooth="yes"/>
      <point x="365" y="569"/>
      <point x="365" y="565" type="qcurve" smooth="yes"/>
      <point x="365" y="544"/>
      <point x="285" y="496" type="qcurve" smooth="yes"/>
      <point x="228" y="463"/>
      <point x="228" y="460" type="qcurve" smooth="yes"/>
      <point x="228" y="456"/>
      <point x="354" y="353"/>
      <point x="354" y="344" type="qcurve" smooth="yes"/>
      <point x="354" y="341"/>
      <point x="337" y="341" type="qcurve" smooth="yes"/>
      <point x="322" y="341"/>
      <point x="294" y="359"/>
      <point x="252" y="397" type="qcurve" smooth="yes"/>
      <point x="211" y="433"/>
      <point x="207" y="433" type="qcurve" smooth="yes"/>
      <point x="205" y="433"/>
      <point x="214" y="394"/>
      <point x="229" y="349"/>
      <point x="233" y="340" type="qcurve" smooth="yes"/>
      <point x="240" y="327"/>
      <point x="240" y="314" type="qcurve" smooth="yes"/>
      <point x="240" y="303"/>
      <point x="230" y="288"/>
      <point x="223" y="288" type="qcurve" smooth="yes"/>
      <point x="212" y="288"/>
      <point x="202" y="305" type="qcurve" smooth="yes"/>
      <point x="196" y="316"/>
      <point x="179" y="395"/>
      <point x="179" y="411" type="qcurve" smooth="yes"/>
      <point x="179" y="424"/>
      <point x="172" y="424" type="qcurve" smooth="yes"/>
      <point x="166" y="424"/>
      <point x="43" y="337"/>
      <point x="30" y="326" type="qcurve" smooth="yes"/>
      <point x="20" y="319"/>
      <point x="16" y="329" type="qcurve" smooth="yes"/>
      <point x="16" y="330"/>
      <point x="16" y="330" type="qcurve"/>
      <point x="15" y="332" type="line" smooth="yes"/>
      <point x="15" y="340"/>
      <point x="53" y="373"/>
      <point x="113" y="418" type="qcurve" smooth="yes"/>
      <point x="173" y="464" type="line"/>
      <point x="119" y="507" type="line" smooth="yes"/>
      <point x="66" y="550"/>
      <point x="60" y="559" type="qcurve" smooth="yes"/>
      <point x="55" y="569"/>
      <point x="55" y="573"/>
      <point x="58" y="573" type="qcurve" smooth="yes"/>
      <point x="67" y="573"/>
      <point x="115" y="537" type="qcurve" smooth="yes"/>
      <point x="164" y="501"/>
      <point x="166" y="501" type="qcurve" smooth="yes"/>
      <point x="169" y="501"/>
      <point x="169" y="560" type="qcurve" smooth="yes"/>
      <point x="169" y="620"/>
    </contour>
  </outline>
</glyph>
<glyph name="plus" format="2">
  <advance width="401"/>
  <unicode hex="002B"/>
  <outline>
    <contour>
      <point x="163" y="465" type="line" smooth="yes"/>
      <point x="161" y="511"/>
      <point x="161" y="513" type="qcurve" smooth="yes"/>
      <point x="161" y="532"/>
      <point x="167" y="532" type="qcurve" smooth="yes"/>
      <point x="175" y="532"/>
      <point x="175" y="528" type="qcurve" smooth="yes"/>
      <point x="175" y="519"/>
      <point x="178" y="498" type="qcurve" smooth="yes"/>
      <point x="181" y="462"/>
      <point x="183" y="439" type="qcurve" smooth="yes"/>
      <point x="186" y="406" type="line"/>
      <point x="277" y="406" type="line" smooth="yes"/>
      <point x="367" y="406"/>
      <point x="379" y="399" type="qcurve" smooth="yes"/>
      <point x="388" y="393"/>
      <point x="381" y="391" type="qcurve" smooth="yes"/>
      <point x="367" y="386"/>
      <point x="266" y="371"/>
      <point x="233" y="369" type="qcurve" smooth="yes"/>
      <point x="184" y="365" type="line"/>
      <point x="187" y="337" type="line" smooth="yes"/>
      <point x="194" y="268"/>
      <point x="194" y="239" type="qcurve" smooth="yes"/>
      <point x="194" y="217"/>
      <point x="189" y="213" type="qcurve" smooth="yes"/>
      <point x="181" y="207"/>
      <point x="173" y="215" type="qcurve" smooth="yes"/>
      <point x="160" y="228"/>
      <point x="160" y="267" type="qcurve" smooth="yes"/>
      <point x="160" y="290"/>
      <point x="161" y="306" type="qcurve" smooth="yes"/>
      <point x="164" y="362" type="line"/>
      <point x="91" y="361" type="line" smooth="yes"/>
      <point x="72" y="360"/>
      <point x="48" y="360" type="qcurve" smooth="yes"/>
      <point x="26" y="360"/>
      <point x="16" y="365"/>
      <point x="16" y="374" type="qcurve" smooth="yes"/>
      <point x="16" y="380"/>
      <point x="35" y="383" type="qcurve" smooth="yes"/>
      <point x="38" y="384"/>
      <point x="40" y="384" type="qcurve" smooth="yes"/>
      <point x="46" y="385"/>
      <point x="100" y="391"/>
      <point x="115" y="393" type="qcurve" smooth="yes"/>
      <point x="166" y="399" type="line"/>
    </contour>
  </outline>
</glyph>
<glyph name="comma" format="2">
  <advance width="110"/>
  <unicode hex="002C"/>
  <outline>
    <contour>
      <point x="52" y="144" type="qcurve" smooth="yes"/>
      <point x="84" y="208"/>
      <point x="93" y="208" type="qcurve" smooth="yes"/>
      <point x="96" y="208"/>
      <point x="96" y="190"/>
      <point x="95" y="184" type="qcurve" smooth="yes"/>
      <point x="90" y="155"/>
      <point x="56" y="79"/>
      <point x="37" y="59" type="qcurve" smooth="yes"/>
      <point x="14" y="35" type="line"/>
      <point x="17" y="58" type="line" smooth="yes"/>
      <point x="21" y="84"/>
    </contour>
  </outline>
</glyph>
<glyph name="hyphen" format="2">
  <advance width="204"/>
  <unicode hex="002D"/>
  <outline>
    <contour>
      <point x="57" y="310" type="qcurve" smooth="yes"/>
      <point x="109" y="315"/>
      <point x="131" y="315" type="qcurve" smooth="yes"/>
      <point x="162" y="315"/>
      <point x="178" y="308" type="qcurve" smooth="yes"/>
      <point x="193" y="298"/>
      <point x="191" y="295" type="qcurve" smooth="yes"/>
      <point x="181" y="280"/>
      <point x="91" y="280" type="qcurve" smooth="yes"/>
      <point x="24" y="280"/>
      <point x="16" y="291" type="qcurve" smooth="yes"/>
      <point x="11" y="300"/>
      <point x="14" y="303" type="qcurve" smooth="yes"/>
      <point x="15" y="304"/>
    </contour>
  </outline>
</glyph>
<glyph name="period" format="2">
  <advance width="85"/>
  <unicode hex="002E"/>
  <outline>
    <contour>
      <point x="26" y="183" type="qcurve" smooth="yes"/>
      <point x="36" y="192"/>
      <point x="46" y="192" type="qcurve" smooth="yes"/>
      <point x="57" y="192"/>
      <point x="72" y="172"/>
      <point x="72" y="156" type="qcurve" smooth="yes"/>
      <point x="72" y="138"/>
      <point x="60" y="126" type="qcurve" smooth="yes"/>
      <point x="52" y="118"/>
      <point x="42" y="118"/>
      <point x="31" y="125" type="qcurve" smooth="yes"/>
      <point x="13" y="136"/>
      <point x="13" y="156" type="qcurve" smooth="yes"/>
      <point x="13" y="173"/>
    </contour>
  </outline>
</glyph>
<glyph name="slash" format="2">
  <advance width="216"/>
  <unicode hex="002F"/>
  <outline>
    <contour>
      <point x="185" y="606" type="qcurve" smooth="yes"/>
      <point x="194" y="625"/>
      <point x="198" y="618" type="qcurve" smooth="yes"/>
      <point x="200" y="615"/>
      <point x="200" y="610" type="qcurve" smooth="yes"/>
      <point x="200" y="595"/>
      <point x="49" y="178"/>
      <point x="41" y="170" type="qcurve" smooth="yes"/>
      <point x="38" y="167"/>
      <point x="34" y="167" type="qcurve" smooth="yes"/>
      <point x="29" y="167"/>
      <point x="16" y="178"/>
      <point x="16" y="186" type="qcurve" smooth="yes"/>
      <point x="16" y="203"/>
      <point x="65" y="316" type="qcurve" smooth="yes"/>
      <point x="105" y="411"/>
      <point x="147" y="514" type="qcurve" smooth="yes"/>
      <point x="177" y="590"/>
    </contour>
  </outline>
</glyph>
<glyph name="zero" format="2">
  <advance width="348"/>
  <unicode hex="0030"/>
  <outline>
    <contour>
      <point x="191" y="573"/>
      <point x="182" y="573" type="qcurve" smooth="yes"/>
      <point x="165" y="573"/>
      <point x="117" y="557" type="qcurve" smooth="yes"/>
      <point x="94" y="549"/>
      <point x="81" y="539"/>
      <point x="72" y="520" type="qcurve" smooth="yes"/>
      <point x="48" y="471"/>
      <point x="47" y="385" type="qcurve" smooth="yes"/>
      <point x="47" y="379" type="line" smooth="yes"/>
      <point x="47" y="316"/>
      <point x="77" y="206"/>
      <point x="102" y="180" type="qcurve" smooth="yes"/>
      <point x="128" y="151"/>
      <point x="168" y="151" type="qcurve" smooth="yes"/>
      <point x="186" y="152"/>
      <point x="237" y="191"/>
      <point x="255" y="219" type="qcurve" smooth="yes"/>
      <point x="304" y="293"/>
      <point x="304" y="385" type="qcurve" smooth="yes"/>
      <point x="304" y="454"/>
      <point x="275" y="511" type="qcurve" smooth="yes"/>
      <point x="261" y="539"/>
      <point x="235" y="563"/>
    </contour>
    <contour>
      <point x="112" y="591" type="qcurve" smooth="yes"/>
      <point x="140" y="605"/>
      <point x="179" y="605" type="qcurve" smooth="yes"/>
      <point x="217" y="605"/>
      <point x="243" y="593" type="qcurve" smooth="yes"/>
      <point x="285" y="573"/>
      <point x="315" y="488" type="qcurve" smooth="yes"/>
      <point x="332" y="442"/>
      <point x="332" y="372" type="qcurve" smooth="yes"/>
      <point x="332" y="329"/>
      <point x="325" y="298" type="qcurve" smooth="yes"/>
      <point x="308" y="222"/>
      <point x="214" y="109"/>
      <point x="168" y="109" type="qcurve" smooth="yes"/>
      <point x="100" y="109"/>
      <point x="16" y="248"/>
      <point x="16" y="363" type="qcurve" smooth="yes"/>
      <point x="16" y="465"/>
      <point x="49" y="527" type="qcurve" smooth="yes"/>
      <point x="63" y="554"/>
      <point x="87" y="578"/>
    </contour>
  </outline>
</glyph>
<glyph name="one" format="2">
  <advance width="298"/>
  <unicode hex="0031"/>
  <outline>
    <contour>
      <point x="140" y="629" type="qcurve" smooth="yes"/>
      <point x="146" y="635"/>
      <point x="154" y="635" type="qcurve" smooth="yes"/>
      <point x="163" y="635"/>
      <point x="169" y="629" type="qcurve" smooth="yes"/>
      <point x="174" y="624"/>
      <point x="174" y="607" type="qcurve" smooth="yes"/>
      <point x="174" y="586"/>
      <point x="167" y="573" type="qcurve" smooth="yes"/>
      <point x="160" y="562"/>
      <point x="159" y="439" type="qcurve" smooth="yes"/>
      <point x="159" y="268"/>
      <point x="180" y="162" type="qcurve" smooth="yes"/>
      <point x="186" y="135" type="line"/>
      <point x="212" y="138" type="line" smooth="yes"/>
      <point x="221" y="139"/>
      <point x="253" y="143"/>
      <point x="255" y="143" type="qcurve" smooth="yes"/>
      <point x="259" y="144"/>
      <point x="265" y="144" type="qcurve" smooth="yes"/>
      <point x="282" y="144"/>
      <point x="282" y="129" type="qcurve" smooth="yes"/>
      <point x="282" y="126"/>
      <point x="280" y="116" type="qcurve" smooth="yes"/>
      <point x="275" y="96" type="line"/>
      <point x="250" y="98" type="line"/>
      <point x="72" y="108"/>
      <point x="63" y="115" type="qcurve" smooth="yes"/>
      <point x="56" y="120"/>
      <point x="56" y="128" type="qcurve" smooth="yes"/>
      <point x="56" y="135"/>
      <point x="97" y="135" type="qcurve" smooth="yes"/>
      <point x="117" y="135" type="line" smooth="yes"/>
      <point x="129" y="135"/>
      <point x="138" y="143"/>
      <point x="138" y="157" type="qcurve" smooth="yes"/>
      <point x="138" y="164"/>
      <point x="136" y="185"/>
      <point x="132" y="223"/>
      <point x="130" y="240" type="qcurve" smooth="yes"/>
      <point x="124" y="303"/>
      <point x="124" y="387" type="qcurve" smooth="yes"/>
      <point x="124" y="420" type="line"/>
      <point x="126" y="521" type="line"/>
      <point x="113" y="513" type="line" smooth="yes"/>
      <point x="72" y="487"/>
      <point x="49" y="480" type="qcurve" smooth="yes"/>
      <point x="29" y="474"/>
      <point x="21" y="482" type="qcurve" smooth="yes"/>
      <point x="16" y="487"/>
      <point x="16" y="491"/>
      <point x="23" y="493" type="qcurve" smooth="yes"/>
      <point x="63" y="505"/>
      <point x="101" y="540" type="qcurve" smooth="yes"/>
      <point x="119" y="555"/>
      <point x="128" y="572"/>
      <point x="131" y="593" type="qcurve" smooth="yes"/>
      <point x="135" y="622"/>
    </contour>
  </outline>
</glyph>
<glyph name="two" format="2">
  <advance width="423"/>
  <unicode hex="0032"/>
  <outline>
    <contour>
      <point x="131" y="187" type="qcurve" smooth="yes"/>
      <point x="129" y="188"/>
      <point x="124" y="190"/>
      <point x="121" y="191"/>
      <point x="117" y="191"/>
      <point x="112" y="190"/>
      <point x="103" y="188"/>
      <point x="99" y="187" type="qcurve" smooth="yes"/>
      <point x="83" y="183"/>
      <point x="60" y="168"/>
      <point x="60" y="162" type="qcurve" smooth="yes"/>
      <point x="60" y="160"/>
      <point x="61" y="159" type="qcurve" smooth="yes"/>
      <point x="63" y="157"/>
      <point x="70" y="157" type="qcurve" smooth="yes"/>
      <point x="98" y="157"/>
      <point x="127" y="175" type="qcurve" smooth="yes"/>
      <point x="139" y="183"/>
      <point x="136" y="185" type="qcurve" smooth="yes"/>
      <point x="135" y="185"/>
    </contour>
    <contour>
      <point x="228" y="618" type="qcurve" smooth="yes"/>
      <point x="246" y="624"/>
      <point x="265" y="624" type="qcurve" smooth="yes"/>
      <point x="326" y="624"/>
      <point x="363" y="582" type="qcurve" smooth="yes"/>
      <point x="398" y="546"/>
      <point x="398" y="501" type="qcurve" smooth="yes"/>
      <point x="398" y="496" type="line" smooth="yes"/>
      <point x="398" y="446"/>
      <point x="361" y="388" type="qcurve" smooth="yes"/>
      <point x="345" y="363"/>
      <point x="257" y="247"/>
      <point x="225" y="211" type="qcurve" smooth="yes"/>
      <point x="195" y="177" type="line"/>
      <point x="211" y="161" type="line" smooth="yes"/>
      <point x="238" y="136"/>
      <point x="275" y="136" type="qcurve" smooth="yes"/>
      <point x="282" y="136"/>
      <point x="286" y="137" type="qcurve" smooth="yes"/>
      <point x="291" y="138"/>
      <point x="355" y="158" type="qcurve" smooth="yes"/>
      <point x="397" y="173"/>
      <point x="406" y="173" type="qcurve" smooth="yes"/>
      <point x="407" y="173" type="line"/>
      <point x="407" y="172"/>
      <point x="388" y="147" type="qcurve" smooth="yes"/>
      <point x="348" y="98"/>
      <point x="279" y="98" type="qcurve" smooth="yes"/>
      <point x="274" y="98" type="line" smooth="yes"/>
      <point x="224" y="98"/>
      <point x="187" y="134" type="qcurve" smooth="yes"/>
      <point x="168" y="151" type="line"/>
      <point x="132" y="132" type="line" smooth="yes"/>
      <point x="98" y="114"/>
      <point x="77" y="114" type="qcurve" smooth="yes"/>
      <point x="53" y="114"/>
      <point x="16" y="147"/>
      <point x="16" y="168" type="qcurve" smooth="yes"/>
      <point x="16" y="172"/>
      <point x="18" y="180" type="qcurve" smooth="yes"/>
      <point x="24" y="197"/>
      <point x="86" y="228"/>
      <point x="117" y="228" type="qcurve" smooth="yes"/>
      <point x="141" y="228"/>
      <point x="156" y="217" type="qcurve" smooth="yes"/>
      <point x="172" y="206" type="line"/>
      <point x="197" y="234" type="line" smooth="yes"/>
      <point x="242" y="284"/>
      <point x="341" y="412"/>
      <point x="353" y="436" type="qcurve" smooth="yes"/>
      <point x="371" y="472"/>
      <point x="371" y="499" type="qcurve" smooth="yes"/>
      <point x="371" y="520"/>
      <point x="360" y="542" type="qcurve" smooth="yes"/>
      <point x="333" y="598"/>
      <point x="267" y="598" type="qcurve" smooth="yes"/>
      <point x="234" y="598"/>
      <point x="202" y="582" type="qcurve" smooth="yes"/>
      <point x="182" y="572"/>
      <point x="146" y="535"/>
      <point x="146" y="525" type="qcurve" smooth="yes"/>
      <point x="146" y="524"/>
      <point x="146" y="521" type="qcurve" smooth="yes"/>
      <point x="147" y="518"/>
      <point x="146" y="517" type="qcurve" smooth="yes"/>
      <point x="143" y="518" type="line" smooth="yes"/>
      <point x="135" y="522"/>
      <point x="135" y="538" type="qcurve" smooth="yes"/>
      <point x="135" y="559"/>
      <point x="189" y="605"/>
    </contour>
  </outline>
</glyph>
<glyph name="three" format="2">
  <advance width="351"/>
  <unicode hex="0033"/>
  <outline>
    <contour>
      <point x="128" y="614" type="qcurve" smooth="yes"/>
      <point x="159" y="625"/>
      <point x="195" y="625" type="qcurve" smooth="yes"/>
      <point x="214" y="625"/>
      <point x="232" y="620" type="qcurve" smooth="yes"/>
      <point x="261" y="612"/>
      <point x="299" y="549"/>
      <point x="299" y="513" type="qcurve" smooth="yes"/>
      <point x="299" y="488"/>
      <point x="291" y="471" type="qcurve" smooth="yes"/>
      <point x="287" y="462"/>
      <point x="283" y="450"/>
      <point x="282" y="445"/>
      <point x="275" y="437"/>
      <point x="266" y="429" type="qcurve" smooth="yes"/>
      <point x="248" y="414" type="line"/>
      <point x="262" y="406" type="line" smooth="yes"/>
      <point x="278" y="398"/>
      <point x="315" y="357"/>
      <point x="323" y="339" type="qcurve" smooth="yes"/>
      <point x="335" y="312"/>
      <point x="335" y="261" type="qcurve" smooth="yes"/>
      <point x="335" y="226"/>
      <point x="328" y="206" type="qcurve" smooth="yes"/>
      <point x="308" y="142"/>
      <point x="251" y="112" type="qcurve" smooth="yes"/>
      <point x="222" y="97"/>
      <point x="171" y="95" type="qcurve" smooth="yes"/>
      <point x="155" y="95" type="line" smooth="yes"/>
      <point x="53" y="95"/>
      <point x="24" y="151" type="qcurve" smooth="yes"/>
      <point x="16" y="167"/>
      <point x="16" y="180" type="qcurve" smooth="yes"/>
      <point x="16" y="191"/>
      <point x="22" y="191" type="qcurve" smooth="yes"/>
      <point x="26" y="191"/>
      <point x="30" y="185" type="qcurve" smooth="yes"/>
      <point x="37" y="176"/>
      <point x="108" y="145"/>
      <point x="131" y="140" type="qcurve" smooth="yes"/>
      <point x="149" y="137"/>
      <point x="166" y="137" type="qcurve" smooth="yes"/>
      <point x="225" y="137"/>
      <point x="300" y="210"/>
      <point x="300" y="268" type="qcurve" smooth="yes"/>
      <point x="300" y="289"/>
      <point x="288" y="337"/>
      <point x="265" y="357" type="qcurve" smooth="yes"/>
      <point x="235" y="384"/>
      <point x="193" y="384" type="qcurve" smooth="yes"/>
      <point x="180" y="384"/>
      <point x="163" y="381" type="qcurve" smooth="yes"/>
      <point x="148" y="378"/>
      <point x="140" y="378" type="qcurve" smooth="yes"/>
      <point x="131" y="378"/>
      <point x="120" y="386" type="qcurve" smooth="yes"/>
      <point x="106" y="396"/>
      <point x="106" y="409" type="qcurve" smooth="yes"/>
      <point x="106" y="418"/>
      <point x="119" y="422"/>
      <point x="153" y="424" type="qcurve" smooth="yes"/>
      <point x="198" y="426"/>
      <point x="225" y="442" type="qcurve" smooth="yes"/>
      <point x="271" y="471"/>
      <point x="271" y="520" type="qcurve" smooth="yes"/>
      <point x="271" y="563"/>
      <point x="233" y="586" type="qcurve" smooth="yes"/>
      <point x="216" y="596"/>
      <point x="186" y="596" type="qcurve" smooth="yes"/>
      <point x="147" y="596"/>
      <point x="68" y="566"/>
      <point x="58" y="545" type="qcurve" smooth="yes"/>
      <point x="55" y="539"/>
      <point x="54" y="538"/>
      <point x="52" y="538"/>
      <point x="50" y="544" type="qcurve" smooth="yes"/>
      <point x="49" y="546"/>
      <point x="49" y="551" type="qcurve" smooth="yes"/>
      <point x="49" y="567"/>
      <point x="94" y="604"/>
    </contour>
  </outline>
</glyph>
<glyph name="four" format="2">
  <advance width="434"/>
  <unicode hex="0034"/>
  <outline>
    <contour>
      <point x="168" y="613" type="qcurve" smooth="yes"/>
      <point x="172" y="635"/>
      <point x="182" y="635" type="qcurve" smooth="yes"/>
      <point x="189" y="635"/>
      <point x="190" y="628"/>
      <point x="188" y="611" type="qcurve" smooth="yes"/>
      <point x="177" y="534"/>
      <point x="83" y="357" type="qcurve" smooth="yes"/>
      <point x="52" y="299"/>
      <point x="52" y="286" type="qcurve" smooth="yes"/>
      <point x="52" y="266"/>
      <point x="91" y="266" type="qcurve" smooth="yes"/>
      <point x="111" y="266"/>
      <point x="147" y="269" type="qcurve" smooth="yes"/>
      <point x="156" y="270"/>
      <point x="171" y="271" type="qcurve" smooth="yes"/>
      <point x="218" y="274"/>
      <point x="237" y="289"/>
      <point x="237" y="326" type="qcurve" smooth="yes"/>
      <point x="237" y="377" type="line" smooth="yes"/>
      <point x="237" y="496"/>
      <point x="248" y="496" type="qcurve" smooth="yes"/>
      <point x="250" y="496"/>
      <point x="255" y="389"/>
      <point x="258" y="282"/>
      <point x="259" y="281" type="qcurve" smooth="yes"/>
      <point x="261" y="281" type="line" smooth="yes"/>
      <point x="263" y="281"/>
      <point x="291" y="285" type="qcurve" smooth="yes"/>
      <point x="323" y="289"/>
      <point x="407" y="289"/>
      <point x="412" y="284" type="qcurve" smooth="yes"/>
      <point x="418" y="278"/>
      <point x="418" y="271" type="qcurve" smooth="yes"/>
      <point x="418" y="261"/>
      <point x="406" y="252" type="qcurve" smooth="yes"/>
      <point x="392" y="244"/>
      <point x="331" y="239" type="qcurve" smooth="yes"/>
      <point x="264" y="234"/>
      <point x="264" y="229" type="qcurve" smooth="yes"/>
      <point x="264" y="212"/>
      <point x="274" y="134" type="qcurve" smooth="yes"/>
      <point x="285" y="32"/>
      <point x="285" y="17" type="qcurve" smooth="yes"/>
      <point x="285" y="-1"/>
      <point x="277" y="-6" type="qcurve" smooth="yes"/>
      <point x="268" y="-12"/>
      <point x="248" y="14"/>
      <point x="245" y="122" type="qcurve" smooth="yes"/>
      <point x="241" y="231" type="line"/>
      <point x="204" y="227" type="line" smooth="yes"/>
      <point x="164" y="223"/>
      <point x="115" y="223" type="qcurve" smooth="yes"/>
      <point x="105" y="223" type="line" smooth="yes"/>
      <point x="67" y="223"/>
      <point x="32" y="236"/>
      <point x="23" y="254" type="qcurve" smooth="yes"/>
      <point x="16" y="267"/>
      <point x="16" y="280" type="qcurve" smooth="yes"/>
      <point x="16" y="305"/>
      <point x="79" y="417" type="qcurve" smooth="yes"/>
      <point x="158" y="553"/>
    </contour>
  </outline>
</glyph>
<glyph name="five" format="2">
  <advance width="292"/>
  <unicode hex="0035"/>
  <outline>
    <contour>
      <point x="39" y="589" type="qcurve" smooth="yes"/>
      <point x="37" y="593"/>
      <point x="37" y="595" type="qcurve" smooth="yes"/>
      <point x="37" y="601"/>
      <point x="47" y="609"/>
      <point x="57" y="609"/>
      <point x="57" y="604" type="qcurve" smooth="yes"/>
      <point x="57" y="600"/>
      <point x="91" y="600" type="qcurve" smooth="yes"/>
      <point x="106" y="600"/>
      <point x="189" y="602"/>
      <point x="209" y="602" type="qcurve" smooth="yes"/>
      <point x="268" y="602"/>
      <point x="268" y="594" type="qcurve" smooth="yes"/>
      <point x="268" y="578"/>
      <point x="147" y="578" type="qcurve" smooth="yes"/>
      <point x="59" y="578" type="line"/>
      <point x="55" y="506" type="line" smooth="yes"/>
      <point x="53" y="456"/>
      <point x="53" y="445" type="qcurve" smooth="yes"/>
      <point x="53" y="430"/>
      <point x="55" y="428"/>
      <point x="58" y="428" type="qcurve" smooth="yes"/>
      <point x="66" y="428"/>
      <point x="87" y="435" type="qcurve" smooth="yes"/>
      <point x="114" y="444"/>
      <point x="150" y="444" type="qcurve" smooth="yes"/>
      <point x="199" y="444"/>
      <point x="226" y="429" type="qcurve" smooth="yes"/>
      <point x="276" y="401"/>
      <point x="276" y="324" type="qcurve" smooth="yes"/>
      <point x="276" y="286"/>
      <point x="259" y="247" type="qcurve" smooth="yes"/>
      <point x="235" y="195"/>
      <point x="147" y="130"/>
      <point x="97" y="126" type="qcurve" smooth="yes"/>
      <point x="94" y="126"/>
      <point x="84" y="125"/>
      <point x="82" y="125" type="qcurve" smooth="yes"/>
      <point x="49" y="125"/>
      <point x="28" y="155" type="qcurve" smooth="yes"/>
      <point x="16" y="173"/>
      <point x="16" y="191" type="qcurve" smooth="yes"/>
      <point x="16" y="202"/>
      <point x="20" y="207" type="qcurve" smooth="yes"/>
      <point x="22" y="210"/>
      <point x="25" y="210" type="qcurve" smooth="yes"/>
      <point x="31" y="210"/>
      <point x="51" y="197" type="qcurve" smooth="yes"/>
      <point x="78" y="181"/>
      <point x="95" y="181" type="qcurve" smooth="yes"/>
      <point x="148" y="181"/>
      <point x="237" y="273"/>
      <point x="237" y="327" type="qcurve" smooth="yes"/>
      <point x="237" y="373"/>
      <point x="200" y="409"/>
      <point x="151" y="412" type="qcurve" smooth="yes"/>
      <point x="138" y="412" type="line" smooth="yes"/>
      <point x="73" y="412"/>
      <point x="53" y="387" type="qcurve" smooth="yes"/>
      <point x="41" y="370"/>
      <point x="31" y="388" type="qcurve" smooth="yes"/>
      <point x="28" y="394"/>
      <point x="28" y="414" type="qcurve" smooth="yes"/>
      <point x="28" y="441"/>
      <point x="40" y="570"/>
      <point x="40" y="581" type="qcurve" smooth="yes"/>
      <point x="40" y="588"/>
    </contour>
  </outline>
</glyph>
<glyph name="six" format="2">
  <advance width="319"/>
  <unicode hex="0036"/>
  <outline>
    <contour>
      <point x="209" y="357" type="qcurve" smooth="yes"/>
      <point x="189" y="367"/>
      <point x="170" y="367" type="qcurve" smooth="yes"/>
      <point x="137" y="367"/>
      <point x="98" y="328" type="qcurve" smooth="yes"/>
      <point x="83" y="314"/>
      <point x="73" y="295"/>
      <point x="71" y="278" type="qcurve" smooth="yes"/>
      <point x="70" y="272"/>
      <point x="70" y="263" type="qcurve" smooth="yes"/>
      <point x="70" y="248"/>
      <point x="81" y="226" type="qcurve" smooth="yes"/>
      <point x="93" y="202"/>
      <point x="107" y="184" type="qcurve" smooth="yes"/>
      <point x="119" y="168"/>
      <point x="161" y="140"/>
      <point x="185" y="140"/>
      <point x="233" y="183"/>
      <point x="247" y="207" type="qcurve" smooth="yes"/>
      <point x="260" y="230"/>
      <point x="260" y="273" type="qcurve" smooth="yes"/>
      <point x="260" y="303"/>
      <point x="256" y="319"/>
      <point x="245" y="331" type="qcurve" smooth="yes"/>
      <point x="231" y="347"/>
    </contour>
    <contour>
      <point x="124" y="596" type="qcurve" smooth="yes"/>
      <point x="151" y="609"/>
      <point x="183" y="609" type="qcurve" smooth="yes"/>
      <point x="237" y="609"/>
      <point x="237" y="579" type="qcurve" smooth="yes"/>
      <point x="237" y="566"/>
      <point x="236" y="565" type="qcurve"/>
      <point x="231" y="572" type="line" smooth="yes"/>
      <point x="224" y="585"/>
      <point x="202" y="585" type="qcurve" smooth="yes"/>
      <point x="189" y="585"/>
      <point x="181" y="584" type="qcurve" smooth="yes"/>
      <point x="126" y="581"/>
      <point x="84" y="511" type="qcurve" smooth="yes"/>
      <point x="71" y="489"/>
      <point x="48" y="392"/>
      <point x="48" y="361" type="qcurve" smooth="yes"/>
      <point x="48" y="348"/>
      <point x="51" y="341" type="qcurve" smooth="yes"/>
      <point x="55" y="328" type="line"/>
      <point x="59" y="340" type="line" smooth="yes"/>
      <point x="62" y="350"/>
      <point x="88" y="374" type="qcurve" smooth="yes"/>
      <point x="125" y="406"/>
      <point x="166" y="406" type="qcurve" smooth="yes"/>
      <point x="179" y="406"/>
      <point x="194" y="403" type="qcurve" smooth="yes"/>
      <point x="243" y="392"/>
      <point x="303" y="316"/>
      <point x="303" y="266" type="qcurve" smooth="yes"/>
      <point x="303" y="251"/>
      <point x="300" y="236" type="qcurve" smooth="yes"/>
      <point x="290" y="179"/>
      <point x="214" y="94"/>
      <point x="173" y="93" type="qcurve" smooth="yes"/>
      <point x="171" y="93" type="line" smooth="yes"/>
      <point x="138" y="93"/>
      <point x="72" y="153"/>
      <point x="47" y="205" type="qcurve" smooth="yes"/>
      <point x="16" y="270"/>
      <point x="16" y="353" type="qcurve" smooth="yes"/>
      <point x="16" y="434"/>
      <point x="74" y="571"/>
    </contour>
  </outline>
</glyph>
<glyph name="seven" format="2">
  <advance width="346"/>
  <unicode hex="0037"/>
  <outline>
    <contour>
      <point x="253" y="618" type="qcurve" smooth="yes"/>
      <point x="265" y="640"/>
      <point x="296" y="645" type="qcurve" smooth="yes"/>
      <point x="307" y="645"/>
      <point x="330" y="628"/>
      <point x="330" y="618" type="qcurve" smooth="yes"/>
      <point x="330" y="604"/>
      <point x="307" y="574"/>
      <point x="295" y="571" type="qcurve" smooth="yes"/>
      <point x="280" y="567"/>
      <point x="271" y="546" type="qcurve" smooth="yes"/>
      <point x="261" y="520"/>
      <point x="217" y="390"/>
      <point x="217" y="384" type="qcurve" smooth="yes"/>
      <point x="217" y="379"/>
      <point x="239" y="379" type="qcurve" smooth="yes"/>
      <point x="255" y="379" type="line"/>
      <point x="271" y="379" type="line" smooth="yes"/>
      <point x="295" y="379"/>
      <point x="305" y="369" type="qcurve" smooth="yes"/>
      <point x="314" y="360"/>
      <point x="314" y="355"/>
      <point x="307" y="349" type="qcurve" smooth="yes"/>
      <point x="295" y="341"/>
      <point x="280" y="341" type="qcurve" smooth="yes"/>
      <point x="260" y="341"/>
      <point x="234" y="338" type="qcurve" smooth="yes"/>
      <point x="203" y="335" type="line"/>
      <point x="196" y="308" type="line" smooth="yes"/>
      <point x="192" y="290"/>
      <point x="178" y="197" type="qcurve" smooth="yes"/>
      <point x="170" y="140"/>
      <point x="157" y="100"/>
      <point x="147" y="100" type="qcurve" smooth="yes"/>
      <point x="144" y="100"/>
      <point x="142" y="101" type="qcurve" smooth="yes"/>
      <point x="134" y="104"/>
      <point x="125" y="122" type="qcurve" smooth="yes"/>
      <point x="120" y="134"/>
      <point x="120" y="152"/>
      <point x="129" y="208" type="qcurve" smooth="yes"/>
      <point x="146" y="300"/>
      <point x="147" y="304" type="qcurve" smooth="yes"/>
      <point x="153" y="330" type="line"/>
      <point x="89" y="332" type="line" smooth="yes"/>
      <point x="24" y="334"/>
      <point x="19" y="342" type="qcurve" smooth="yes"/>
      <point x="13" y="351"/>
      <point x="17" y="355" type="qcurve" smooth="yes"/>
      <point x="20" y="358"/>
      <point x="76" y="362" type="qcurve" smooth="yes"/>
      <point x="146" y="367"/>
      <point x="156" y="374" type="qcurve" smooth="yes"/>
      <point x="165" y="379"/>
      <point x="175" y="410" type="qcurve" smooth="yes"/>
      <point x="176" y="415"/>
      <point x="177" y="418" type="qcurve" smooth="yes"/>
      <point x="187" y="450"/>
      <point x="208" y="510" type="qcurve" smooth="yes"/>
      <point x="226" y="558" type="line"/>
      <point x="202" y="555" type="line" smooth="yes"/>
      <point x="179" y="551"/>
      <point x="130" y="551" type="qcurve" smooth="yes"/>
      <point x="68" y="551"/>
      <point x="53" y="557" type="qcurve" smooth="yes"/>
      <point x="33" y="565"/>
      <point x="33" y="571" type="qcurve" smooth="yes"/>
      <point x="33" y="578"/>
      <point x="58" y="578" type="qcurve" smooth="yes"/>
      <point x="125" y="578"/>
      <point x="212" y="597" type="qcurve" smooth="yes"/>
      <point x="245" y="604"/>
    </contour>
  </outline>
</glyph>
<glyph name="eight" format="2">
  <advance width="325"/>
  <unicode hex="0038"/>
  <outline>
    <contour>
      <point x="187" y="338" type="qcurve" smooth="yes"/>
      <point x="166" y="357"/>
      <point x="164" y="357" type="qcurve" smooth="yes"/>
      <point x="163" y="357"/>
      <point x="141" y="337" type="qcurve" smooth="yes"/>
      <point x="120" y="318"/>
      <point x="95" y="300" type="qcurve" smooth="yes"/>
      <point x="50" y="268"/>
      <point x="50" y="230" type="qcurve" smooth="yes"/>
      <point x="50" y="224"/>
      <point x="52" y="216" type="qcurve" smooth="yes"/>
      <point x="57" y="196"/>
      <point x="101" y="155"/>
      <point x="125" y="147" type="qcurve" smooth="yes"/>
      <point x="144" y="141"/>
      <point x="166" y="141" type="qcurve" smooth="yes"/>
      <point x="209" y="141"/>
      <point x="277" y="182"/>
      <point x="277" y="210" type="qcurve" smooth="yes"/>
      <point x="277" y="211"/>
      <point x="276" y="216"/>
      <point x="276" y="217" type="qcurve" smooth="yes"/>
      <point x="272" y="235"/>
      <point x="258" y="261"/>
      <point x="207" y="320"/>
    </contour>
    <contour>
      <point x="192" y="564"/>
      <point x="151" y="564" type="qcurve" smooth="yes"/>
      <point x="140" y="564"/>
      <point x="136" y="563" type="qcurve" smooth="yes"/>
      <point x="118" y="559"/>
      <point x="86" y="540"/>
      <point x="79" y="529" type="qcurve" smooth="yes"/>
      <point x="73" y="520"/>
      <point x="73" y="516" type="qcurve" smooth="yes"/>
      <point x="73" y="511"/>
      <point x="82" y="493" type="qcurve" smooth="yes"/>
      <point x="90" y="477"/>
      <point x="154" y="413"/>
      <point x="170" y="413"/>
      <point x="204" y="445"/>
      <point x="213" y="461" type="qcurve" smooth="yes"/>
      <point x="230" y="492"/>
      <point x="230" y="515" type="qcurve" smooth="yes"/>
      <point x="230" y="540"/>
    </contour>
    <contour>
      <point x="98" y="596" type="qcurve" smooth="yes"/>
      <point x="110" y="602"/>
      <point x="152" y="604" type="qcurve" smooth="yes"/>
      <point x="200" y="604"/>
      <point x="258" y="559"/>
      <point x="258" y="522" type="qcurve" smooth="yes"/>
      <point x="258" y="493"/>
      <point x="241" y="452"/>
      <point x="218" y="428" type="qcurve" smooth="yes"/>
      <point x="191" y="399"/>
      <point x="191" y="395" type="qcurve" smooth="yes"/>
      <point x="191" y="392"/>
      <point x="231" y="352" type="qcurve" smooth="yes"/>
      <point x="304" y="279"/>
      <point x="308" y="225" type="qcurve" smooth="yes"/>
      <point x="309" y="218"/>
      <point x="309" y="206" type="qcurve" smooth="yes"/>
      <point x="309" y="177"/>
      <point x="286" y="151" type="qcurve" smooth="yes"/>
      <point x="249" y="109"/>
      <point x="170" y="108" type="qcurve" smooth="yes"/>
      <point x="155" y="108" type="line" smooth="yes"/>
      <point x="126" y="108"/>
      <point x="100" y="121" type="qcurve" smooth="yes"/>
      <point x="49" y="148"/>
      <point x="29" y="188" type="qcurve" smooth="yes"/>
      <point x="16" y="217"/>
      <point x="16" y="236" type="qcurve" smooth="yes"/>
      <point x="16" y="258"/>
      <point x="28" y="282" type="qcurve" smooth="yes"/>
      <point x="47" y="323"/>
      <point x="105" y="359" type="qcurve" smooth="yes"/>
      <point x="135" y="378" type="line"/>
      <point x="99" y="411" type="line" smooth="yes"/>
      <point x="36" y="468"/>
      <point x="36" y="518" type="qcurve" smooth="yes"/>
      <point x="36" y="533"/>
      <point x="43" y="546" type="qcurve" smooth="yes"/>
      <point x="51" y="561"/>
      <point x="82" y="589"/>
    </contour>
  </outline>
</glyph>
<glyph name="nine" format="2">
  <advance width="300"/>
  <unicode hex="0039"/>
  <outline>
    <contour>
      <point x="212" y="563" type="qcurve" smooth="yes"/>
      <point x="192" y="573"/>
      <point x="166" y="573" type="qcurve" smooth="yes"/>
      <point x="150" y="573"/>
      <point x="132" y="568" type="qcurve" smooth="yes"/>
      <point x="119" y="564"/>
      <point x="98" y="559" type="qcurve" smooth="yes"/>
      <point x="83" y="555"/>
      <point x="59" y="514"/>
      <point x="55" y="486" type="qcurve" smooth="yes"/>
      <point x="55" y="484"/>
      <point x="54" y="478"/>
      <point x="54" y="476" type="qcurve" smooth="yes"/>
      <point x="54" y="440"/>
      <point x="105" y="376"/>
      <point x="138" y="370" type="qcurve" smooth="yes"/>
      <point x="141" y="369"/>
      <point x="147" y="369" type="qcurve" smooth="yes"/>
      <point x="176" y="369"/>
      <point x="239" y="417"/>
      <point x="249" y="447" type="qcurve" smooth="yes"/>
      <point x="256" y="468"/>
      <point x="256" y="500" type="qcurve" smooth="yes"/>
      <point x="256" y="523"/>
      <point x="237" y="550"/>
    </contour>
    <contour>
      <point x="138" y="605" type="qcurve" smooth="yes"/>
      <point x="147" y="609"/>
      <point x="164" y="609" type="qcurve" smooth="yes"/>
      <point x="180" y="609"/>
      <point x="198" y="604" type="qcurve" smooth="yes"/>
      <point x="218" y="598"/>
      <point x="275" y="545"/>
      <point x="280" y="527" type="qcurve" smooth="yes"/>
      <point x="284" y="515"/>
      <point x="284" y="499" type="qcurve" smooth="yes"/>
      <point x="284" y="474"/>
      <point x="276" y="406" type="qcurve" smooth="yes"/>
      <point x="270" y="350"/>
      <point x="265" y="290" type="qcurve" smooth="yes"/>
      <point x="260" y="228"/>
      <point x="242" y="169"/>
      <point x="222" y="147" type="qcurve" smooth="yes"/>
      <point x="188" y="109"/>
      <point x="110" y="109" type="qcurve" smooth="yes"/>
      <point x="80" y="109"/>
      <point x="53" y="119"/>
      <point x="31" y="139" type="qcurve" smooth="yes"/>
      <point x="16" y="152"/>
      <point x="16" y="158" type="qcurve" smooth="yes"/>
      <point x="16" y="165"/>
      <point x="43" y="165" type="qcurve" smooth="yes"/>
      <point x="64" y="165"/>
      <point x="79" y="164" type="qcurve" smooth="yes"/>
      <point x="92" y="163"/>
      <point x="115" y="163" type="qcurve" smooth="yes"/>
      <point x="184" y="163"/>
      <point x="230" y="229"/>
      <point x="241" y="341" type="qcurve" smooth="yes"/>
      <point x="245" y="374" type="line"/>
      <point x="227" y="360" type="line" smooth="yes"/>
      <point x="189" y="331"/>
      <point x="150" y="331" type="qcurve" smooth="yes"/>
      <point x="127" y="331"/>
      <point x="107" y="341" type="qcurve" smooth="yes"/>
      <point x="78" y="354"/>
      <point x="34" y="417"/>
      <point x="29" y="451" type="qcurve" smooth="yes"/>
      <point x="28" y="455"/>
      <point x="28" y="464" type="qcurve" smooth="yes"/>
      <point x="28" y="489"/>
      <point x="50" y="547"/>
      <point x="64" y="561" type="qcurve" smooth="yes"/>
      <point x="97" y="592"/>
    </contour>
  </outline>
</glyph>
<glyph name="colon" format="2">
  <advance width="98"/>
  <unicode hex="003A"/>
  <outline>
    <contour>
      <point x="21" y="457" type="qcurve" smooth="yes"/>
      <point x="24" y="465"/>
      <point x="54" y="479"/>
      <point x="67" y="479" type="qcurve" smooth="yes"/>
      <point x="71" y="479" type="line" smooth="yes"/>
      <point x="79" y="478"/>
      <point x="83" y="474"/>
      <point x="83" y="465" type="qcurve" smooth="yes"/>
      <point x="83" y="455" type="line" smooth="yes"/>
      <point x="82" y="431"/>
      <point x="69" y="421" type="qcurve" smooth="yes"/>
      <point x="55" y="408"/>
      <point x="43" y="414" type="qcurve" smooth="yes"/>
      <point x="34" y="418"/>
      <point x="20" y="441"/>
      <point x="20" y="451" type="qcurve" smooth="yes"/>
      <point x="20" y="455"/>
    </contour>
    <contour>
      <point x="24" y="181" type="qcurve" smooth="yes"/>
      <point x="34" y="187"/>
      <point x="52" y="187" type="qcurve" smooth="yes"/>
      <point x="79" y="187"/>
      <point x="79" y="165" type="qcurve" smooth="yes"/>
      <point x="79" y="154"/>
      <point x="74" y="144" type="qcurve" smooth="yes"/>
      <point x="66" y="125"/>
      <point x="53" y="125" type="qcurve" smooth="yes"/>
      <point x="39" y="125"/>
      <point x="15" y="152"/>
      <point x="15" y="165" type="qcurve" smooth="yes"/>
      <point x="15" y="176"/>
    </contour>
  </outline>
</glyph>
<glyph name="semicolon" format="2">
  <advance width="137"/>
  <unicode hex="003B"/>
  <outline>
    <contour>
      <point x="76" y="479" type="qcurve" smooth="yes"/>
      <point x="84" y="485"/>
      <point x="97" y="485" type="qcurve" smooth="yes"/>
      <point x="112" y="485"/>
      <point x="118" y="478" type="qcurve" smooth="yes"/>
      <point x="122" y="474"/>
      <point x="122" y="464" type="qcurve" smooth="yes"/>
      <point x="122" y="449"/>
      <point x="104" y="419"/>
      <point x="94" y="419" type="qcurve" smooth="yes"/>
      <point x="87" y="419"/>
      <point x="75" y="435" type="qcurve" smooth="yes"/>
      <point x="65" y="446"/>
      <point x="65" y="458" type="qcurve" smooth="yes"/>
      <point x="65" y="471"/>
    </contour>
    <contour>
      <point x="57" y="176" type="qcurve" smooth="yes"/>
      <point x="63" y="207"/>
      <point x="73" y="207" type="qcurve" smooth="yes"/>
      <point x="91" y="207"/>
      <point x="91" y="169" type="qcurve" smooth="yes"/>
      <point x="91" y="158"/>
      <point x="90" y="152" type="qcurve" smooth="yes"/>
      <point x="88" y="131"/>
      <point x="63" y="59"/>
      <point x="53" y="44" type="qcurve" smooth="yes"/>
      <point x="46" y="32"/>
      <point x="36" y="32" type="qcurve" smooth="yes"/>
      <point x="27" y="32"/>
      <point x="15" y="50"/>
      <point x="15" y="64" type="qcurve" smooth="yes"/>
      <point x="15" y="77"/>
      <point x="33" y="111" type="qcurve" smooth="yes"/>
      <point x="48" y="139"/>
    </contour>
  </outline>
</glyph>
<glyph name="less" format="2">
  <advance width="305"/>
  <unicode hex="003C"/>
  <outline>
    <contour>
      <point x="249" y="490" type="qcurve" smooth="yes"/>
      <point x="272" y="505"/>
      <point x="278" y="505" type="qcurve" smooth="yes"/>
      <point x="282" y="505"/>
      <point x="282" y="499" type="qcurve" smooth="yes"/>
      <point x="282" y="487"/>
      <point x="204" y="431"/>
      <point x="140" y="397" type="qcurve" smooth="yes"/>
      <point x="104" y="378" type="line"/>
      <point x="130" y="367" type="line" smooth="yes"/>
      <point x="197" y="339"/>
      <point x="212" y="332" type="qcurve" smooth="yes"/>
      <point x="269" y="308"/>
      <point x="287" y="299"/>
      <point x="289" y="287" type="qcurve" smooth="yes"/>
      <point x="290" y="283"/>
      <point x="290" y="275" type="qcurve" smooth="yes"/>
      <point x="290" y="254"/>
      <point x="274" y="254" type="qcurve" smooth="yes"/>
      <point x="262" y="254"/>
      <point x="191" y="285" type="qcurve" smooth="yes"/>
      <point x="126" y="314"/>
      <point x="72" y="335" type="qcurve" smooth="yes"/>
      <point x="25" y="353"/>
      <point x="13" y="383"/>
      <point x="16" y="389" type="qcurve" smooth="yes"/>
      <point x="17" y="394"/>
      <point x="64" y="407" type="qcurve" smooth="yes"/>
      <point x="147" y="430"/>
    </contour>
  </outline>
</glyph>
<glyph name="equal" format="2">
  <advance width="246"/>
  <unicode hex="003D"/>
  <outline>
    <contour>
      <point x="99" y="453" type="qcurve" smooth="yes"/>
      <point x="163" y="456"/>
      <point x="187" y="456" type="qcurve" smooth="yes"/>
      <point x="210" y="456"/>
      <point x="220" y="449"/>
      <point x="220" y="437" type="qcurve" smooth="yes"/>
      <point x="220" y="420"/>
      <point x="201" y="420" type="qcurve" smooth="yes"/>
      <point x="197" y="420"/>
      <point x="185" y="422" type="qcurve" smooth="yes"/>
      <point x="172" y="425"/>
      <point x="97" y="427" type="qcurve" smooth="yes"/>
      <point x="32" y="427"/>
      <point x="21" y="434" type="qcurve" smooth="yes"/>
      <point x="13" y="441"/>
      <point x="16" y="446" type="qcurve" smooth="yes"/>
      <point x="21" y="449"/>
    </contour>
    <contour>
      <point x="175" y="326" type="qcurve" smooth="yes"/>
      <point x="183" y="328"/>
      <point x="199" y="328" type="qcurve" smooth="yes"/>
      <point x="227" y="328"/>
      <point x="230" y="320" type="qcurve" smooth="yes"/>
      <point x="231" y="318"/>
      <point x="231" y="314" type="qcurve" smooth="yes"/>
      <point x="231" y="306"/>
      <point x="221" y="290"/>
      <point x="215" y="290" type="qcurve" smooth="yes"/>
      <point x="212" y="290" type="line"/>
      <point x="196" y="297"/>
      <point x="42" y="297" type="qcurve" smooth="yes"/>
      <point x="30" y="297"/>
      <point x="30" y="305" type="qcurve" smooth="yes"/>
      <point x="30" y="311"/>
      <point x="99" y="318" type="qcurve" smooth="yes"/>
      <point x="164" y="323"/>
    </contour>
  </outline>
</glyph>
<glyph name="greater" format="2">
  <advance width="297"/>
  <unicode hex="003E"/>
  <outline>
    <contour>
      <point x="28" y="501" type="qcurve" smooth="yes"/>
      <point x="30" y="504"/>
      <point x="33" y="504" type="qcurve" smooth="yes"/>
      <point x="40" y="504"/>
      <point x="103" y="472" type="qcurve" smooth="yes"/>
      <point x="164" y="440"/>
      <point x="217" y="419" type="qcurve" smooth="yes"/>
      <point x="282" y="394"/>
      <point x="282" y="383" type="qcurve" smooth="yes"/>
      <point x="282" y="380"/>
      <point x="280" y="376" type="qcurve" smooth="yes"/>
      <point x="269" y="355"/>
      <point x="54" y="257"/>
      <point x="22" y="257" type="qcurve" smooth="yes"/>
      <point x="15" y="257"/>
      <point x="15" y="260" type="qcurve" smooth="yes"/>
      <point x="15" y="265"/>
      <point x="52" y="295"/>
      <point x="69" y="304" type="qcurve" smooth="yes"/>
      <point x="87" y="314"/>
      <point x="133" y="331" type="qcurve" smooth="yes"/>
      <point x="147" y="336"/>
      <point x="202" y="359"/>
      <point x="204" y="360" type="qcurve" smooth="yes"/>
      <point x="230" y="370" type="line"/>
      <point x="168" y="403" type="line" smooth="yes"/>
      <point x="27" y="477"/>
      <point x="27" y="499" type="qcurve" smooth="yes"/>
      <point x="27" y="500"/>
      <point x="28" y="500"/>
    </contour>
  </outline>
</glyph>
<glyph name="question" format="2">
  <advance width="287"/>
  <unicode hex="003F"/>
  <outline>
    <contour>
      <point x="121" y="692" type="qcurve" smooth="yes"/>
      <point x="141" y="696"/>
      <point x="152" y="696" type="qcurve" smooth="yes"/>
      <point x="213" y="696"/>
      <point x="251" y="644" type="qcurve" smooth="yes"/>
      <point x="271" y="615"/>
      <point x="271" y="584" type="qcurve" smooth="yes"/>
      <point x="271" y="531"/>
      <point x="210" y="445" type="qcurve" smooth="yes"/>
      <point x="180" y="403"/>
      <point x="160" y="362"/>
      <point x="152" y="322" type="qcurve" smooth="yes"/>
      <point x="143" y="278"/>
      <point x="136" y="278" type="qcurve" smooth="yes"/>
      <point x="135" y="278" type="line"/>
      <point x="111" y="283"/>
      <point x="111" y="346" type="qcurve" smooth="yes"/>
      <point x="111" y="352" type="line" smooth="yes"/>
      <point x="112" y="391"/>
      <point x="135" y="447"/>
      <point x="170" y="494" type="qcurve" smooth="yes"/>
      <point x="216" y="556"/>
      <point x="216" y="580" type="qcurve" smooth="yes"/>
      <point x="216" y="595"/>
      <point x="182" y="629"/>
      <point x="167" y="629" type="qcurve" smooth="yes"/>
      <point x="165" y="629"/>
      <point x="151" y="628"/>
      <point x="147" y="628" type="qcurve" smooth="yes"/>
      <point x="115" y="626"/>
      <point x="69" y="594"/>
      <point x="51" y="559"/>
      <point x="43" y="487"/>
      <point x="40" y="487" type="qcurve" smooth="yes"/>
      <point x="38" y="487"/>
      <point x="35" y="491" type="qcurve" smooth="yes"/>
      <point x="15" y="511"/>
      <point x="15" y="563" type="qcurve" smooth="yes"/>
      <point x="15" y="596"/>
      <point x="25" y="616" type="qcurve" smooth="yes"/>
      <point x="53" y="675"/>
    </contour>
    <contour>
      <point x="117" y="164" type="qcurve" smooth="yes"/>
      <point x="126" y="167"/>
      <point x="138" y="167"/>
      <point x="147" y="158" type="qcurve" smooth="yes"/>
      <point x="153" y="150"/>
      <point x="153" y="141" type="qcurve" smooth="yes"/>
      <point x="153" y="131"/>
      <point x="145" y="117" type="qcurve" smooth="yes"/>
      <point x="142" y="112"/>
      <point x="135" y="112" type="qcurve" smooth="yes"/>
      <point x="116" y="112"/>
      <point x="108" y="127" type="qcurve" smooth="yes"/>
      <point x="105" y="134"/>
      <point x="105" y="142" type="qcurve" smooth="yes"/>
      <point x="105" y="161"/>
    </contour>
  </outline>
</glyph>
<glyph name="at" format="2">
  <advance width="531"/>
  <unicode hex="0040"/>
  <outline>
    <contour>
      <point x="299" y="413" type="qcurve" smooth="yes"/>
      <point x="284" y="420"/>
      <point x="255" y="424" type="qcurve" smooth="yes"/>
      <point x="235" y="426"/>
      <point x="234" y="426" type="qcurve" smooth="yes"/>
      <point x="223" y="426"/>
      <point x="210" y="413" type="qcurve" smooth="yes"/>
      <point x="185" y="388"/>
      <point x="185" y="347" type="qcurve" smooth="yes"/>
      <point x="185" y="324"/>
      <point x="194" y="305" type="qcurve" smooth="yes"/>
      <point x="206" y="278"/>
      <point x="244" y="247"/>
      <point x="264" y="247" type="qcurve" smooth="yes"/>
      <point x="276" y="247"/>
      <point x="286" y="253" type="qcurve" smooth="yes"/>
      <point x="333" y="276"/>
      <point x="333" y="330" type="qcurve" smooth="yes"/>
      <point x="333" y="342"/>
      <point x="330" y="354" type="qcurve" smooth="yes"/>
      <point x="319" y="402"/>
    </contour>
    <contour>
      <point x="241" y="593" type="qcurve" smooth="yes"/>
      <point x="261" y="595"/>
      <point x="271" y="595" type="qcurve" smooth="yes"/>
      <point x="319" y="595"/>
      <point x="359" y="581" type="qcurve" smooth="yes"/>
      <point x="403" y="566"/>
      <point x="497" y="476"/>
      <point x="508" y="439" type="qcurve" smooth="yes"/>
      <point x="515" y="415"/>
      <point x="515" y="371" type="qcurve" smooth="yes"/>
      <point x="515" y="313"/>
      <point x="505" y="284" type="qcurve" smooth="yes"/>
      <point x="474" y="196"/>
      <point x="419" y="190" type="qcurve" smooth="yes"/>
      <point x="415" y="189"/>
      <point x="408" y="189" type="qcurve" smooth="yes"/>
      <point x="396" y="189"/>
      <point x="380" y="204" type="qcurve" smooth="yes"/>
      <point x="361" y="221"/>
      <point x="355" y="235" type="qcurve" smooth="yes"/>
      <point x="349" y="250"/>
      <point x="344" y="250" type="qcurve" smooth="yes"/>
      <point x="341" y="250"/>
      <point x="328" y="237" type="qcurve" smooth="yes"/>
      <point x="301" y="209"/>
      <point x="268" y="209" type="qcurve" smooth="yes"/>
      <point x="236" y="209"/>
      <point x="180" y="256"/>
      <point x="165" y="296" type="qcurve" smooth="yes"/>
      <point x="159" y="314"/>
      <point x="159" y="336" type="qcurve" smooth="yes"/>
      <point x="159" y="378"/>
      <point x="201" y="449"/>
      <point x="232" y="455" type="qcurve" smooth="yes"/>
      <point x="246" y="457"/>
      <point x="256" y="457" type="qcurve" smooth="yes"/>
      <point x="300" y="457"/>
      <point x="326" y="439" type="qcurve" smooth="yes"/>
      <point x="343" y="427"/>
      <point x="352" y="427" type="qcurve" smooth="yes"/>
      <point x="359" y="427"/>
      <point x="365" y="402"/>
      <point x="368" y="360" type="qcurve" smooth="yes"/>
      <point x="377" y="232"/>
      <point x="419" y="232" type="qcurve" smooth="yes"/>
      <point x="427" y="232"/>
      <point x="436" y="238" type="qcurve" smooth="yes"/>
      <point x="455" y="250"/>
      <point x="479" y="321"/>
      <point x="479" y="360" type="qcurve" smooth="yes"/>
      <point x="479" y="390"/>
      <point x="472" y="412" type="qcurve" smooth="yes"/>
      <point x="465" y="436"/>
      <point x="417" y="492"/>
      <point x="384" y="513" type="qcurve" smooth="yes"/>
      <point x="337" y="543"/>
      <point x="282" y="543" type="qcurve" smooth="yes"/>
      <point x="191" y="543"/>
      <point x="126" y="475" type="qcurve" smooth="yes"/>
      <point x="59" y="404"/>
      <point x="59" y="303" type="qcurve" smooth="yes"/>
      <point x="59" y="214"/>
      <point x="162" y="90"/>
      <point x="236" y="90" type="qcurve" smooth="yes"/>
      <point x="252" y="90"/>
      <point x="310" y="107"/>
      <point x="326" y="116" type="qcurve" smooth="yes"/>
      <point x="338" y="123"/>
      <point x="391" y="142"/>
      <point x="397" y="142" type="qcurve" smooth="yes"/>
      <point x="399" y="142"/>
      <point x="399" y="140" type="qcurve" smooth="yes"/>
      <point x="399" y="133"/>
      <point x="370" y="93"/>
      <point x="357" y="81" type="qcurve" smooth="yes"/>
      <point x="314" y="44"/>
      <point x="232" y="44" type="qcurve" smooth="yes"/>
      <point x="180" y="44"/>
      <point x="146" y="61" type="qcurve" smooth="yes"/>
      <point x="106" y="80"/>
      <point x="37" y="177"/>
      <point x="23" y="230" type="qcurve" smooth="yes"/>
      <point x="16" y="255"/>
      <point x="16" y="303" type="qcurve" smooth="yes"/>
      <point x="16" y="357"/>
      <point x="25" y="390" type="qcurve" smooth="yes"/>
      <point x="48" y="473"/>
      <point x="163" y="583"/>
    </contour>
  </outline>
</glyph>
<glyph name="A" format="2">
  <advance width="466"/>
  <unicode hex="0041"/>
  <outline>
    <contour>
      <point x="261" y="456" type="qcurve" smooth="yes"/>
      <point x="231" y="531"/>
      <point x="230" y="534" type="qcurve" smooth="yes"/>
      <point x="219" y="567" type="line"/>
      <point x="210" y="538" type="line" smooth="yes"/>
      <point x="201" y="509"/>
      <point x="163" y="415" type="qcurve" smooth="yes"/>
      <point x="126" y="321" type="line"/>
      <point x="216" y="332" type="line" smooth="yes"/>
      <point x="309" y="343"/>
      <point x="309" y="351"/>
      <point x="295" y="379" type="qcurve" smooth="yes"/>
      <point x="282" y="404"/>
    </contour>
    <contour>
      <point x="210" y="599" type="qcurve" smooth="yes"/>
      <point x="212" y="602"/>
      <point x="214" y="602" type="qcurve" smooth="yes"/>
      <point x="223" y="602"/>
      <point x="256" y="530" type="qcurve" smooth="yes"/>
      <point x="291" y="456"/>
      <point x="319" y="405" type="qcurve" smooth="yes"/>
      <point x="349" y="350" type="line"/>
      <point x="389" y="349" type="line" smooth="yes"/>
      <point x="440" y="349"/>
      <point x="440" y="331" type="qcurve" smooth="yes"/>
      <point x="440" y="324"/>
      <point x="410" y="313"/>
      <point x="393" y="313" type="qcurve" smooth="yes"/>
      <point x="373" y="313"/>
      <point x="373" y="309" type="qcurve" smooth="yes"/>
      <point x="373" y="306"/>
      <point x="411" y="248" type="qcurve" smooth="yes"/>
      <point x="450" y="189"/>
      <point x="450" y="180" type="qcurve" smooth="yes"/>
      <point x="450" y="170"/>
      <point x="437" y="153"/>
      <point x="430" y="153" type="qcurve"/>
      <point x="429" y="154" type="line" smooth="yes"/>
      <point x="428" y="154"/>
      <point x="427" y="154" type="qcurve" smooth="yes"/>
      <point x="409" y="161"/>
      <point x="351" y="270" type="qcurve" smooth="yes"/>
      <point x="328" y="313" type="line"/>
      <point x="264" y="310" type="line" smooth="yes"/>
      <point x="164" y="304"/>
      <point x="159" y="304" type="qcurve" smooth="yes"/>
      <point x="118" y="300" type="line"/>
      <point x="95" y="243" type="line" smooth="yes"/>
      <point x="64" y="165"/>
      <point x="43" y="121"/>
      <point x="37" y="121" type="qcurve" smooth="yes"/>
      <point x="30" y="121"/>
      <point x="16" y="140"/>
      <point x="15" y="150" type="qcurve" smooth="yes"/>
      <point x="15" y="163"/>
      <point x="96" y="339" type="qcurve" smooth="yes"/>
      <point x="141" y="437"/>
      <point x="192" y="556" type="qcurve" smooth="yes"/>
      <point x="206" y="593"/>
    </contour>
  </outline>
</glyph>
<glyph name="B" format="2">
  <advance width="453"/>
  <unicode hex="0042"/>
  <outline>
    <contour>
      <point x="325" y="349" type="qcurve" smooth="yes"/>
      <point x="299" y="363"/>
      <point x="238" y="363" type="qcurve" smooth="yes"/>
      <point x="222" y="363"/>
      <point x="216" y="362" type="qcurve" smooth="yes"/>
      <point x="191" y="359"/>
      <point x="107" y="342"/>
      <point x="103" y="339" type="qcurve" smooth="yes"/>
      <point x="100" y="338"/>
      <point x="100" y="306"/>
      <point x="113" y="191"/>
      <point x="113" y="169" type="qcurve" smooth="yes"/>
      <point x="113" y="153"/>
      <point x="111" y="148" type="qcurve" smooth="yes"/>
      <point x="106" y="135" type="line"/>
      <point x="183" y="138" type="line" smooth="yes"/>
      <point x="270" y="141"/>
      <point x="362" y="174"/>
      <point x="381" y="209" type="qcurve" smooth="yes"/>
      <point x="391" y="228"/>
      <point x="391" y="250" type="qcurve" smooth="yes"/>
      <point x="391" y="279"/>
      <point x="356" y="333"/>
    </contour>
    <contour>
      <point x="278" y="603" type="qcurve" smooth="yes"/>
      <point x="261" y="607"/>
      <point x="236" y="607" type="qcurve" smooth="yes"/>
      <point x="170" y="607"/>
      <point x="111" y="575" type="qcurve" smooth="yes"/>
      <point x="90" y="564" type="line"/>
      <point x="94" y="487" type="line" smooth="yes"/>
      <point x="97" y="409"/>
      <point x="104" y="405" type="qcurve" smooth="yes"/>
      <point x="109" y="401"/>
      <point x="127" y="401" type="qcurve" smooth="yes"/>
      <point x="156" y="401"/>
      <point x="188" y="409" type="qcurve" smooth="yes"/>
      <point x="298" y="438"/>
      <point x="330" y="511" type="qcurve" smooth="yes"/>
      <point x="339" y="532"/>
      <point x="339" y="541" type="qcurve" smooth="yes"/>
      <point x="339" y="548"/>
      <point x="336" y="557" type="qcurve" smooth="yes"/>
      <point x="326" y="593"/>
    </contour>
    <contour>
      <point x="188" y="632" type="qcurve" smooth="yes"/>
      <point x="217" y="639"/>
      <point x="248" y="639" type="qcurve" smooth="yes"/>
      <point x="301" y="639"/>
      <point x="334" y="617" type="qcurve" smooth="yes"/>
      <point x="372" y="592"/>
      <point x="372" y="538" type="qcurve" smooth="yes"/>
      <point x="372" y="474"/>
      <point x="320" y="425" type="qcurve" smooth="yes"/>
      <point x="296" y="402" type="line"/>
      <point x="311" y="399" type="line" smooth="yes"/>
      <point x="356" y="389"/>
      <point x="393" y="350" type="qcurve" smooth="yes"/>
      <point x="437" y="303"/>
      <point x="437" y="245" type="qcurve" smooth="yes"/>
      <point x="437" y="215"/>
      <point x="421" y="181" type="qcurve" smooth="yes"/>
      <point x="406" y="152"/>
      <point x="358" y="116"/>
      <point x="318" y="103" type="qcurve" smooth="yes"/>
      <point x="262" y="85"/>
      <point x="197" y="85" type="qcurve" smooth="yes"/>
      <point x="118" y="85"/>
      <point x="61" y="111" type="qcurve" smooth="yes"/>
      <point x="15" y="132"/>
      <point x="15" y="148" type="qcurve" smooth="yes"/>
      <point x="15" y="156"/>
      <point x="31" y="156" type="qcurve" smooth="yes"/>
      <point x="39" y="156"/>
      <point x="44" y="155" type="qcurve" smooth="yes"/>
      <point x="67" y="152" type="line"/>
      <point x="66" y="358" type="line"/>
      <point x="66" y="484" type="line" smooth="yes"/>
      <point x="66" y="566"/>
      <point x="71" y="594" type="qcurve" smooth="yes"/>
      <point x="71" y="599"/>
      <point x="79" y="604"/>
      <point x="87" y="600"/>
      <point x="87" y="595" type="qcurve" smooth="yes"/>
      <point x="87" y="587"/>
      <point x="98" y="595" type="qcurve" smooth="yes"/>
      <point x="102" y="598" type="line" smooth="yes"/>
      <point x="133" y="620"/>
    </contour>
  </outline>
</glyph>
<glyph name="C" format="2">
  <advance width="365"/>
  <unicode hex="0043"/>
  <outline>
    <contour>
      <point x="149" y="541" type="qcurve" smooth="yes"/>
      <point x="176" y="551"/>
      <point x="209" y="551" type="qcurve" smooth="yes"/>
      <point x="240" y="551"/>
      <point x="283" y="532"/>
      <point x="283" y="517" type="qcurve" smooth="yes"/>
      <point x="283" y="510"/>
      <point x="269" y="518" type="qcurve" smooth="yes"/>
      <point x="255" y="525"/>
      <point x="228" y="525" type="qcurve" smooth="yes"/>
      <point x="155" y="525"/>
      <point x="56" y="414"/>
      <point x="56" y="333" type="qcurve" smooth="yes"/>
      <point x="56" y="321" type="line"/>
      <point x="60" y="244"/>
      <point x="104" y="205" type="qcurve" smooth="yes"/>
      <point x="136" y="174"/>
      <point x="175" y="174" type="qcurve" smooth="yes"/>
      <point x="207" y="174"/>
      <point x="252" y="195" type="qcurve" smooth="yes"/>
      <point x="333" y="234"/>
      <point x="347" y="234" type="qcurve" smooth="yes"/>
      <point x="349" y="234" type="line" smooth="yes"/>
      <point x="352" y="231"/>
      <point x="308" y="164"/>
      <point x="295" y="151" type="qcurve" smooth="yes"/>
      <point x="257" y="113"/>
      <point x="187" y="113" type="qcurve" smooth="yes"/>
      <point x="152" y="113"/>
      <point x="127" y="125" type="qcurve" smooth="yes"/>
      <point x="75" y="151"/>
      <point x="15" y="258"/>
      <point x="15" y="322" type="qcurve" smooth="yes"/>
      <point x="15" y="377"/>
      <point x="39" y="428" type="qcurve" smooth="yes"/>
      <point x="62" y="476"/>
      <point x="112" y="528"/>
    </contour>
  </outline>
</glyph>
<glyph name="D" format="2">
  <advance width="510"/>
  <unicode hex="0044"/>
  <outline>
    <contour>
      <point x="379" y="556" type="qcurve" smooth="yes"/>
      <point x="352" y="569"/>
      <point x="285" y="570" type="qcurve" smooth="yes"/>
      <point x="274" y="570" type="line" smooth="yes"/>
      <point x="163" y="570"/>
      <point x="147" y="550" type="qcurve" smooth="yes"/>
      <point x="145" y="548"/>
      <point x="145" y="520"/>
      <point x="146" y="512" type="qcurve" smooth="yes"/>
      <point x="147" y="506"/>
      <point x="171" y="227"/>
      <point x="175" y="211" type="qcurve" smooth="yes"/>
      <point x="177" y="202"/>
      <point x="177" y="183" type="qcurve" smooth="yes"/>
      <point x="177" y="182"/>
      <point x="179" y="182" type="qcurve" smooth="yes"/>
      <point x="189" y="182"/>
      <point x="260" y="205"/>
      <point x="285" y="217" type="qcurve" smooth="yes"/>
      <point x="362" y="253"/>
      <point x="451" y="369"/>
      <point x="451" y="433" type="qcurve" smooth="yes"/>
      <point x="451" y="454"/>
      <point x="445" y="477" type="qcurve" smooth="yes"/>
      <point x="438" y="501"/>
      <point x="402" y="545"/>
    </contour>
    <contour>
      <point x="190" y="597" type="qcurve" smooth="yes"/>
      <point x="243" y="607"/>
      <point x="265" y="607" type="qcurve" smooth="yes"/>
      <point x="269" y="607"/>
      <point x="295" y="606"/>
      <point x="304" y="606" type="qcurve" smooth="yes"/>
      <point x="361" y="604"/>
      <point x="412" y="588"/>
      <point x="438" y="562" type="qcurve" smooth="yes"/>
      <point x="494" y="506"/>
      <point x="494" y="424" type="qcurve" smooth="yes"/>
      <point x="494" y="367"/>
      <point x="437" y="254"/>
      <point x="384" y="211" type="qcurve" smooth="yes"/>
      <point x="335" y="171"/>
      <point x="182" y="113"/>
      <point x="129" y="113" type="qcurve" smooth="yes"/>
      <point x="115" y="113"/>
      <point x="103" y="116" type="qcurve" smooth="yes"/>
      <point x="81" y="121"/>
      <point x="30" y="148"/>
      <point x="20" y="159" type="qcurve" smooth="yes"/>
      <point x="15" y="166" type="line" smooth="yes"/>
      <point x="15" y="168"/>
      <point x="21" y="168" type="qcurve" smooth="yes"/>
      <point x="22" y="168"/>
      <point x="32" y="167"/>
      <point x="37" y="167" type="qcurve" smooth="yes"/>
      <point x="47" y="167" type="line" smooth="yes"/>
      <point x="76" y="167"/>
      <point x="105" y="170" type="qcurve" smooth="yes"/>
      <point x="145" y="174"/>
      <point x="145" y="179" type="qcurve" smooth="yes"/>
      <point x="145" y="182"/>
      <point x="144" y="183" type="qcurve" smooth="yes"/>
      <point x="140" y="193"/>
      <point x="134" y="341"/>
      <point x="131" y="499"/>
      <point x="130" y="506" type="qcurve" smooth="yes"/>
      <point x="126" y="546" type="line"/>
      <point x="107" y="535" type="line" smooth="yes"/>
      <point x="88" y="523"/>
      <point x="72" y="506" type="qcurve" smooth="yes"/>
      <point x="56" y="488"/>
      <point x="44" y="496"/>
      <point x="44" y="502" type="qcurve" smooth="yes"/>
      <point x="44" y="523"/>
      <point x="141" y="587"/>
    </contour>
  </outline>
</glyph>
<glyph name="E" format="2">
  <advance width="315"/>
  <unicode hex="0045"/>
  <outline>
    <contour>
      <point x="257" y="606" type="line"/>
      <point x="291" y="606" type="line"/>
      <point x="291" y="575" type="line"/>
      <point x="194" y="572" type="line" smooth="yes"/>
      <point x="105" y="569"/>
      <point x="68" y="564" type="qcurve" smooth="yes"/>
      <point x="38" y="561" type="line"/>
      <point x="41" y="470" type="line" smooth="yes"/>
      <point x="45" y="379"/>
      <point x="46" y="378" type="qcurve" smooth="yes"/>
      <point x="48" y="378" type="line" smooth="yes"/>
      <point x="62" y="378"/>
      <point x="105" y="386" type="qcurve" smooth="yes"/>
      <point x="169" y="396"/>
      <point x="202" y="399" type="qcurve" smooth="yes"/>
      <point x="225" y="402"/>
      <point x="232" y="402" type="qcurve" smooth="yes"/>
      <point x="240" y="402"/>
      <point x="240" y="398" type="qcurve" smooth="yes"/>
      <point x="240" y="397"/>
      <point x="237" y="385"/>
      <point x="237" y="380" type="qcurve" smooth="yes"/>
      <point x="237" y="377"/>
      <point x="47" y="363"/>
      <point x="47" y="353" type="qcurve" smooth="yes"/>
      <point x="47" y="330"/>
      <point x="60" y="167"/>
      <point x="62" y="165" type="qcurve" smooth="yes"/>
      <point x="64" y="164"/>
      <point x="66" y="164" type="qcurve" smooth="yes"/>
      <point x="78" y="164"/>
      <point x="136" y="173" type="qcurve" smooth="yes"/>
      <point x="210" y="184"/>
      <point x="247" y="184" type="qcurve" smooth="yes"/>
      <point x="299" y="184"/>
      <point x="299" y="166" type="qcurve" smooth="yes"/>
      <point x="299" y="159"/>
      <point x="286" y="155" type="qcurve" smooth="yes"/>
      <point x="258" y="148"/>
      <point x="61" y="145" type="qcurve" smooth="yes"/>
      <point x="28" y="145" type="line"/>
      <point x="26" y="222" type="line" smooth="yes"/>
      <point x="25" y="265"/>
      <point x="25" y="429" type="qcurve" smooth="yes"/>
      <point x="24" y="559"/>
      <point x="19" y="565" type="qcurve" smooth="yes"/>
      <point x="15" y="571"/>
      <point x="15" y="572" type="qcurve" smooth="yes"/>
      <point x="15" y="582"/>
      <point x="47" y="585" type="qcurve" smooth="yes"/>
      <point x="64" y="586"/>
      <point x="209" y="606"/>
      <point x="243" y="606" type="qcurve" smooth="yes"/>
    </contour>
  </outline>
</glyph>
<glyph name="F" format="2">
  <advance width="476"/>
  <unicode hex="0046"/>
  <outline>
    <contour>
      <point x="391" y="618" type="qcurve" smooth="yes"/>
      <point x="434" y="628"/>
      <point x="439" y="628" type="qcurve" smooth="yes"/>
      <point x="440" y="629"/>
      <point x="451" y="624" type="qcurve" smooth="yes"/>
      <point x="460" y="620"/>
      <point x="460" y="609" type="qcurve" smooth="yes"/>
      <point x="460" y="602"/>
      <point x="454" y="588" type="qcurve" smooth="yes"/>
      <point x="448" y="575"/>
      <point x="419" y="574" type="qcurve" smooth="yes"/>
      <point x="344" y="569"/>
      <point x="204" y="535" type="qcurve" smooth="yes"/>
      <point x="156" y="524" type="line"/>
      <point x="159" y="466" type="line" smooth="yes"/>
      <point x="161" y="408"/>
      <point x="162" y="408" type="qcurve" smooth="yes"/>
      <point x="165" y="408"/>
      <point x="255" y="430" type="qcurve" smooth="yes"/>
      <point x="352" y="453"/>
      <point x="384" y="453" type="qcurve" smooth="yes"/>
      <point x="408" y="453"/>
      <point x="414" y="442" type="qcurve" smooth="yes"/>
      <point x="418" y="435"/>
      <point x="418" y="430" type="qcurve" smooth="yes"/>
      <point x="418" y="419"/>
      <point x="377" y="415" type="qcurve" smooth="yes"/>
      <point x="351" y="412"/>
      <point x="252" y="394" type="qcurve" smooth="yes"/>
      <point x="164" y="378" type="line"/>
      <point x="168" y="310" type="line" smooth="yes"/>
      <point x="172" y="240"/>
      <point x="176" y="227" type="qcurve" smooth="yes"/>
      <point x="188" y="184"/>
      <point x="188" y="136" type="qcurve" smooth="yes"/>
      <point x="188" y="119"/>
      <point x="186" y="116" type="qcurve" smooth="yes"/>
      <point x="177" y="100"/>
      <point x="164" y="113" type="qcurve" smooth="yes"/>
      <point x="154" y="123"/>
      <point x="147" y="288" type="qcurve" smooth="yes"/>
      <point x="143" y="373" type="line"/>
      <point x="107" y="373" type="line"/>
      <point x="95" y="373" type="line" smooth="yes"/>
      <point x="70" y="373"/>
      <point x="65" y="381" type="qcurve" smooth="yes"/>
      <point x="60" y="391"/>
      <point x="66" y="397" type="qcurve" smooth="yes"/>
      <point x="74" y="403"/>
      <point x="76" y="397" type="qcurve" smooth="yes"/>
      <point x="79" y="391"/>
      <point x="86" y="391" type="qcurve" smooth="yes"/>
      <point x="92" y="391"/>
      <point x="117" y="396" type="qcurve" smooth="yes"/>
      <point x="142" y="402" type="line"/>
      <point x="140" y="460" type="line" smooth="yes"/>
      <point x="140" y="474"/>
      <point x="139" y="503"/>
      <point x="138" y="511" type="qcurve" smooth="yes"/>
      <point x="138" y="519" type="line"/>
      <point x="137" y="519" type="line" smooth="yes"/>
      <point x="133" y="519"/>
      <point x="82" y="508" type="qcurve" smooth="yes"/>
      <point x="37" y="499"/>
      <point x="15" y="499"/>
      <point x="15" y="509" type="qcurve" smooth="yes"/>
      <point x="15" y="518"/>
      <point x="76" y="536" type="qcurve" smooth="yes"/>
      <point x="120" y="549"/>
      <point x="137" y="558"/>
      <point x="139" y="569" type="qcurve" smooth="yes"/>
      <point x="142" y="585"/>
      <point x="158" y="585"/>
      <point x="159" y="573" type="qcurve" smooth="yes"/>
      <point x="160" y="568"/>
      <point x="165" y="562"/>
      <point x="167" y="563" type="qcurve" smooth="yes"/>
      <point x="176" y="566"/>
      <point x="357" y="611"/>
    </contour>
  </outline>
</glyph>
<glyph name="G" format="2">
  <advance width="475"/>
  <unicode hex="0047"/>
  <outline>
    <contour>
      <point x="271" y="590" type="qcurve" smooth="yes"/>
      <point x="305" y="598"/>
      <point x="340" y="598" type="qcurve" smooth="yes"/>
      <point x="387" y="598"/>
      <point x="387" y="581" type="qcurve" smooth="yes"/>
      <point x="387" y="576"/>
      <point x="366" y="576" type="qcurve" smooth="yes"/>
      <point x="351" y="576" type="line"/>
      <point x="339" y="576" type="line" smooth="yes"/>
      <point x="289" y="576"/>
      <point x="221" y="540" type="qcurve" smooth="yes"/>
      <point x="108" y="481"/>
      <point x="62" y="382" type="qcurve" smooth="yes"/>
      <point x="46" y="349"/>
      <point x="46" y="315" type="qcurve" smooth="yes"/>
      <point x="46" y="267"/>
      <point x="105" y="193"/>
      <point x="146" y="181" type="qcurve" smooth="yes"/>
      <point x="173" y="173"/>
      <point x="198" y="173" type="qcurve" smooth="yes"/>
      <point x="284" y="173"/>
      <point x="367" y="250" type="qcurve" smooth="yes"/>
      <point x="389" y="270"/>
      <point x="397" y="285"/>
      <point x="398" y="305" type="qcurve" smooth="yes"/>
      <point x="398" y="329"/>
      <point x="402" y="359" type="qcurve" smooth="yes"/>
      <point x="406" y="385" type="line"/>
      <point x="293" y="385" type="line" smooth="yes"/>
      <point x="180" y="385"/>
      <point x="180" y="390" type="qcurve" smooth="yes"/>
      <point x="180" y="393"/>
      <point x="187" y="397"/>
      <point x="211" y="402"/>
      <point x="252" y="406"/>
      <point x="289" y="409" type="qcurve" smooth="yes"/>
      <point x="371" y="416"/>
      <point x="411" y="420" type="qcurve" smooth="yes"/>
      <point x="418" y="421"/>
      <point x="429" y="421" type="qcurve" smooth="yes"/>
      <point x="447" y="421"/>
      <point x="447" y="408" type="qcurve" smooth="yes"/>
      <point x="447" y="402"/>
      <point x="441" y="378"/>
      <point x="437" y="341" type="qcurve" smooth="yes"/>
      <point x="433" y="310" type="line"/>
      <point x="444" y="322" type="line" smooth="yes"/>
      <point x="454" y="334"/>
      <point x="457" y="334" type="qcurve" smooth="yes"/>
      <point x="459" y="334"/>
      <point x="459" y="327" type="qcurve" smooth="yes"/>
      <point x="459" y="289"/>
      <point x="441" y="253" type="qcurve" smooth="yes"/>
      <point x="430" y="231"/>
      <point x="430" y="210" type="qcurve" smooth="yes"/>
      <point x="430" y="206"/>
      <point x="432" y="158" type="qcurve" smooth="yes"/>
      <point x="436" y="97"/>
      <point x="436" y="55" type="qcurve" smooth="yes"/>
      <point x="436" y="7"/>
      <point x="428" y="-1" type="qcurve" smooth="yes"/>
      <point x="422" y="-7"/>
      <point x="416" y="-7" type="qcurve" smooth="yes"/>
      <point x="406" y="-7"/>
      <point x="392" y="27"/>
      <point x="392" y="53" type="qcurve" smooth="yes"/>
      <point x="392" y="93"/>
      <point x="389" y="138" type="qcurve" smooth="yes"/>
      <point x="386" y="193" type="line"/>
      <point x="370" y="181" type="line" smooth="yes"/>
      <point x="297" y="127"/>
      <point x="205" y="127" type="qcurve" smooth="yes"/>
      <point x="157" y="127"/>
      <point x="122" y="143" type="qcurve" smooth="yes"/>
      <point x="70" y="167"/>
      <point x="15" y="254"/>
      <point x="15" y="308" type="qcurve" smooth="yes"/>
      <point x="15" y="393"/>
      <point x="80" y="467" type="qcurve" smooth="yes"/>
      <point x="115" y="506"/>
      <point x="224" y="577"/>
    </contour>
  </outline>
</glyph>
<glyph name="H" format="2">
  <advance width="425"/>
  <unicode hex="0048"/>
  <outline>
    <contour>
      <point x="294" y="636" type="line" smooth="yes"/>
      <point x="296" y="650"/>
      <point x="304" y="650"/>
      <point x="306" y="633" type="qcurve" smooth="yes"/>
      <point x="307" y="608"/>
      <point x="324" y="421"/>
      <point x="326" y="420" type="qcurve" smooth="yes"/>
      <point x="330" y="420" type="line" smooth="yes"/>
      <point x="339" y="420"/>
      <point x="360" y="423" type="qcurve" smooth="yes"/>
      <point x="378" y="426"/>
      <point x="389" y="426" type="qcurve" smooth="yes"/>
      <point x="409" y="426"/>
      <point x="409" y="410" type="qcurve" smooth="yes"/>
      <point x="409" y="397"/>
      <point x="391" y="385"/>
      <point x="365" y="382" type="qcurve" smooth="yes"/>
      <point x="333" y="379"/>
      <point x="333" y="369" type="qcurve" smooth="yes"/>
      <point x="333" y="347"/>
      <point x="347" y="247" type="qcurve" smooth="yes"/>
      <point x="360" y="153"/>
      <point x="360" y="133" type="qcurve" smooth="yes"/>
      <point x="360" y="106"/>
      <point x="345" y="106" type="qcurve" smooth="yes"/>
      <point x="325" y="106"/>
      <point x="322" y="170" type="qcurve" smooth="yes"/>
      <point x="320" y="206"/>
      <point x="305" y="366"/>
      <point x="303" y="368" type="qcurve" smooth="yes"/>
      <point x="301" y="368" type="line" smooth="yes"/>
      <point x="288" y="368"/>
      <point x="109" y="338"/>
      <point x="104" y="336" type="qcurve" smooth="yes"/>
      <point x="94" y="334"/>
      <point x="88" y="331"/>
      <point x="88" y="325" type="qcurve" smooth="yes"/>
      <point x="88" y="323"/>
      <point x="92" y="299"/>
      <point x="105" y="180"/>
      <point x="106" y="173" type="qcurve" smooth="yes"/>
      <point x="109" y="160"/>
      <point x="98" y="147" type="qcurve" smooth="yes"/>
      <point x="88" y="134" type="line"/>
      <point x="77" y="147" type="line" smooth="yes"/>
      <point x="67" y="158"/>
      <point x="67" y="217" type="qcurve" smooth="yes"/>
      <point x="67" y="280"/>
      <point x="64" y="302" type="qcurve" smooth="yes"/>
      <point x="61" y="322"/>
      <point x="56" y="328"/>
      <point x="32" y="328"/>
      <point x="15" y="338"/>
      <point x="15" y="345" type="qcurve" smooth="yes"/>
      <point x="15" y="349"/>
      <point x="38" y="355" type="qcurve" smooth="yes"/>
      <point x="59" y="364"/>
      <point x="60" y="370" type="qcurve" smooth="yes"/>
      <point x="60" y="371"/>
      <point x="59" y="377"/>
      <point x="59" y="379" type="qcurve" smooth="yes"/>
      <point x="46" y="504"/>
      <point x="46" y="562" type="qcurve" smooth="yes"/>
      <point x="46" y="593"/>
      <point x="60" y="593"/>
      <point x="72" y="479" type="qcurve" smooth="yes"/>
      <point x="83" y="365"/>
      <point x="90" y="365" type="qcurve" smooth="yes"/>
      <point x="98" y="365"/>
      <point x="296" y="410"/>
      <point x="298" y="412" type="qcurve" smooth="yes"/>
      <point x="299" y="413"/>
      <point x="299" y="430" type="qcurve" smooth="yes"/>
      <point x="299" y="465"/>
      <point x="296" y="519" type="qcurve" smooth="yes"/>
      <point x="294" y="601"/>
      <point x="294" y="621" type="qcurve" smooth="yes"/>
    </contour>
  </outline>
</glyph>
<glyph name="I" format="2">
  <advance width="71"/>
  <unicode hex="0049"/>
  <outline>
    <contour>
      <point x="19" y="565" type="qcurve" smooth="yes"/>
      <point x="22" y="575"/>
      <point x="23" y="575" type="qcurve" smooth="yes"/>
      <point x="29" y="575"/>
      <point x="33" y="457" type="qcurve" smooth="yes"/>
      <point x="40" y="225"/>
      <point x="52" y="170" type="qcurve" smooth="yes"/>
      <point x="55" y="156"/>
      <point x="55" y="148" type="qcurve" smooth="yes"/>
      <point x="55" y="138"/>
      <point x="49" y="127" type="qcurve" smooth="yes"/>
      <point x="40" y="111"/>
      <point x="34" y="111" type="qcurve" smooth="yes"/>
      <point x="27" y="111"/>
      <point x="21" y="117"/>
      <point x="16" y="147"/>
      <point x="15" y="200"/>
      <point x="15" y="253" type="qcurve" smooth="yes"/>
      <point x="15" y="340" type="line" smooth="yes"/>
      <point x="17" y="559"/>
    </contour>
  </outline>
</glyph>
<glyph name="J" format="2">
  <advance width="236"/>
  <unicode hex="004A"/>
  <outline>
    <contour>
      <point x="157" y="566" type="qcurve" smooth="yes"/>
      <point x="155" y="584"/>
      <point x="155" y="585" type="qcurve" smooth="yes"/>
      <point x="155" y="593"/>
      <point x="173" y="593"/>
      <point x="184" y="551"/>
      <point x="196" y="471" type="qcurve" smooth="yes"/>
      <point x="220" y="307"/>
      <point x="220" y="206" type="qcurve" smooth="yes"/>
      <point x="220" y="134"/>
      <point x="208" y="97" type="qcurve" smooth="yes"/>
      <point x="193" y="48"/>
      <point x="130" y="-13"/>
      <point x="90" y="-17" type="qcurve" smooth="yes"/>
      <point x="84" y="-18"/>
      <point x="75" y="-18" type="qcurve" smooth="yes"/>
      <point x="62" y="-18"/>
      <point x="47" y="-6" type="qcurve" smooth="yes"/>
      <point x="15" y="22"/>
      <point x="15" y="45" type="qcurve" smooth="yes"/>
      <point x="15" y="50"/>
      <point x="21" y="50" type="qcurve" smooth="yes"/>
      <point x="24" y="50"/>
      <point x="68" y="40"/>
      <point x="81" y="40" type="qcurve" smooth="yes"/>
      <point x="109" y="40"/>
      <point x="134" y="62" type="qcurve" smooth="yes"/>
      <point x="185" y="107"/>
      <point x="185" y="237" type="qcurve" smooth="yes"/>
      <point x="185" y="272"/>
      <point x="182" y="317" type="qcurve" smooth="yes"/>
      <point x="172" y="454"/>
    </contour>
  </outline>
</glyph>
<glyph name="K" format="2">
  <advance width="436"/>
  <unicode hex="004B"/>
  <outline>
    <contour>
      <point x="281" y="604" type="qcurve" smooth="yes"/>
      <point x="290" y="613"/>
      <point x="295" y="613" type="qcurve" smooth="yes"/>
      <point x="299" y="613"/>
      <point x="299" y="607" type="qcurve" smooth="yes"/>
      <point x="299" y="602"/>
      <point x="294" y="587" type="qcurve" smooth="yes"/>
      <point x="290" y="575"/>
      <point x="204" y="476"/>
      <point x="155" y="425" type="qcurve" smooth="yes"/>
      <point x="111" y="378"/>
      <point x="111" y="372" type="qcurve" smooth="yes"/>
      <point x="111" y="369"/>
      <point x="113" y="368" type="qcurve" smooth="yes"/>
      <point x="191" y="307"/>
      <point x="301" y="230" type="qcurve" smooth="yes"/>
      <point x="375" y="179"/>
      <point x="420" y="139"/>
      <point x="420" y="123" type="qcurve" smooth="yes"/>
      <point x="420" y="112"/>
      <point x="412" y="112" type="qcurve" smooth="yes"/>
      <point x="402" y="112"/>
      <point x="384" y="127" type="qcurve" smooth="yes"/>
      <point x="157" y="308"/>
      <point x="124" y="337" type="qcurve" smooth="yes"/>
      <point x="95" y="362"/>
      <point x="89" y="362" type="qcurve" smooth="yes"/>
      <point x="86" y="362"/>
      <point x="82" y="359" type="qcurve" smooth="yes"/>
      <point x="72" y="352"/>
      <point x="72" y="341" type="qcurve" smooth="yes"/>
      <point x="72" y="336"/>
      <point x="82" y="253" type="qcurve" smooth="yes"/>
      <point x="90" y="194"/>
      <point x="90" y="137" type="qcurve" smooth="yes"/>
      <point x="90" y="86"/>
      <point x="82" y="78" type="qcurve" smooth="yes"/>
      <point x="75" y="71"/>
      <point x="62" y="87" type="qcurve" smooth="yes"/>
      <point x="52" y="100"/>
      <point x="52" y="108" type="qcurve" smooth="yes"/>
      <point x="52" y="111"/>
      <point x="54" y="121" type="qcurve" smooth="yes"/>
      <point x="57" y="136"/>
      <point x="57" y="165" type="qcurve" smooth="yes"/>
      <point x="57" y="240"/>
      <point x="43" y="372" type="qcurve" smooth="yes"/>
      <point x="39" y="415"/>
      <point x="27" y="497" type="qcurve" smooth="yes"/>
      <point x="15" y="574"/>
      <point x="15" y="588" type="qcurve" smooth="yes"/>
      <point x="15" y="593"/>
      <point x="17" y="593" type="qcurve" smooth="yes"/>
      <point x="21" y="593" type="line" smooth="yes"/>
      <point x="34" y="593"/>
      <point x="56" y="448" type="qcurve" smooth="yes"/>
      <point x="68" y="370"/>
      <point x="69" y="370" type="qcurve" smooth="yes"/>
      <point x="75" y="370"/>
      <point x="176" y="478"/>
      <point x="216" y="528" type="qcurve" smooth="yes"/>
      <point x="271" y="595"/>
    </contour>
  </outline>
</glyph>
<glyph name="L" format="2">
  <advance width="397"/>
  <unicode hex="004C"/>
  <outline>
    <contour>
      <point x="54" y="615" type="qcurve" smooth="yes"/>
      <point x="56" y="618"/>
      <point x="58" y="618" type="qcurve" smooth="yes"/>
      <point x="69" y="618"/>
      <point x="78" y="575" type="qcurve" smooth="yes"/>
      <point x="85" y="540"/>
      <point x="85" y="335" type="qcurve" smooth="yes"/>
      <point x="85" y="217"/>
      <point x="81" y="201" type="qcurve" smooth="yes"/>
      <point x="78" y="190"/>
      <point x="82" y="183"/>
      <point x="92" y="181" type="qcurve" smooth="yes"/>
      <point x="108" y="177"/>
      <point x="140" y="154" type="qcurve" smooth="yes"/>
      <point x="186" y="123"/>
      <point x="215" y="123" type="qcurve" smooth="yes"/>
      <point x="222" y="123"/>
      <point x="226" y="124" type="qcurve" smooth="yes"/>
      <point x="240" y="128"/>
      <point x="309" y="162" type="qcurve" smooth="yes"/>
      <point x="376" y="193"/>
      <point x="381" y="193" type="qcurve" smooth="yes"/>
      <point x="384" y="193"/>
      <point x="344" y="154"/>
      <point x="295" y="111"/>
      <point x="287" y="107" type="qcurve" smooth="yes"/>
      <point x="243" y="86"/>
      <point x="217" y="86" type="qcurve" smooth="yes"/>
      <point x="182" y="86"/>
      <point x="133" y="119" type="qcurve" smooth="yes"/>
      <point x="93" y="147"/>
      <point x="81" y="147" type="qcurve" smooth="yes"/>
      <point x="73" y="147"/>
      <point x="51" y="101"/>
      <point x="44" y="101" type="qcurve" smooth="yes"/>
      <point x="34" y="101"/>
      <point x="15" y="132"/>
      <point x="15" y="148" type="qcurve" smooth="yes"/>
      <point x="15" y="162"/>
      <point x="22" y="171"/>
      <point x="35" y="178" type="qcurve" smooth="yes"/>
      <point x="55" y="188" type="line"/>
      <point x="61" y="235" type="line" smooth="yes"/>
      <point x="70" y="307"/>
      <point x="70" y="412" type="qcurve" smooth="yes"/>
      <point x="70" y="558"/>
      <point x="56" y="595" type="qcurve" smooth="yes"/>
      <point x="50" y="610"/>
    </contour>
  </outline>
</glyph>
<glyph name="M" format="2">
  <advance width="442"/>
  <unicode hex="004D"/>
  <outline>
    <contour>
      <point x="290" y="631"/>
      <point x="305" y="629" type="qcurve" smooth="yes"/>
      <point x="321" y="627" type="line"/>
      <point x="324" y="555" type="line" smooth="yes"/>
      <point x="327" y="483"/>
      <point x="341" y="421" type="qcurve" smooth="yes"/>
      <point x="379" y="262"/>
      <point x="411" y="211" type="qcurve" smooth="yes"/>
      <point x="426" y="186"/>
      <point x="426" y="173" type="qcurve" smooth="yes"/>
      <point x="426" y="166"/>
      <point x="421" y="153" type="qcurve" smooth="yes"/>
      <point x="415" y="138"/>
      <point x="405" y="141" type="qcurve" smooth="yes"/>
      <point x="386" y="144"/>
      <point x="334" y="270"/>
      <point x="311" y="368" type="qcurve" smooth="yes"/>
      <point x="297" y="429" type="line"/>
      <point x="281" y="398" type="line" smooth="yes"/>
      <point x="267" y="371"/>
      <point x="220" y="326"/>
      <point x="199" y="321" type="qcurve" smooth="yes"/>
      <point x="188" y="318"/>
      <point x="178" y="318" type="qcurve" smooth="yes"/>
      <point x="113" y="318"/>
      <point x="60" y="421" type="qcurve" smooth="yes"/>
      <point x="39" y="462" type="line"/>
      <point x="42" y="313" type="line" smooth="yes"/>
      <point x="45" y="188"/>
      <point x="45" y="164" type="qcurve" smooth="yes"/>
      <point x="45" y="138"/>
      <point x="41" y="134" type="qcurve" smooth="yes"/>
      <point x="38" y="131"/>
      <point x="35" y="131" type="qcurve" smooth="yes"/>
      <point x="30" y="131"/>
      <point x="18" y="142"/>
      <point x="16" y="149" type="qcurve" smooth="yes"/>
      <point x="15" y="151"/>
      <point x="15" y="178" type="qcurve" smooth="yes"/>
      <point x="15" y="248"/>
      <point x="19" y="329" type="qcurve" smooth="yes"/>
      <point x="22" y="408"/>
      <point x="22" y="478" type="qcurve" smooth="yes"/>
      <point x="22" y="530"/>
      <point x="21" y="540" type="qcurve" smooth="yes"/>
      <point x="19" y="570"/>
      <point x="19" y="572" type="qcurve" smooth="yes"/>
      <point x="19" y="582"/>
      <point x="22" y="582" type="qcurve" smooth="yes"/>
      <point x="24" y="582"/>
      <point x="28" y="579" type="qcurve" smooth="yes"/>
      <point x="38" y="574"/>
      <point x="41" y="539" type="qcurve" smooth="yes"/>
      <point x="44" y="492"/>
      <point x="112" y="375"/>
      <point x="146" y="359" type="qcurve" smooth="yes"/>
      <point x="160" y="353"/>
      <point x="168" y="353" type="qcurve" smooth="yes"/>
      <point x="174" y="353"/>
      <point x="184" y="356" type="qcurve" smooth="yes"/>
      <point x="225" y="368"/>
      <point x="281" y="497"/>
      <point x="282" y="579" type="qcurve" smooth="yes"/>
      <point x="282" y="623"/>
    </contour>
  </outline>
</glyph>
<glyph name="N" format="2">
  <advance width="357"/>
  <unicode hex="004E"/>
  <outline>
    <contour>
      <point x="260" y="616" type="line" smooth="yes"/>
      <point x="263" y="624"/>
      <point x="276" y="624" type="qcurve" smooth="yes"/>
      <point x="290" y="624"/>
      <point x="299" y="616" type="qcurve" smooth="yes"/>
      <point x="322" y="597"/>
      <point x="336" y="474" type="qcurve" smooth="yes"/>
      <point x="341" y="424"/>
      <point x="341" y="354" type="qcurve" smooth="yes"/>
      <point x="341" y="266"/>
      <point x="335" y="225" type="qcurve" smooth="yes"/>
      <point x="327" y="166"/>
      <point x="285" y="94"/>
      <point x="258" y="94" type="qcurve" smooth="yes"/>
      <point x="218" y="94"/>
      <point x="176" y="146" type="qcurve" smooth="yes"/>
      <point x="125" y="210"/>
      <point x="72" y="365" type="qcurve" smooth="yes"/>
      <point x="45" y="443" type="line"/>
      <point x="46" y="279" type="line" smooth="yes"/>
      <point x="47" y="230"/>
      <point x="47" y="171" type="qcurve" smooth="yes"/>
      <point x="47" y="116"/>
      <point x="40" y="109" type="qcurve" smooth="yes"/>
      <point x="31" y="101"/>
      <point x="22" y="113" type="qcurve" smooth="yes"/>
      <point x="15" y="121"/>
      <point x="15" y="131" type="qcurve" smooth="yes"/>
      <point x="15" y="132"/>
      <point x="17" y="146" type="qcurve" smooth="yes"/>
      <point x="23" y="171"/>
      <point x="25" y="359" type="qcurve" smooth="yes"/>
      <point x="27" y="553"/>
      <point x="29" y="557" type="qcurve" smooth="yes"/>
      <point x="31" y="562"/>
      <point x="33" y="562" type="qcurve" smooth="yes"/>
      <point x="38" y="562"/>
      <point x="40" y="536" type="qcurve" smooth="yes"/>
      <point x="42" y="507"/>
      <point x="128" y="283"/>
      <point x="157" y="232" type="qcurve" smooth="yes"/>
      <point x="178" y="193"/>
      <point x="235" y="137"/>
      <point x="251" y="137" type="qcurve" smooth="yes"/>
      <point x="252" y="137"/>
      <point x="254" y="138" type="qcurve" smooth="yes"/>
      <point x="255" y="138" type="line"/>
      <point x="274" y="146"/>
      <point x="287" y="206" type="qcurve" smooth="yes"/>
      <point x="294" y="238"/>
      <point x="294" y="430"/>
      <point x="287" y="482" type="qcurve" smooth="yes"/>
      <point x="280" y="535"/>
      <point x="268" y="573" type="qcurve" smooth="yes"/>
      <point x="259" y="602"/>
      <point x="259" y="612" type="qcurve" smooth="yes"/>
      <point x="259" y="613"/>
      <point x="260" y="614" type="qcurve" smooth="yes"/>
    </contour>
  </outline>
</glyph>
<glyph name="O" format="2">
  <advance width="443"/>
  <unicode hex="004F"/>
  <outline>
    <contour>
      <point x="243" y="575" type="qcurve" smooth="yes"/>
      <point x="212" y="582"/>
      <point x="186" y="582" type="qcurve" smooth="yes"/>
      <point x="133" y="582"/>
      <point x="85" y="537" type="qcurve" smooth="yes"/>
      <point x="41" y="494"/>
      <point x="35" y="411" type="qcurve" smooth="yes"/>
      <point x="34" y="400"/>
      <point x="34" y="381" type="qcurve" smooth="yes"/>
      <point x="34" y="334"/>
      <point x="61" y="277" type="qcurve" smooth="yes"/>
      <point x="85" y="226"/>
      <point x="171" y="169"/>
      <point x="224" y="169" type="qcurve" smooth="yes"/>
      <point x="264" y="169"/>
      <point x="286" y="180" type="qcurve" smooth="yes"/>
      <point x="357" y="218"/>
      <point x="389" y="320" type="qcurve" smooth="yes"/>
      <point x="399" y="353"/>
      <point x="399" y="387" type="qcurve" smooth="yes"/>
      <point x="399" y="456"/>
      <point x="315" y="559"/>
    </contour>
    <contour>
      <point x="144" y="595" type="qcurve" smooth="yes"/>
      <point x="168" y="604"/>
      <point x="199" y="604" type="qcurve" smooth="yes"/>
      <point x="202" y="604"/>
      <point x="215" y="603"/>
      <point x="219" y="603" type="qcurve" smooth="yes"/>
      <point x="252" y="602"/>
      <point x="278" y="596"/>
      <point x="299" y="585" type="qcurve" smooth="yes"/>
      <point x="371" y="547"/>
      <point x="402" y="482" type="qcurve" smooth="yes"/>
      <point x="427" y="429"/>
      <point x="427" y="376" type="qcurve" smooth="yes"/>
      <point x="427" y="352"/>
      <point x="423" y="333" type="qcurve" smooth="yes"/>
      <point x="404" y="239"/>
      <point x="301" y="132"/>
      <point x="232" y="132" type="qcurve" smooth="yes"/>
      <point x="216" y="132"/>
      <point x="200" y="135" type="qcurve" smooth="yes"/>
      <point x="146" y="144"/>
      <point x="70" y="208"/>
      <point x="40" y="268" type="qcurve" smooth="yes"/>
      <point x="15" y="318" type="line"/>
      <point x="15" y="385" type="line" smooth="yes"/>
      <point x="15" y="452"/>
      <point x="24" y="478" type="qcurve" smooth="yes"/>
      <point x="38" y="518"/>
      <point x="102" y="580"/>
    </contour>
  </outline>
</glyph>
<glyph name="P" format="2">
  <advance width="364"/>
  <unicode hex="0050"/>
  <outline>
    <contour>
      <point x="256" y="586" type="qcurve" smooth="yes"/>
      <point x="224" y="595"/>
      <point x="188" y="595" type="qcurve" smooth="yes"/>
      <point x="142" y="595"/>
      <point x="104" y="582" type="qcurve" smooth="yes"/>
      <point x="83" y="575" type="line"/>
      <point x="82" y="526" type="line" smooth="yes"/>
      <point x="82" y="521"/>
      <point x="81" y="496"/>
      <point x="81" y="489" type="qcurve" smooth="yes"/>
      <point x="81" y="465"/>
      <point x="83" y="441" type="qcurve" smooth="yes"/>
      <point x="87" y="403" type="line"/>
      <point x="118" y="403" type="line" smooth="yes"/>
      <point x="184" y="403"/>
      <point x="240" y="431" type="qcurve" smooth="yes"/>
      <point x="273" y="448"/>
      <point x="309" y="498"/>
      <point x="309" y="523" type="qcurve" smooth="yes"/>
      <point x="309" y="570"/>
    </contour>
    <contour>
      <point x="150" y="625" type="qcurve" smooth="yes"/>
      <point x="162" y="628"/>
      <point x="197" y="628" type="qcurve" smooth="yes"/>
      <point x="216" y="628" type="line"/>
      <point x="342" y="624"/>
      <point x="348" y="522" type="qcurve" smooth="yes"/>
      <point x="348" y="519"/>
      <point x="349" y="509"/>
      <point x="349" y="507" type="qcurve" smooth="yes"/>
      <point x="349" y="485"/>
      <point x="336" y="458" type="qcurve" smooth="yes"/>
      <point x="300" y="385"/>
      <point x="190" y="356" type="qcurve" smooth="yes"/>
      <point x="148" y="346"/>
      <point x="118" y="346" type="qcurve" smooth="yes"/>
      <point x="85" y="346" type="line"/>
      <point x="88" y="325" type="line" smooth="yes"/>
      <point x="89" y="318"/>
      <point x="92" y="274"/>
      <point x="93" y="266" type="qcurve" smooth="yes"/>
      <point x="96" y="231"/>
      <point x="102" y="200" type="qcurve" smooth="yes"/>
      <point x="104" y="184"/>
      <point x="104" y="178" type="qcurve" smooth="yes"/>
      <point x="104" y="140"/>
      <point x="88" y="140" type="qcurve" smooth="yes"/>
      <point x="80" y="140"/>
      <point x="73" y="152" type="qcurve" smooth="yes"/>
      <point x="67" y="160"/>
      <point x="63" y="265" type="qcurve" smooth="yes"/>
      <point x="58" y="366" type="line"/>
      <point x="44" y="380" type="line" smooth="yes"/>
      <point x="29" y="395"/>
      <point x="29" y="401" type="qcurve" smooth="yes"/>
      <point x="29" y="406"/>
      <point x="36" y="406" type="qcurve" smooth="yes"/>
      <point x="41" y="406"/>
      <point x="44" y="405" type="qcurve" smooth="yes"/>
      <point x="59" y="402" type="line"/>
      <point x="61" y="481" type="line" smooth="yes"/>
      <point x="62" y="512"/>
      <point x="62" y="553" type="qcurve" smooth="yes"/>
      <point x="62" y="562" type="line" smooth="yes"/>
      <point x="59" y="565"/>
      <point x="39" y="551" type="qcurve" smooth="yes"/>
      <point x="24" y="542"/>
      <point x="19" y="540"/>
      <point x="16" y="545" type="qcurve" smooth="yes"/>
      <point x="16" y="546"/>
      <point x="15" y="548"/>
      <point x="15" y="549" type="qcurve" smooth="yes"/>
      <point x="15" y="566"/>
      <point x="101" y="615"/>
    </contour>
  </outline>
</glyph>
<glyph name="Q" format="2">
  <advance width="491"/>
  <unicode hex="0051"/>
  <outline>
    <contour>
      <point x="327" y="559" type="qcurve" smooth="yes"/>
      <point x="285" y="571"/>
      <point x="239" y="571" type="qcurve" smooth="yes"/>
      <point x="227" y="571"/>
      <point x="223" y="570" type="qcurve" smooth="yes"/>
      <point x="213" y="569"/>
      <point x="168" y="547" type="qcurve" smooth="yes"/>
      <point x="97" y="512"/>
      <point x="62" y="440" type="qcurve" smooth="yes"/>
      <point x="45" y="406"/>
      <point x="45" y="367" type="qcurve" smooth="yes"/>
      <point x="46" y="326"/>
      <point x="60" y="300" type="qcurve" smooth="yes"/>
      <point x="85" y="251"/>
      <point x="129" y="224" type="qcurve" smooth="yes"/>
      <point x="150" y="211"/>
      <point x="213" y="192"/>
      <point x="233" y="192" type="qcurve" smooth="yes"/>
      <point x="253" y="192" type="line"/>
      <point x="241" y="216" type="line" smooth="yes"/>
      <point x="202" y="294"/>
      <point x="202" y="326" type="qcurve" smooth="yes"/>
      <point x="202" y="336"/>
      <point x="212" y="336"/>
      <point x="212" y="328" type="qcurve" smooth="yes"/>
      <point x="212" y="319"/>
      <point x="271" y="206"/>
      <point x="277" y="204" type="qcurve" smooth="yes"/>
      <point x="280" y="204" type="line" smooth="yes"/>
      <point x="290" y="204"/>
      <point x="338" y="230"/>
      <point x="353" y="243" type="qcurve" smooth="yes"/>
      <point x="386" y="272"/>
      <point x="424" y="363"/>
      <point x="424" y="411" type="qcurve" smooth="yes"/>
      <point x="424" y="439"/>
      <point x="416" y="468" type="qcurve" smooth="yes"/>
      <point x="408" y="498"/>
      <point x="379" y="525" type="qcurve" smooth="yes"/>
      <point x="351" y="552"/>
    </contour>
    <contour>
      <point x="235" y="601" type="qcurve" smooth="yes"/>
      <point x="268" y="607"/>
      <point x="297" y="607" type="qcurve" smooth="yes"/>
      <point x="358" y="607"/>
      <point x="400" y="578" type="qcurve" smooth="yes"/>
      <point x="434" y="554"/>
      <point x="475" y="460"/>
      <point x="475" y="406" type="qcurve" smooth="yes"/>
      <point x="475" y="376"/>
      <point x="467" y="344" type="qcurve" smooth="yes"/>
      <point x="451" y="285"/>
      <point x="379" y="190"/>
      <point x="335" y="171" type="qcurve" smooth="yes"/>
      <point x="305" y="158"/>
      <point x="305" y="150"/>
      <point x="347" y="89"/>
      <point x="361" y="72" type="qcurve" smooth="yes"/>
      <point x="375" y="57"/>
      <point x="387" y="36" type="qcurve" smooth="yes"/>
      <point x="399" y="16" type="line"/>
      <point x="382" y="16" type="line" smooth="yes"/>
      <point x="366" y="16"/>
      <point x="334" y="51"/>
      <point x="304" y="100" type="qcurve" smooth="yes"/>
      <point x="273" y="151" type="line"/>
      <point x="254" y="147" type="line" smooth="yes"/>
      <point x="250" y="146"/>
      <point x="241" y="146" type="qcurve" smooth="yes"/>
      <point x="195" y="146"/>
      <point x="142" y="171" type="qcurve" smooth="yes"/>
      <point x="84" y="198"/>
      <point x="15" y="303"/>
      <point x="15" y="364" type="qcurve" smooth="yes"/>
      <point x="15" y="373"/>
      <point x="17" y="391" type="qcurve" smooth="yes"/>
      <point x="27" y="462"/>
      <point x="154" y="585"/>
    </contour>
  </outline>
</glyph>
<glyph name="R" format="2">
  <advance width="419"/>
  <unicode hex="0052"/>
  <outline>
    <contour>
      <point x="232" y="565" type="qcurve" smooth="yes"/>
      <point x="220" y="571"/>
      <point x="192" y="575" type="qcurve" smooth="yes"/>
      <point x="191" y="575"/>
      <point x="183" y="576"/>
      <point x="181" y="576" type="qcurve" smooth="yes"/>
      <point x="160" y="576"/>
      <point x="113" y="566"/>
      <point x="108" y="560" type="qcurve" smooth="yes"/>
      <point x="106" y="556"/>
      <point x="106" y="531" type="qcurve" smooth="yes"/>
      <point x="106" y="519"/>
      <point x="108" y="483" type="qcurve" smooth="yes"/>
      <point x="112" y="403"/>
      <point x="112" y="386" type="qcurve" smooth="yes"/>
      <point x="113" y="364"/>
      <point x="121" y="364" type="qcurve" smooth="yes"/>
      <point x="130" y="364"/>
      <point x="169" y="383" type="qcurve" smooth="yes"/>
      <point x="199" y="397"/>
      <point x="251" y="449"/>
      <point x="260" y="472" type="qcurve" smooth="yes"/>
      <point x="266" y="488"/>
      <point x="266" y="505" type="qcurve" smooth="yes"/>
      <point x="266" y="548"/>
    </contour>
    <contour>
      <point x="128" y="596" type="qcurve" smooth="yes"/>
      <point x="152" y="604"/>
      <point x="185" y="604" type="qcurve" smooth="yes"/>
      <point x="222" y="604"/>
      <point x="244" y="594" type="qcurve" smooth="yes"/>
      <point x="303" y="566"/>
      <point x="303" y="498" type="qcurve" smooth="yes"/>
      <point x="303" y="486" type="line"/>
      <point x="299" y="445"/>
      <point x="247" y="369"/>
      <point x="205" y="343" type="qcurve" smooth="yes"/>
      <point x="175" y="324" type="line"/>
      <point x="192" y="306" type="line" smooth="yes"/>
      <point x="212" y="284"/>
      <point x="238" y="248" type="qcurve" smooth="yes"/>
      <point x="300" y="166"/>
      <point x="325" y="166" type="qcurve" smooth="yes"/>
      <point x="338" y="166"/>
      <point x="370" y="193" type="qcurve" smooth="yes"/>
      <point x="403" y="219" type="line"/>
      <point x="400" y="197" type="line" smooth="yes"/>
      <point x="393" y="154"/>
      <point x="364" y="125" type="qcurve" smooth="yes"/>
      <point x="351" y="114"/>
      <point x="330" y="114" type="qcurve" smooth="yes"/>
      <point x="301" y="114"/>
      <point x="250" y="156"/>
      <point x="200" y="221" type="qcurve" smooth="yes"/>
      <point x="164" y="268"/>
      <point x="140" y="290" type="qcurve" smooth="yes"/>
      <point x="121" y="307" type="line"/>
      <point x="119" y="292" type="line"/>
      <point x="119" y="282" type="line" smooth="yes"/>
      <point x="119" y="249"/>
      <point x="123" y="212" type="qcurve" smooth="yes"/>
      <point x="126" y="179"/>
      <point x="126" y="160" type="qcurve" smooth="yes"/>
      <point x="126" y="120"/>
      <point x="111" y="120" type="qcurve" smooth="yes"/>
      <point x="104" y="120"/>
      <point x="93" y="133" type="qcurve" smooth="yes"/>
      <point x="86" y="142"/>
      <point x="82" y="172"/>
      <point x="82" y="226" type="qcurve" smooth="yes"/>
      <point x="82" y="283"/>
      <point x="80" y="305"/>
      <point x="73" y="305" type="qcurve" smooth="yes"/>
      <point x="63" y="305"/>
      <point x="39" y="334"/>
      <point x="39" y="346" type="qcurve" smooth="yes"/>
      <point x="39" y="350"/>
      <point x="40" y="351" type="qcurve" smooth="yes"/>
      <point x="45" y="358"/>
      <point x="62" y="361" type="qcurve" smooth="yes"/>
      <point x="77" y="364"/>
      <point x="87" y="392"/>
      <point x="87" y="435" type="qcurve" smooth="yes"/>
      <point x="87" y="440"/>
      <point x="86" y="466"/>
      <point x="86" y="474" type="qcurve" smooth="yes"/>
      <point x="85" y="550" type="line"/>
      <point x="57" y="525" type="line" smooth="yes"/>
      <point x="35" y="504"/>
      <point x="35" y="497" type="qcurve" smooth="yes"/>
      <point x="35" y="494"/>
      <point x="36" y="493" type="qcurve" smooth="yes"/>
      <point x="40" y="488"/>
      <point x="33" y="484" type="qcurve" smooth="yes"/>
      <point x="27" y="482"/>
      <point x="15" y="491"/>
      <point x="15" y="498" type="qcurve" smooth="yes"/>
      <point x="15" y="510"/>
      <point x="84" y="585"/>
      <point x="97" y="587" type="qcurve" smooth="yes"/>
      <point x="119" y="592"/>
    </contour>
  </outline>
</glyph>
<glyph name="S" format="2">
  <advance width="359"/>
  <unicode hex="0053"/>
  <outline>
    <contour>
      <point x="123" y="616" type="qcurve" smooth="yes"/>
      <point x="149" y="624"/>
      <point x="180" y="624" type="qcurve" smooth="yes"/>
      <point x="208" y="624"/>
      <point x="223" y="618" type="qcurve" smooth="yes"/>
      <point x="237" y="612"/>
      <point x="257" y="588"/>
      <point x="257" y="577" type="qcurve" smooth="yes"/>
      <point x="257" y="570"/>
      <point x="254" y="571" type="qcurve" smooth="yes"/>
      <point x="252" y="572"/>
      <point x="241" y="580" type="qcurve" smooth="yes"/>
      <point x="221" y="597"/>
      <point x="189" y="597" type="qcurve" smooth="yes"/>
      <point x="129" y="597"/>
      <point x="86" y="549" type="qcurve" smooth="yes"/>
      <point x="51" y="511"/>
      <point x="51" y="478" type="qcurve" smooth="yes"/>
      <point x="51" y="464"/>
      <point x="59" y="451" type="qcurve" smooth="yes"/>
      <point x="68" y="438"/>
      <point x="100" y="426"/>
      <point x="159" y="416" type="qcurve" smooth="yes"/>
      <point x="274" y="396"/>
      <point x="311" y="356" type="qcurve" smooth="yes"/>
      <point x="344" y="320"/>
      <point x="344" y="259" type="qcurve" smooth="yes"/>
      <point x="344" y="189"/>
      <point x="302" y="146" type="qcurve" smooth="yes"/>
      <point x="259" y="101"/>
      <point x="188" y="101" type="qcurve" smooth="yes"/>
      <point x="141" y="101"/>
      <point x="111" y="125" type="qcurve" smooth="yes"/>
      <point x="98" y="135"/>
      <point x="66" y="180"/>
      <point x="66" y="188" type="qcurve" smooth="yes"/>
      <point x="67" y="190" type="line"/>
      <point x="68" y="190" type="line" smooth="yes"/>
      <point x="70" y="190"/>
      <point x="98" y="177" type="qcurve" smooth="yes"/>
      <point x="145" y="152"/>
      <point x="189" y="152" type="qcurve" smooth="yes"/>
      <point x="237" y="152"/>
      <point x="299" y="211"/>
      <point x="299" y="262" type="qcurve" smooth="yes"/>
      <point x="299" y="310"/>
      <point x="239" y="354"/>
      <point x="148" y="372" type="qcurve" smooth="yes"/>
      <point x="84" y="386"/>
      <point x="35" y="411"/>
      <point x="24" y="436" type="qcurve" smooth="yes"/>
      <point x="15" y="457"/>
      <point x="15" y="474" type="qcurve" smooth="yes"/>
      <point x="15" y="488"/>
      <point x="23" y="514" type="qcurve" smooth="yes"/>
      <point x="31" y="539"/>
      <point x="98" y="607"/>
    </contour>
  </outline>
</glyph>
<glyph name="T" format="2">
  <advance width="482"/>
  <unicode hex="0054"/>
  <outline>
    <contour>
      <point x="317" y="606" type="qcurve" smooth="yes"/>
      <point x="404" y="628"/>
      <point x="441" y="628" type="qcurve" smooth="yes"/>
      <point x="466" y="628"/>
      <point x="466" y="617" type="qcurve" smooth="yes"/>
      <point x="466" y="611"/>
      <point x="454" y="593"/>
      <point x="350" y="573" type="qcurve" smooth="yes"/>
      <point x="248" y="553"/>
      <point x="236" y="553" type="qcurve" smooth="yes"/>
      <point x="221" y="553"/>
      <point x="221" y="543" type="qcurve" smooth="yes"/>
      <point x="221" y="496"/>
      <point x="248" y="244" type="qcurve" smooth="yes"/>
      <point x="254" y="186"/>
      <point x="254" y="158"/>
      <point x="244" y="148"/>
      <point x="239" y="148"/>
      <point x="233" y="154" type="qcurve" smooth="yes"/>
      <point x="224" y="164"/>
      <point x="205" y="541"/>
      <point x="203" y="545" type="qcurve"/>
      <point x="199" y="545" type="line" smooth="yes"/>
      <point x="188" y="545"/>
      <point x="167" y="542" type="qcurve" smooth="yes"/>
      <point x="136" y="537"/>
      <point x="86" y="537" type="qcurve" smooth="yes"/>
      <point x="28" y="537"/>
      <point x="21" y="545" type="qcurve" smooth="yes"/>
      <point x="15" y="551"/>
      <point x="15" y="554" type="qcurve" smooth="yes"/>
      <point x="15" y="563"/>
      <point x="61" y="563" type="qcurve" smooth="yes"/>
      <point x="145" y="563"/>
    </contour>
  </outline>
</glyph>
<glyph name="U" format="2">
  <advance width="395"/>
  <unicode hex="0055"/>
  <outline>
    <contour>
      <point x="321" y="465" type="qcurve" smooth="yes"/>
      <point x="321" y="490" type="line"/>
      <point x="321" y="560" type="line" smooth="yes"/>
      <point x="321" y="620"/>
      <point x="327" y="620" type="qcurve" smooth="yes"/>
      <point x="330" y="620"/>
      <point x="351" y="595" type="qcurve" smooth="yes"/>
      <point x="368" y="572"/>
      <point x="380" y="523"/>
      <point x="380" y="472" type="qcurve" smooth="yes"/>
      <point x="380" y="439"/>
      <point x="379" y="419" type="qcurve" smooth="yes"/>
      <point x="377" y="340"/>
      <point x="362" y="253"/>
      <point x="343" y="208" type="qcurve" smooth="yes"/>
      <point x="327" y="168"/>
      <point x="292" y="126"/>
      <point x="264" y="112" type="qcurve" smooth="yes"/>
      <point x="232" y="96"/>
      <point x="195" y="96" type="qcurve" smooth="yes"/>
      <point x="156" y="96"/>
      <point x="126" y="111" type="qcurve" smooth="yes"/>
      <point x="54" y="146"/>
      <point x="26" y="247" type="qcurve" smooth="yes"/>
      <point x="15" y="289"/>
      <point x="15" y="403" type="qcurve" smooth="yes"/>
      <point x="15" y="469"/>
      <point x="19" y="514" type="qcurve" smooth="yes"/>
      <point x="24" y="581"/>
      <point x="30" y="609"/>
      <point x="38" y="609" type="qcurve" smooth="yes"/>
      <point x="45" y="609"/>
      <point x="45" y="588" type="qcurve" smooth="yes"/>
      <point x="45" y="584"/>
      <point x="43" y="546" type="qcurve" smooth="yes"/>
      <point x="42" y="532"/>
      <point x="42" y="498" type="qcurve" smooth="yes"/>
      <point x="42" y="352"/>
      <point x="57" y="283" type="qcurve" smooth="yes"/>
      <point x="72" y="219"/>
      <point x="140" y="151"/>
      <point x="189" y="151" type="qcurve" smooth="yes"/>
      <point x="191" y="151" type="line" smooth="yes"/>
      <point x="222" y="152"/>
      <point x="278" y="199"/>
      <point x="293" y="238" type="qcurve" smooth="yes"/>
      <point x="311" y="284"/>
      <point x="320" y="364"/>
    </contour>
  </outline>
</glyph>
<glyph name="V" format="2">
  <advance width="418"/>
  <unicode hex="0056"/>
  <outline>
    <contour>
      <point x="374" y="594" type="qcurve" smooth="yes"/>
      <point x="400" y="609"/>
      <point x="404" y="605"/>
      <point x="398" y="585" type="qcurve" smooth="yes"/>
      <point x="390" y="555"/>
      <point x="328" y="475" type="qcurve" smooth="yes"/>
      <point x="229" y="347"/>
      <point x="214" y="193" type="qcurve" smooth="yes"/>
      <point x="208" y="125"/>
      <point x="192" y="125" type="qcurve" smooth="yes"/>
      <point x="189" y="125"/>
      <point x="183" y="129" type="qcurve" smooth="yes"/>
      <point x="176" y="133"/>
      <point x="160" y="176"/>
      <point x="128" y="267" type="qcurve" smooth="yes"/>
      <point x="95" y="367"/>
      <point x="60" y="458" type="qcurve" smooth="yes"/>
      <point x="15" y="576"/>
      <point x="15" y="586" type="qcurve" smooth="yes"/>
      <point x="15" y="588"/>
      <point x="16" y="588" type="qcurve" smooth="yes"/>
      <point x="17" y="588" type="line" smooth="yes"/>
      <point x="27" y="585"/>
      <point x="118" y="354" type="qcurve" smooth="yes"/>
      <point x="167" y="231"/>
      <point x="172" y="226" type="qcurve" smooth="yes"/>
      <point x="176" y="225"/>
      <point x="176" y="234" type="qcurve" smooth="yes"/>
      <point x="176" y="253"/>
      <point x="206" y="359"/>
      <point x="222" y="393" type="qcurve" smooth="yes"/>
      <point x="251" y="458"/>
      <point x="338" y="574"/>
    </contour>
  </outline>
</glyph>
<glyph name="W" format="2">
  <advance width="559"/>
  <unicode hex="0057"/>
  <outline>
    <contour>
      <point x="455" y="606" type="qcurve" smooth="yes"/>
      <point x="455" y="607"/>
      <point x="461" y="607" type="qcurve" smooth="yes"/>
      <point x="484" y="607"/>
      <point x="502" y="599" type="qcurve" smooth="yes"/>
      <point x="524" y="588"/>
      <point x="543" y="516"/>
      <point x="543" y="444" type="qcurve" smooth="yes"/>
      <point x="543" y="315"/>
      <point x="478" y="128"/>
      <point x="429" y="114" type="qcurve" smooth="yes"/>
      <point x="421" y="112"/>
      <point x="415" y="112" type="qcurve" smooth="yes"/>
      <point x="385" y="112"/>
      <point x="316" y="168"/>
      <point x="293" y="213" type="qcurve" smooth="yes"/>
      <point x="276" y="247" type="line"/>
      <point x="257" y="209" type="line" smooth="yes"/>
      <point x="218" y="132"/>
      <point x="166" y="132" type="qcurve" smooth="yes"/>
      <point x="158" y="132"/>
      <point x="147" y="135" type="qcurve" smooth="yes"/>
      <point x="104" y="148"/>
      <point x="39" y="235"/>
      <point x="24" y="301" type="qcurve" smooth="yes"/>
      <point x="16" y="337"/>
      <point x="16" y="419" type="qcurve" smooth="yes"/>
      <point x="16" y="562"/>
      <point x="34" y="595" type="qcurve" smooth="yes"/>
      <point x="39" y="604"/>
      <point x="46" y="604" type="qcurve" smooth="yes"/>
      <point x="56" y="604"/>
      <point x="51" y="595" type="qcurve" smooth="yes"/>
      <point x="37" y="561"/>
      <point x="37" y="457" type="qcurve" smooth="yes"/>
      <point x="37" y="280"/>
      <point x="97" y="213" type="qcurve" smooth="yes"/>
      <point x="119" y="189"/>
      <point x="141" y="179" type="qcurve" smooth="yes"/>
      <point x="154" y="174"/>
      <point x="168" y="174"/>
      <point x="176" y="179" type="qcurve" smooth="yes"/>
      <point x="206" y="194"/>
      <point x="250" y="313"/>
      <point x="250" y="374" type="qcurve" smooth="yes"/>
      <point x="250" y="396"/>
      <point x="248" y="407" type="qcurve" smooth="yes"/>
      <point x="242" y="451"/>
      <point x="242" y="509" type="qcurve" smooth="yes"/>
      <point x="241" y="571" type="line"/>
      <point x="260" y="572" type="line" smooth="yes"/>
      <point x="271" y="573"/>
      <point x="280" y="569"/>
      <point x="285" y="560" type="qcurve" smooth="yes"/>
      <point x="300" y="528"/>
      <point x="300" y="416" type="qcurve" smooth="yes"/>
      <point x="300" y="384" type="line" smooth="yes"/>
      <point x="299" y="365"/>
      <point x="299" y="339" type="qcurve" smooth="yes"/>
      <point x="299" y="300"/>
      <point x="310" y="268" type="qcurve" smooth="yes"/>
      <point x="327" y="219"/>
      <point x="384" y="157"/>
      <point x="409" y="157" type="qcurve" smooth="yes"/>
      <point x="424" y="157"/>
      <point x="434" y="168" type="qcurve" smooth="yes"/>
      <point x="482" y="219"/>
      <point x="496" y="370" type="qcurve" smooth="yes"/>
      <point x="499" y="400"/>
      <point x="499" y="430" type="qcurve" smooth="yes"/>
      <point x="499" y="555"/>
      <point x="465" y="592" type="qcurve" smooth="yes"/>
      <point x="455" y="604"/>
    </contour>
  </outline>
</glyph>
<glyph name="X" format="2">
  <advance width="418"/>
  <unicode hex="0058"/>
  <outline>
    <contour>
      <point x="56" y="605" type="qcurve" smooth="yes"/>
      <point x="56" y="609"/>
      <point x="65" y="609" type="qcurve" smooth="yes"/>
      <point x="72" y="609"/>
      <point x="92" y="593"/>
      <point x="92" y="588" type="qcurve" smooth="yes"/>
      <point x="92" y="585"/>
      <point x="147" y="500"/>
      <point x="204" y="419"/>
      <point x="206" y="420" type="qcurve" smooth="yes"/>
      <point x="209" y="422"/>
      <point x="347" y="584"/>
      <point x="361" y="595" type="qcurve" smooth="yes"/>
      <point x="372" y="603"/>
      <point x="383" y="603" type="qcurve" smooth="yes"/>
      <point x="402" y="603"/>
      <point x="402" y="587" type="qcurve" smooth="yes"/>
      <point x="401" y="565"/>
      <point x="363" y="531" type="qcurve" smooth="yes"/>
      <point x="327" y="499"/>
      <point x="229" y="387"/>
      <point x="229" y="378" type="qcurve" smooth="yes"/>
      <point x="229" y="364"/>
      <point x="331" y="217"/>
      <point x="349" y="198" type="qcurve" smooth="yes"/>
      <point x="375" y="171"/>
      <point x="375" y="159" type="qcurve" smooth="yes"/>
      <point x="375" y="154"/>
      <point x="374" y="151" type="qcurve" smooth="yes"/>
      <point x="369" y="121"/>
      <point x="351" y="121" type="qcurve" smooth="yes"/>
      <point x="347" y="121"/>
      <point x="345" y="122" type="qcurve" smooth="yes"/>
      <point x="332" y="126"/>
      <point x="236" y="294" type="qcurve" smooth="yes"/>
      <point x="202" y="352"/>
      <point x="200" y="352" type="qcurve" smooth="yes"/>
      <point x="193" y="352"/>
      <point x="63" y="192" type="qcurve" smooth="yes"/>
      <point x="26" y="146"/>
      <point x="18" y="146" type="qcurve" smooth="yes"/>
      <point x="15" y="146"/>
      <point x="15" y="153" type="qcurve" smooth="yes"/>
      <point x="15" y="161"/>
      <point x="82" y="260"/>
      <point x="126" y="316" type="qcurve" smooth="yes"/>
      <point x="166" y="366"/>
      <point x="175" y="381" type="qcurve" smooth="yes"/>
      <point x="176" y="382"/>
      <point x="176" y="386" type="qcurve" smooth="yes"/>
      <point x="176" y="401"/>
      <point x="119" y="496" type="qcurve" smooth="yes"/>
      <point x="56" y="602"/>
    </contour>
  </outline>
</glyph>
<glyph name="Y" format="2">
  <advance width="444"/>
  <unicode hex="0059"/>
  <outline>
    <contour>
      <point x="259" y="161" type="qcurve" smooth="yes"/>
      <point x="263" y="193"/>
      <point x="263" y="198" type="qcurve" smooth="yes"/>
      <point x="263" y="200"/>
      <point x="262" y="200" type="qcurve" smooth="yes"/>
      <point x="257" y="200"/>
      <point x="211" y="156"/>
      <point x="205" y="145" type="qcurve" smooth="yes"/>
      <point x="197" y="131"/>
      <point x="197" y="116" type="qcurve" smooth="yes"/>
      <point x="197" y="100"/>
      <point x="207" y="88" type="qcurve" smooth="yes"/>
      <point x="217" y="75"/>
      <point x="226" y="81" type="qcurve" smooth="yes"/>
      <point x="251" y="96"/>
    </contour>
    <contour>
      <point x="225" y="645" type="qcurve" smooth="yes"/>
      <point x="227" y="655"/>
      <point x="234" y="661"/>
      <point x="243" y="661" type="qcurve" smooth="yes"/>
      <point x="257" y="661"/>
      <point x="264" y="647" type="qcurve" smooth="yes"/>
      <point x="274" y="627"/>
      <point x="274" y="598" type="qcurve" smooth="yes"/>
      <point x="274" y="572"/>
      <point x="267" y="550" type="qcurve" smooth="yes"/>
      <point x="261" y="528"/>
      <point x="261" y="512" type="qcurve" smooth="yes"/>
      <point x="261" y="492"/>
      <point x="271" y="412" type="qcurve" smooth="yes"/>
      <point x="274" y="388"/>
      <point x="282" y="328"/>
      <point x="287" y="291"/>
      <point x="288" y="286" type="qcurve" smooth="yes"/>
      <point x="290" y="264" type="line"/>
      <point x="307" y="272" type="line" smooth="yes"/>
      <point x="321" y="280"/>
      <point x="418" y="313"/>
      <point x="426" y="313" type="qcurve" smooth="yes"/>
      <point x="427" y="313" type="line" smooth="yes"/>
      <point x="428" y="312"/>
      <point x="413" y="299"/>
      <point x="387" y="281"/>
      <point x="358" y="261"/>
      <point x="329" y="242"/>
      <point x="320" y="237" type="qcurve" smooth="yes"/>
      <point x="291" y="221" type="line"/>
      <point x="289" y="169" type="line" smooth="yes"/>
      <point x="285" y="86"/>
      <point x="248" y="55" type="qcurve" smooth="yes"/>
      <point x="233" y="43"/>
      <point x="221" y="43" type="qcurve" smooth="yes"/>
      <point x="208" y="43"/>
      <point x="193" y="55" type="qcurve" smooth="yes"/>
      <point x="166" y="79"/>
      <point x="166" y="114" type="qcurve" smooth="yes"/>
      <point x="166" y="116"/>
      <point x="167" y="125"/>
      <point x="167" y="127" type="qcurve" smooth="yes"/>
      <point x="171" y="178"/>
      <point x="228" y="221" type="qcurve" smooth="yes"/>
      <point x="231" y="223"/>
      <point x="240" y="230"/>
      <point x="244" y="233"/>
      <point x="251" y="239"/>
      <point x="253" y="243"/>
      <point x="257" y="249"/>
      <point x="258" y="255"/>
      <point x="259" y="264"/>
      <point x="259" y="269" type="qcurve" smooth="yes"/>
      <point x="259" y="288"/>
      <point x="248" y="371" type="qcurve" smooth="yes"/>
      <point x="236" y="465" type="line"/>
      <point x="221" y="438" type="line" smooth="yes"/>
      <point x="208" y="414"/>
      <point x="173" y="379" type="qcurve" smooth="yes"/>
      <point x="150" y="356"/>
      <point x="134" y="346"/>
      <point x="118" y="346" type="qcurve" smooth="yes"/>
      <point x="18" y="346"/>
      <point x="15" y="569" type="qcurve" smooth="yes"/>
      <point x="15" y="586" type="line" smooth="yes"/>
      <point x="15" y="635"/>
      <point x="21" y="641" type="qcurve" smooth="yes"/>
      <point x="24" y="644"/>
      <point x="25" y="644" type="qcurve" smooth="yes"/>
      <point x="28" y="644"/>
      <point x="28" y="610"/>
      <point x="27" y="596" type="qcurve" smooth="yes"/>
      <point x="27" y="588" type="line" smooth="yes"/>
      <point x="27" y="518"/>
      <point x="69" y="377"/>
      <point x="109" y="377" type="qcurve" smooth="yes"/>
      <point x="128" y="377"/>
      <point x="183" y="436"/>
      <point x="205" y="481" type="qcurve" smooth="yes"/>
      <point x="229" y="529" type="line"/>
      <point x="225" y="579" type="line" smooth="yes"/>
      <point x="224" y="593"/>
      <point x="224" y="619" type="qcurve" smooth="yes"/>
      <point x="224" y="641"/>
    </contour>
  </outline>
</glyph>
<glyph name="Z" format="2">
  <advance width="565"/>
  <unicode hex="005A"/>
  <outline>
    <contour>
      <point x="463" y="627" type="qcurve" smooth="yes"/>
      <point x="473" y="629"/>
      <point x="476" y="629" type="qcurve" smooth="yes"/>
      <point x="493" y="629"/>
      <point x="493" y="609" type="qcurve" smooth="yes"/>
      <point x="493" y="597"/>
      <point x="469" y="572" type="qcurve" smooth="yes"/>
      <point x="448" y="549"/>
      <point x="395" y="475" type="qcurve" smooth="yes"/>
      <point x="346" y="406" type="line"/>
      <point x="379" y="403" type="line" smooth="yes"/>
      <point x="414" y="399"/>
      <point x="414" y="395"/>
      <point x="373" y="388" type="qcurve" smooth="yes"/>
      <point x="329" y="381" type="line"/>
      <point x="304" y="349" type="line" smooth="yes"/>
      <point x="238" y="264"/>
      <point x="190" y="223" type="qcurve" smooth="yes"/>
      <point x="160" y="198" type="line"/>
      <point x="204" y="190" type="line" smooth="yes"/>
      <point x="250" y="182"/>
      <point x="287" y="182" type="qcurve" smooth="yes"/>
      <point x="358" y="182"/>
      <point x="476" y="217" type="qcurve" smooth="yes"/>
      <point x="543" y="237"/>
      <point x="549" y="237" type="qcurve" smooth="yes"/>
      <point x="553" y="237"/>
      <point x="525" y="211"/>
      <point x="485" y="180"/>
      <point x="475" y="175" type="qcurve" smooth="yes"/>
      <point x="414" y="143"/>
      <point x="297" y="143" type="qcurve" smooth="yes"/>
      <point x="234" y="143"/>
      <point x="175" y="155" type="qcurve" smooth="yes"/>
      <point x="115" y="168" type="line"/>
      <point x="80" y="154" type="line" smooth="yes"/>
      <point x="51" y="142"/>
      <point x="36" y="142" type="qcurve" smooth="yes"/>
      <point x="32" y="142" type="line"/>
      <point x="15" y="147"/>
      <point x="15" y="169" type="qcurve" smooth="yes"/>
      <point x="15" y="173"/>
      <point x="17" y="179" type="qcurve" smooth="yes"/>
      <point x="20" y="187"/>
      <point x="55" y="202"/>
      <point x="70" y="202" type="qcurve" smooth="yes"/>
      <point x="94" y="202"/>
      <point x="197" y="285"/>
      <point x="243" y="341" type="qcurve" smooth="yes"/>
      <point x="275" y="379" type="line"/>
      <point x="244" y="375" type="line" smooth="yes"/>
      <point x="188" y="368"/>
      <point x="173" y="368" type="qcurve" smooth="yes"/>
      <point x="164" y="368"/>
      <point x="164" y="370" type="qcurve" smooth="yes"/>
      <point x="164" y="374"/>
      <point x="231" y="391"/>
      <point x="266" y="396" type="qcurve" smooth="yes"/>
      <point x="281" y="398"/>
      <point x="296" y="409"/>
      <point x="310" y="428" type="qcurve" smooth="yes"/>
      <point x="419" y="578"/>
      <point x="415" y="582" type="qcurve"/>
      <point x="414" y="582" type="line" smooth="yes"/>
      <point x="405" y="582"/>
      <point x="310" y="571" type="qcurve" smooth="yes"/>
      <point x="208" y="559"/>
      <point x="158" y="559" type="qcurve" smooth="yes"/>
      <point x="127" y="559"/>
      <point x="116" y="563" type="qcurve" smooth="yes"/>
      <point x="103" y="567"/>
      <point x="103" y="571" type="qcurve" smooth="yes"/>
      <point x="103" y="576"/>
      <point x="145" y="577" type="qcurve" smooth="yes"/>
      <point x="169" y="577"/>
      <point x="414" y="616"/>
    </contour>
  </outline>
</glyph>
<glyph name="bracketleft" format="2">
  <advance width="263"/>
  <unicode hex="005B"/>
  <outline>
    <contour>
      <point x="30" y="605" type="qcurve" smooth="yes"/>
      <point x="36" y="610"/>
      <point x="50" y="606" type="qcurve" smooth="yes"/>
      <point x="92" y="596"/>
      <point x="133" y="594" type="qcurve" smooth="yes"/>
      <point x="162" y="594"/>
      <point x="171" y="587" type="qcurve" smooth="yes"/>
      <point x="176" y="583"/>
      <point x="176" y="580" type="qcurve" smooth="yes"/>
      <point x="176" y="569"/>
      <point x="121" y="565" type="qcurve" smooth="yes"/>
      <point x="76" y="561" type="line"/>
      <point x="76" y="522" type="line" smooth="yes"/>
      <point x="76" y="488"/>
      <point x="70" y="426" type="qcurve" smooth="yes"/>
      <point x="67" y="397"/>
      <point x="58" y="123"/>
      <point x="58" y="70" type="qcurve" smooth="yes"/>
      <point x="59" y="53" type="line" smooth="yes"/>
      <point x="61" y="53"/>
      <point x="117" y="73" type="qcurve" smooth="yes"/>
      <point x="199" y="102"/>
      <point x="240" y="102" type="qcurve" smooth="yes"/>
      <point x="248" y="102"/>
      <point x="248" y="100" type="qcurve" smooth="yes"/>
      <point x="248" y="99"/>
      <point x="246" y="97" type="qcurve" smooth="yes"/>
      <point x="196" y="54"/>
      <point x="116" y="27" type="qcurve" smooth="yes"/>
      <point x="55" y="6"/>
      <point x="43" y="6" type="qcurve" smooth="yes"/>
      <point x="35" y="6"/>
      <point x="24" y="23" type="qcurve" smooth="yes"/>
      <point x="15" y="38"/>
      <point x="15" y="98" type="qcurve" smooth="yes"/>
      <point x="15" y="104"/>
      <point x="17" y="248" type="qcurve" smooth="yes"/>
      <point x="18" y="307"/>
      <point x="21" y="509"/>
      <point x="21" y="528" type="qcurve" smooth="yes"/>
      <point x="22" y="600"/>
    </contour>
  </outline>
</glyph>
<glyph name="backslash" format="2">
  <advance width="279"/>
  <unicode hex="005C"/>
  <outline>
    <contour>
      <point x="16" y="640"/>
      <point x="23" y="640" type="qcurve" smooth="yes"/>
      <point x="34" y="640"/>
      <point x="135" y="406" type="qcurve" smooth="yes"/>
      <point x="196" y="263"/>
      <point x="227" y="202" type="qcurve" smooth="yes"/>
      <point x="263" y="132"/>
      <point x="263" y="122" type="qcurve" smooth="yes"/>
      <point x="261" y="100"/>
      <point x="247" y="100" type="qcurve" smooth="yes"/>
      <point x="236" y="100"/>
      <point x="229" y="114" type="qcurve" smooth="yes"/>
      <point x="201" y="171"/>
      <point x="106" y="416" type="qcurve" smooth="yes"/>
      <point x="40" y="582"/>
      <point x="16" y="624"/>
    </contour>
  </outline>
</glyph>
<glyph name="bracketright" format="2">
  <advance width="199"/>
  <unicode hex="005D"/>
  <outline>
    <contour>
      <point x="129" y="602" type="qcurve" smooth="yes"/>
      <point x="149" y="607"/>
      <point x="166" y="607" type="qcurve" smooth="yes"/>
      <point x="171" y="607" type="line" smooth="yes"/>
      <point x="183" y="606"/>
      <point x="183" y="593" type="qcurve" smooth="yes"/>
      <point x="183" y="583"/>
      <point x="177" y="553" type="qcurve" smooth="yes"/>
      <point x="161" y="473"/>
      <point x="161" y="262" type="qcurve" smooth="yes"/>
      <point x="161" y="201" type="line" smooth="yes"/>
      <point x="161" y="178"/>
      <point x="162" y="112"/>
      <point x="162" y="102" type="qcurve" smooth="yes"/>
      <point x="162" y="47"/>
      <point x="153" y="22"/>
      <point x="134" y="22" type="qcurve" smooth="yes"/>
      <point x="119" y="22" type="line" smooth="yes"/>
      <point x="97" y="22"/>
      <point x="37" y="37"/>
      <point x="37" y="42" type="qcurve" smooth="yes"/>
      <point x="37" y="49"/>
      <point x="82" y="63"/>
      <point x="103" y="63" type="qcurve" smooth="yes"/>
      <point x="132" y="63" type="line"/>
      <point x="130" y="208" type="line"/>
      <point x="130" y="255" type="line" smooth="yes"/>
      <point x="130" y="474"/>
      <point x="143" y="558" type="qcurve" smooth="yes"/>
      <point x="146" y="577" type="line"/>
      <point x="95" y="575" type="line" smooth="yes"/>
      <point x="86" y="574"/>
      <point x="71" y="574" type="qcurve" smooth="yes"/>
      <point x="16" y="574"/>
      <point x="16" y="589" type="qcurve" smooth="yes"/>
      <point x="16" y="592"/>
      <point x="59" y="594" type="qcurve" smooth="yes"/>
      <point x="99" y="594"/>
    </contour>
  </outline>
</glyph>
<glyph name="asciicircum" format="2">
  <advance width="289"/>
  <unicode hex="005E"/>
  <outline>
    <contour>
      <point x="135" y="577" type="qcurve" smooth="yes"/>
      <point x="140" y="596"/>
      <point x="158" y="585" type="qcurve" smooth="yes"/>
      <point x="163" y="581"/>
      <point x="191" y="519" type="qcurve" smooth="yes"/>
      <point x="217" y="459"/>
      <point x="246" y="402" type="qcurve" smooth="yes"/>
      <point x="274" y="346"/>
      <point x="274" y="328"/>
      <point x="263" y="312"/>
      <point x="256" y="312" type="qcurve" smooth="yes"/>
      <point x="255" y="312"/>
      <point x="254" y="312" type="qcurve" smooth="yes"/>
      <point x="252" y="313" type="line" smooth="yes"/>
      <point x="246" y="315"/>
      <point x="186" y="440"/>
      <point x="163" y="497" type="qcurve" smooth="yes"/>
      <point x="148" y="533"/>
      <point x="145" y="531" type="qcurve" smooth="yes"/>
      <point x="144" y="531"/>
      <point x="20" y="329"/>
      <point x="15" y="329" type="qcurve" smooth="yes"/>
      <point x="11" y="329"/>
      <point x="67" y="440"/>
      <point x="132" y="565"/>
    </contour>
  </outline>
</glyph>
<glyph name="underscore" format="2">
  <advance width="302"/>
  <unicode hex="005F"/>
  <outline>
    <contour>
      <point x="77" y="52" type="qcurve" smooth="yes"/>
      <point x="137" y="56"/>
      <point x="192" y="56" type="qcurve" smooth="yes"/>
      <point x="216" y="56" type="line" smooth="yes"/>
      <point x="270" y="55"/>
      <point x="291" y="52"/>
      <point x="292" y="45" type="qcurve" smooth="yes"/>
      <point x="294" y="35"/>
      <point x="280" y="15"/>
      <point x="260" y="21" type="qcurve" smooth="yes"/>
      <point x="236" y="27"/>
      <point x="127" y="27" type="qcurve" smooth="yes"/>
      <point x="15" y="27"/>
      <point x="9" y="43"/>
      <point x="11" y="45" type="qcurve" smooth="yes"/>
      <point x="14" y="47"/>
    </contour>
  </outline>
</glyph>
<glyph name="grave" format="2">
  <advance width="112"/>
  <unicode hex="0060"/>
  <outline>
    <contour>
      <point x="15" y="640" type="qcurve" smooth="yes"/>
      <point x="15" y="646"/>
      <point x="19" y="646" type="qcurve" smooth="yes"/>
      <point x="27" y="646"/>
      <point x="37" y="630" type="qcurve" smooth="yes"/>
      <point x="45" y="616"/>
      <point x="72" y="587" type="qcurve" smooth="yes"/>
      <point x="97" y="559"/>
      <point x="97" y="545" type="qcurve" smooth="yes"/>
      <point x="97" y="537"/>
      <point x="89" y="534" type="qcurve" smooth="yes"/>
      <point x="79" y="531"/>
      <point x="66" y="547" type="qcurve" smooth="yes"/>
      <point x="55" y="561"/>
      <point x="15" y="633"/>
    </contour>
  </outline>
</glyph>
<glyph name="a" format="2">
  <advance width="344"/>
  <unicode hex="0061"/>
  <outline>
    <contour>
      <point x="151" y="393" type="qcurve" smooth="yes"/>
      <point x="138" y="398"/>
      <point x="128" y="398" type="qcurve" smooth="yes"/>
      <point x="92" y="398"/>
      <point x="68" y="349" type="qcurve" smooth="yes"/>
      <point x="53" y="319"/>
      <point x="53" y="289" type="qcurve" smooth="yes"/>
      <point x="53" y="262"/>
      <point x="65" y="239" type="qcurve" smooth="yes"/>
      <point x="72" y="224"/>
      <point x="98" y="205"/>
      <point x="110" y="205" type="qcurve" smooth="yes"/>
      <point x="115" y="205"/>
      <point x="117" y="206" type="qcurve" smooth="yes"/>
      <point x="141" y="214"/>
      <point x="179" y="275"/>
      <point x="183" y="311" type="qcurve" smooth="yes"/>
      <point x="183" y="313"/>
      <point x="184" y="321"/>
      <point x="184" y="323" type="qcurve" smooth="yes"/>
      <point x="184" y="347"/>
      <point x="165" y="388"/>
    </contour>
    <contour>
      <point x="89" y="421" type="qcurve" smooth="yes"/>
      <point x="100" y="428"/>
      <point x="121" y="428" type="qcurve" smooth="yes"/>
      <point x="150" y="428"/>
      <point x="168" y="415" type="qcurve" smooth="yes"/>
      <point x="180" y="407"/>
      <point x="192" y="384" type="qcurve" smooth="yes"/>
      <point x="202" y="363"/>
      <point x="206" y="362" type="qcurve" smooth="yes"/>
      <point x="210" y="362"/>
      <point x="210" y="382" type="qcurve" smooth="yes"/>
      <point x="210" y="403"/>
      <point x="218" y="403" type="qcurve" smooth="yes"/>
      <point x="225" y="403"/>
      <point x="225" y="342" type="qcurve" smooth="yes"/>
      <point x="225" y="242"/>
      <point x="256" y="211" type="qcurve" smooth="yes"/>
      <point x="270" y="197"/>
      <point x="300" y="197" type="qcurve" smooth="yes"/>
      <point x="328" y="197"/>
      <point x="328" y="187"/>
      <point x="291" y="156"/>
      <point x="284" y="156" type="qcurve" smooth="yes"/>
      <point x="273" y="156"/>
      <point x="235" y="181"/>
      <point x="226" y="195" type="qcurve" smooth="yes"/>
      <point x="216" y="209"/>
      <point x="208" y="244" type="qcurve" smooth="yes"/>
      <point x="202" y="275" type="line"/>
      <point x="195" y="255" type="line" smooth="yes"/>
      <point x="185" y="221"/>
      <point x="128" y="171"/>
      <point x="99" y="171" type="qcurve" smooth="yes"/>
      <point x="74" y="171"/>
      <point x="26" y="217"/>
      <point x="19" y="247" type="qcurve" smooth="yes"/>
      <point x="15" y="262"/>
      <point x="15" y="281" type="qcurve" smooth="yes"/>
      <point x="15" y="324"/>
      <point x="56" y="403"/>
    </contour>
  </outline>
</glyph>
<glyph name="b" format="2">
  <advance width="277"/>
  <unicode hex="0062"/>
  <outline>
    <contour>
      <point x="189" y="400" type="qcurve" smooth="yes"/>
      <point x="166" y="426"/>
      <point x="148" y="426" type="qcurve" smooth="yes"/>
      <point x="144" y="426"/>
      <point x="128" y="422" type="qcurve" smooth="yes"/>
      <point x="99" y="412"/>
      <point x="61" y="325"/>
      <point x="61" y="270" type="qcurve" smooth="yes"/>
      <point x="61" y="239" type="line"/>
      <point x="102" y="228" type="line" smooth="yes"/>
      <point x="132" y="220"/>
      <point x="143" y="220" type="qcurve" smooth="yes"/>
      <point x="151" y="220"/>
      <point x="160" y="223" type="qcurve" smooth="yes"/>
      <point x="177" y="227"/>
      <point x="211" y="255"/>
      <point x="219" y="270" type="qcurve" smooth="yes"/>
      <point x="227" y="286"/>
      <point x="227" y="306" type="qcurve" smooth="yes"/>
      <point x="227" y="360"/>
    </contour>
    <contour>
      <point x="15" y="404" type="qcurve" smooth="yes"/>
      <point x="15" y="558"/>
      <point x="17" y="614"/>
      <point x="24" y="614" type="qcurve" smooth="yes"/>
      <point x="41" y="614"/>
      <point x="41" y="498" type="qcurve" smooth="yes"/>
      <point x="41" y="433"/>
      <point x="44" y="418" type="qcurve" smooth="yes"/>
      <point x="47" y="398" type="line"/>
      <point x="58" y="414" type="line" smooth="yes"/>
      <point x="68" y="429"/>
      <point x="89" y="446" type="qcurve" smooth="yes"/>
      <point x="103" y="457"/>
      <point x="120" y="462"/>
      <point x="144" y="462" type="qcurve" smooth="yes"/>
      <point x="170" y="462"/>
      <point x="186" y="456"/>
      <point x="202" y="440" type="qcurve" smooth="yes"/>
      <point x="261" y="381"/>
      <point x="261" y="305" type="qcurve" smooth="yes"/>
      <point x="261" y="292"/>
      <point x="258" y="278" type="qcurve" smooth="yes"/>
      <point x="240" y="203"/>
      <point x="166" y="184" type="qcurve" smooth="yes"/>
      <point x="146" y="179"/>
      <point x="136" y="179" type="qcurve" smooth="yes"/>
      <point x="110" y="179"/>
      <point x="84" y="205" type="qcurve" smooth="yes"/>
      <point x="61" y="227" type="line"/>
      <point x="61" y="207" type="line" smooth="yes"/>
      <point x="61" y="188"/>
      <point x="51" y="161"/>
      <point x="35" y="161"/>
      <point x="26" y="177" type="qcurve" smooth="yes"/>
      <point x="19" y="188"/>
      <point x="16" y="252"/>
    </contour>
  </outline>
</glyph>
<glyph name="c" format="2">
  <advance width="278"/>
  <unicode hex="0063"/>
  <outline>
    <contour>
      <point x="127" y="463" type="qcurve" smooth="yes"/>
      <point x="155" y="469"/>
      <point x="156" y="469" type="qcurve" smooth="yes"/>
      <point x="162" y="469"/>
      <point x="166" y="468" type="qcurve" smooth="yes"/>
      <point x="175" y="465"/>
      <point x="185" y="465" type="qcurve" smooth="yes"/>
      <point x="192" y="465"/>
      <point x="212" y="447"/>
      <point x="212" y="441" type="qcurve" smooth="yes"/>
      <point x="212" y="439"/>
      <point x="211" y="438" type="qcurve" smooth="yes"/>
      <point x="207" y="434"/>
      <point x="189" y="440" type="qcurve" smooth="yes"/>
      <point x="184" y="442"/>
      <point x="172" y="442" type="qcurve" smooth="yes"/>
      <point x="130" y="442"/>
      <point x="96" y="413" type="qcurve" smooth="yes"/>
      <point x="79" y="399"/>
      <point x="51" y="345"/>
      <point x="47" y="321" type="qcurve" smooth="yes"/>
      <point x="46" y="316"/>
      <point x="46" y="306" type="qcurve" smooth="yes"/>
      <point x="46" y="271"/>
      <point x="86" y="207"/>
      <point x="117" y="191" type="qcurve" smooth="yes"/>
      <point x="143" y="178"/>
      <point x="169" y="178" type="qcurve" smooth="yes"/>
      <point x="188" y="178"/>
      <point x="223" y="184" type="qcurve" smooth="yes"/>
      <point x="248" y="189"/>
      <point x="257" y="189" type="qcurve" smooth="yes"/>
      <point x="261" y="189"/>
      <point x="262" y="188" type="qcurve" smooth="yes"/>
      <point x="265" y="186"/>
      <point x="246" y="171" type="qcurve" smooth="yes"/>
      <point x="202" y="135"/>
      <point x="159" y="135" type="qcurve" smooth="yes"/>
      <point x="113" y="135"/>
      <point x="71" y="174" type="qcurve" smooth="yes"/>
      <point x="15" y="225"/>
      <point x="15" y="300" type="qcurve" smooth="yes"/>
      <point x="15" y="325"/>
      <point x="22" y="349" type="qcurve" smooth="yes"/>
      <point x="33" y="392"/>
      <point x="93" y="457"/>
    </contour>
  </outline>
</glyph>
<glyph name="d" format="2">
  <advance width="329"/>
  <unicode hex="0064"/>
  <outline>
    <contour>
      <point x="183" y="385" type="qcurve" smooth="yes"/>
      <point x="158" y="397"/>
      <point x="134" y="397" type="qcurve" smooth="yes"/>
      <point x="91" y="397"/>
      <point x="36" y="329"/>
      <point x="36" y="274" type="qcurve" smooth="yes"/>
      <point x="37" y="238"/>
      <point x="74" y="181"/>
      <point x="103" y="174" type="qcurve" smooth="yes"/>
      <point x="106" y="173"/>
      <point x="111" y="173" type="qcurve" smooth="yes"/>
      <point x="146" y="173"/>
      <point x="219" y="282"/>
      <point x="219" y="330" type="qcurve" smooth="yes"/>
      <point x="219" y="350"/>
      <point x="210" y="363" type="qcurve" smooth="yes"/>
      <point x="201" y="376"/>
    </contour>
    <contour>
      <point x="229" y="573" type="qcurve" smooth="yes"/>
      <point x="233" y="604"/>
      <point x="237" y="604" type="qcurve" smooth="yes"/>
      <point x="247" y="604"/>
      <point x="247" y="471" type="qcurve" smooth="yes"/>
      <point x="247" y="220"/>
      <point x="303" y="160" type="qcurve" smooth="yes"/>
      <point x="313" y="149"/>
      <point x="313" y="142" type="qcurve" smooth="yes"/>
      <point x="313" y="138"/>
      <point x="310" y="132" type="qcurve" smooth="yes"/>
      <point x="304" y="118"/>
      <point x="290" y="121" type="qcurve" smooth="yes"/>
      <point x="262" y="124"/>
      <point x="241" y="193" type="qcurve" smooth="yes"/>
      <point x="230" y="228"/>
      <point x="228" y="228"/>
      <point x="211" y="202" type="qcurve" smooth="yes"/>
      <point x="169" y="138"/>
      <point x="119" y="138" type="qcurve" smooth="yes"/>
      <point x="109" y="138"/>
      <point x="100" y="141" type="qcurve" smooth="yes"/>
      <point x="60" y="153"/>
      <point x="27" y="206" type="qcurve" smooth="yes"/>
      <point x="15" y="229"/>
      <point x="15" y="252" type="qcurve" smooth="yes"/>
      <point x="15" y="273"/>
      <point x="16" y="289" type="qcurve" smooth="yes"/>
      <point x="19" y="347"/>
      <point x="43" y="403"/>
      <point x="74" y="421" type="qcurve" smooth="yes"/>
      <point x="97" y="435"/>
      <point x="167" y="435"/>
      <point x="193" y="422" type="qcurve" smooth="yes"/>
      <point x="220" y="409" type="line"/>
      <point x="223" y="425" type="line" smooth="yes"/>
      <point x="226" y="439"/>
      <point x="226" y="491" type="qcurve" smooth="yes"/>
      <point x="226" y="546"/>
    </contour>
  </outline>
</glyph>
<glyph name="e" format="2">
  <advance width="270"/>
  <unicode hex="0065"/>
  <outline>
    <contour>
      <point x="172" y="393" type="qcurve" smooth="yes"/>
      <point x="164" y="398"/>
      <point x="151" y="398" type="qcurve" smooth="yes"/>
      <point x="129" y="398"/>
      <point x="112" y="388" type="qcurve" smooth="yes"/>
      <point x="82" y="370"/>
      <point x="69" y="334" type="qcurve" smooth="yes"/>
      <point x="64" y="320" type="line"/>
      <point x="88" y="323" type="line" smooth="yes"/>
      <point x="148" y="331"/>
      <point x="169" y="369" type="qcurve" smooth="yes"/>
      <point x="176" y="382"/>
      <point x="177" y="390"/>
    </contour>
    <contour>
      <point x="128" y="437" type="qcurve" smooth="yes"/>
      <point x="134" y="439"/>
      <point x="140" y="439" type="qcurve" smooth="yes"/>
      <point x="177" y="439"/>
      <point x="198" y="418" type="qcurve" smooth="yes"/>
      <point x="208" y="408"/>
      <point x="208" y="385" type="qcurve" smooth="yes"/>
      <point x="208" y="366"/>
      <point x="201" y="353" type="qcurve" smooth="yes"/>
      <point x="174" y="302"/>
      <point x="97" y="296" type="qcurve" smooth="yes"/>
      <point x="84" y="295"/>
      <point x="73" y="293"/>
      <point x="61" y="289"/>
      <point x="58" y="284"/>
      <point x="58" y="279" type="qcurve" smooth="yes"/>
      <point x="58" y="272"/>
      <point x="66" y="245" type="qcurve" smooth="yes"/>
      <point x="73" y="219"/>
      <point x="93" y="202" type="qcurve" smooth="yes"/>
      <point x="109" y="187"/>
      <point x="125" y="187" type="qcurve" smooth="yes"/>
      <point x="137" y="187"/>
      <point x="146" y="188" type="qcurve" smooth="yes"/>
      <point x="180" y="192"/>
      <point x="217" y="204" type="qcurve" smooth="yes"/>
      <point x="241" y="212"/>
      <point x="249" y="212" type="qcurve" smooth="yes"/>
      <point x="254" y="212"/>
      <point x="254" y="209" type="qcurve" smooth="yes"/>
      <point x="254" y="202"/>
      <point x="225" y="175" type="qcurve" smooth="yes"/>
      <point x="198" y="149"/>
      <point x="161" y="130"/>
      <point x="140" y="130" type="qcurve" smooth="yes"/>
      <point x="91" y="131"/>
      <point x="22" y="215"/>
      <point x="20" y="277" type="qcurve" smooth="yes"/>
      <point x="20" y="306"/>
      <point x="16" y="314" type="qcurve" smooth="yes"/>
      <point x="12" y="319"/>
      <point x="28" y="327"/>
      <point x="28" y="334" type="qcurve" smooth="yes"/>
      <point x="28" y="356"/>
      <point x="87" y="427"/>
      <point x="109" y="432" type="qcurve" smooth="yes"/>
      <point x="125" y="436"/>
    </contour>
  </outline>
</glyph>
<glyph name="f" format="2">
  <advance width="323"/>
  <unicode hex="0066"/>
  <outline>
    <contour>
      <point x="128" y="140" type="qcurve" smooth="yes"/>
      <point x="128" y="144"/>
      <point x="125" y="144" type="qcurve" smooth="yes"/>
      <point x="120" y="144"/>
      <point x="97" y="127" type="qcurve" smooth="yes"/>
      <point x="60" y="100"/>
      <point x="60" y="84" type="qcurve" smooth="yes"/>
      <point x="60" y="74"/>
      <point x="71" y="61" type="qcurve" smooth="yes"/>
      <point x="77" y="55"/>
      <point x="82" y="56"/>
      <point x="93" y="66" type="qcurve" smooth="yes"/>
      <point x="102" y="75"/>
      <point x="128" y="130"/>
    </contour>
    <contour>
      <point x="239" y="570" type="qcurve" smooth="yes"/>
      <point x="232" y="573"/>
      <point x="220" y="573" type="qcurve" smooth="yes"/>
      <point x="198" y="573"/>
      <point x="180" y="564" type="qcurve" smooth="yes"/>
      <point x="160" y="553"/>
      <point x="144" y="514"/>
      <point x="144" y="472" type="qcurve" smooth="yes"/>
      <point x="144" y="424"/>
      <point x="148" y="421" type="qcurve" smooth="yes"/>
      <point x="149" y="421" type="line" smooth="yes"/>
      <point x="158" y="421"/>
      <point x="221" y="483"/>
      <point x="232" y="503" type="qcurve" smooth="yes"/>
      <point x="247" y="528"/>
      <point x="247" y="551" type="qcurve" smooth="yes"/>
      <point x="247" y="567"/>
    </contour>
    <contour>
      <point x="177" y="604" type="qcurve" smooth="yes"/>
      <point x="192" y="608"/>
      <point x="210" y="608" type="qcurve" smooth="yes"/>
      <point x="259" y="608"/>
      <point x="273" y="583" type="qcurve" smooth="yes"/>
      <point x="278" y="575"/>
      <point x="278" y="558" type="qcurve" smooth="yes"/>
      <point x="278" y="525"/>
      <point x="263" y="495" type="qcurve" smooth="yes"/>
      <point x="253" y="475"/>
      <point x="203" y="421"/>
      <point x="177" y="403" type="qcurve" smooth="yes"/>
      <point x="153" y="387" type="line"/>
      <point x="157" y="360" type="line" smooth="yes"/>
      <point x="158" y="356"/>
      <point x="159" y="347"/>
      <point x="159" y="343"/>
      <point x="160" y="337"/>
      <point x="161" y="334"/>
      <point x="162" y="332"/>
      <point x="165" y="331"/>
      <point x="166" y="331" type="qcurve" smooth="yes"/>
      <point x="169" y="331"/>
      <point x="186" y="336" type="qcurve" smooth="yes"/>
      <point x="216" y="346"/>
      <point x="263" y="346" type="qcurve" smooth="yes"/>
      <point x="280" y="346"/>
      <point x="280" y="343" type="qcurve" smooth="yes"/>
      <point x="280" y="338"/>
      <point x="209" y="315"/>
      <point x="189" y="313" type="qcurve" smooth="yes"/>
      <point x="174" y="311"/>
      <point x="165" y="307"/>
      <point x="165" y="297"/>
      <point x="166" y="293" type="qcurve" smooth="yes"/>
      <point x="170" y="277"/>
      <point x="170" y="251" type="qcurve" smooth="yes"/>
      <point x="170" y="224" type="line"/>
      <point x="207" y="234" type="line" smooth="yes"/>
      <point x="232" y="241"/>
      <point x="267" y="241" type="qcurve" smooth="yes"/>
      <point x="307" y="241"/>
      <point x="307" y="232" type="qcurve" smooth="yes"/>
      <point x="307" y="222"/>
      <point x="244" y="188"/>
      <point x="213" y="179" type="qcurve" smooth="yes"/>
      <point x="183" y="170"/>
      <point x="170" y="162"/>
      <point x="170" y="152" type="qcurve" smooth="yes"/>
      <point x="170" y="140"/>
      <point x="162" y="112" type="qcurve" smooth="yes"/>
      <point x="149" y="62"/>
      <point x="102" y="6"/>
      <point x="77" y="6" type="qcurve" smooth="yes"/>
      <point x="47" y="6"/>
      <point x="25" y="48" type="qcurve" smooth="yes"/>
      <point x="15" y="67"/>
      <point x="15" y="87" type="qcurve" smooth="yes"/>
      <point x="15" y="145"/>
      <point x="102" y="193" type="qcurve" smooth="yes"/>
      <point x="133" y="210" type="line"/>
      <point x="132" y="224"/>
      <point x="132" y="282"/>
      <point x="131" y="297" type="qcurve"/>
      <point x="115" y="296" type="line" smooth="yes"/>
      <point x="93" y="294"/>
      <point x="69" y="285" type="qcurve" smooth="yes"/>
      <point x="46" y="278"/>
      <point x="38" y="278" type="qcurve" smooth="yes"/>
      <point x="34" y="278"/>
      <point x="34" y="280" type="qcurve" smooth="yes"/>
      <point x="34" y="287"/>
      <point x="119" y="317" type="qcurve" smooth="yes"/>
      <point x="127" y="320"/>
      <point x="127" y="329" type="qcurve" smooth="yes"/>
      <point x="127" y="331"/>
      <point x="125" y="345" type="qcurve" smooth="yes"/>
      <point x="124" y="351"/>
      <point x="123" y="367"/>
      <point x="122" y="371"/>
      <point x="119" y="371" type="qcurve" smooth="yes"/>
      <point x="118" y="371"/>
      <point x="115" y="370"/>
      <point x="109" y="368"/>
      <point x="106" y="367" type="qcurve" smooth="yes"/>
      <point x="91" y="362"/>
      <point x="81" y="362" type="qcurve" smooth="yes"/>
      <point x="67" y="362"/>
      <point x="59" y="370" type="qcurve" smooth="yes"/>
      <point x="51" y="377"/>
      <point x="57" y="386"/>
      <point x="68" y="384" type="qcurve" smooth="yes"/>
      <point x="69" y="384"/>
      <point x="72" y="383"/>
      <point x="73" y="383" type="qcurve" smooth="yes"/>
      <point x="83" y="383"/>
      <point x="99" y="389" type="qcurve" smooth="yes"/>
      <point x="116" y="396"/>
      <point x="116" y="406" type="qcurve" smooth="yes"/>
      <point x="116" y="407"/>
      <point x="115" y="412"/>
      <point x="115" y="414" type="qcurve" smooth="yes"/>
      <point x="110" y="461"/>
      <point x="110" y="474" type="qcurve" smooth="yes"/>
      <point x="110" y="489"/>
      <point x="113" y="509" type="qcurve" smooth="yes"/>
      <point x="124" y="589"/>
    </contour>
  </outline>
</glyph>
<glyph name="g" format="2">
  <advance width="343"/>
  <unicode hex="0067"/>
  <outline>
    <contour>
      <point x="207" y="8" type="qcurve" smooth="yes"/>
      <point x="214" y="32"/>
      <point x="212" y="36" type="qcurve" smooth="yes"/>
      <point x="210" y="38"/>
      <point x="168" y="-4"/>
      <point x="168" y="-16" type="qcurve" smooth="yes"/>
      <point x="168" y="-22"/>
      <point x="173" y="-30" type="qcurve" smooth="yes"/>
      <point x="175" y="-34"/>
      <point x="178" y="-34" type="qcurve" smooth="yes"/>
      <point x="184" y="-34"/>
      <point x="202" y="-9"/>
    </contour>
    <contour>
      <point x="174" y="375" type="qcurve" smooth="yes"/>
      <point x="159" y="383"/>
      <point x="142" y="383" type="qcurve" smooth="yes"/>
      <point x="115" y="383"/>
      <point x="71" y="341"/>
      <point x="58" y="302" type="qcurve" smooth="yes"/>
      <point x="49" y="275"/>
      <point x="49" y="258" type="qcurve" smooth="yes"/>
      <point x="49" y="222"/>
      <point x="93" y="204" type="qcurve" smooth="yes"/>
      <point x="105" y="199"/>
      <point x="114" y="199" type="qcurve" smooth="yes"/>
      <point x="122" y="199"/>
      <point x="131" y="204" type="qcurve" smooth="yes"/>
      <point x="168" y="223"/>
      <point x="189" y="278" type="qcurve" smooth="yes"/>
      <point x="199" y="304"/>
      <point x="199" y="327" type="qcurve" smooth="yes"/>
      <point x="199" y="362"/>
    </contour>
    <contour>
      <point x="105" y="427" type="qcurve" smooth="yes"/>
      <point x="128" y="434"/>
      <point x="138" y="434" type="qcurve" smooth="yes"/>
      <point x="140" y="434" type="line" smooth="yes"/>
      <point x="153" y="434"/>
      <point x="199" y="416"/>
      <point x="208" y="407" type="qcurve" smooth="yes"/>
      <point x="217" y="399"/>
      <point x="221" y="398"/>
      <point x="225" y="405" type="qcurve" smooth="yes"/>
      <point x="233" y="419"/>
      <point x="236" y="412" type="qcurve" smooth="yes"/>
      <point x="238" y="407"/>
      <point x="235" y="397" type="qcurve" smooth="yes"/>
      <point x="233" y="387"/>
      <point x="233" y="380" type="qcurve" smooth="yes"/>
      <point x="233" y="369"/>
      <point x="239" y="339"/>
      <point x="239" y="313"/>
      <point x="233" y="283"/>
      <point x="233" y="235"/>
      <point x="236" y="196" type="qcurve" smooth="yes"/>
      <point x="241" y="122"/>
      <point x="242" y="121" type="qcurve" smooth="yes"/>
      <point x="312" y="143"/>
      <point x="325" y="143" type="qcurve" smooth="yes"/>
      <point x="327" y="143" type="line"/>
      <point x="331" y="139"/>
      <point x="289" y="99" type="qcurve" smooth="yes"/>
      <point x="247" y="59" type="line"/>
      <point x="243" y="24" type="line" smooth="yes"/>
      <point x="236" y="-40"/>
      <point x="206" y="-66" type="qcurve" smooth="yes"/>
      <point x="188" y="-81"/>
      <point x="178" y="-81" type="qcurve" smooth="yes"/>
      <point x="168" y="-81"/>
      <point x="154" y="-69" type="qcurve" smooth="yes"/>
      <point x="127" y="-45"/>
      <point x="127" y="-12" type="qcurve" smooth="yes"/>
      <point x="127" y="-11"/>
      <point x="128" y="-4"/>
      <point x="128" y="-2" type="qcurve" smooth="yes"/>
      <point x="134" y="40"/>
      <point x="186" y="80" type="qcurve" smooth="yes"/>
      <point x="214" y="102" type="line"/>
      <point x="214" y="156" type="line" smooth="yes"/>
      <point x="214" y="218"/>
      <point x="207" y="218" type="qcurve" smooth="yes"/>
      <point x="203" y="218"/>
      <point x="195" y="207" type="qcurve" smooth="yes"/>
      <point x="182" y="190"/>
      <point x="144" y="166"/>
      <point x="129" y="166" type="qcurve" smooth="yes"/>
      <point x="127" y="166"/>
      <point x="117" y="167"/>
      <point x="114" y="167" type="qcurve" smooth="yes"/>
      <point x="39" y="173"/>
      <point x="20" y="274" type="qcurve" smooth="yes"/>
      <point x="15" y="301"/>
      <point x="15" y="313" type="qcurve" smooth="yes"/>
      <point x="15" y="343"/>
      <point x="40" y="379" type="qcurve" smooth="yes"/>
      <point x="54" y="401"/>
      <point x="81" y="420"/>
    </contour>
  </outline>
</glyph>
<glyph name="h" format="2">
  <advance width="335"/>
  <unicode hex="0068"/>
  <outline>
    <contour>
      <point x="15" y="375" type="qcurve" smooth="yes"/>
      <point x="15" y="630"/>
      <point x="22" y="630" type="qcurve" smooth="yes"/>
      <point x="36" y="630"/>
      <point x="36" y="511" type="qcurve" smooth="yes"/>
      <point x="36" y="439"/>
      <point x="39" y="406" type="qcurve" smooth="yes"/>
      <point x="42" y="366" type="line"/>
      <point x="52" y="388" type="line" smooth="yes"/>
      <point x="71" y="431"/>
      <point x="128" y="480"/>
      <point x="155" y="480" type="qcurve" smooth="yes"/>
      <point x="195" y="480"/>
      <point x="213" y="430" type="qcurve" smooth="yes"/>
      <point x="221" y="408"/>
      <point x="229" y="321" type="qcurve" smooth="yes"/>
      <point x="239" y="212"/>
      <point x="255" y="173" type="qcurve" smooth="yes"/>
      <point x="261" y="158"/>
      <point x="265" y="158" type="qcurve" smooth="yes"/>
      <point x="270" y="158"/>
      <point x="301" y="179" type="qcurve" smooth="yes"/>
      <point x="310" y="185"/>
      <point x="320" y="185"/>
      <point x="320" y="177" type="qcurve" smooth="yes"/>
      <point x="320" y="159"/>
      <point x="302" y="125" type="qcurve" smooth="yes"/>
      <point x="287" y="95"/>
      <point x="266" y="95" type="qcurve" smooth="yes"/>
      <point x="248" y="95"/>
      <point x="215" y="138"/>
      <point x="204" y="176" type="qcurve" smooth="yes"/>
      <point x="193" y="215"/>
      <point x="185" y="323" type="qcurve" smooth="yes"/>
      <point x="178" y="415"/>
      <point x="164" y="430" type="qcurve" smooth="yes"/>
      <point x="162" y="432"/>
      <point x="159" y="432" type="qcurve" smooth="yes"/>
      <point x="150" y="432"/>
      <point x="120" y="406"/>
      <point x="108" y="388" type="qcurve" smooth="yes"/>
      <point x="85" y="352"/>
      <point x="65" y="263"/>
      <point x="62" y="183" type="qcurve" smooth="yes"/>
      <point x="58" y="94"/>
      <point x="50" y="86" type="qcurve" smooth="yes"/>
      <point x="45" y="81"/>
      <point x="40" y="81" type="qcurve" smooth="yes"/>
      <point x="30" y="81"/>
      <point x="22" y="102" type="qcurve" smooth="yes"/>
      <point x="15" y="118"/>
    </contour>
  </outline>
</glyph>
<glyph name="i" format="2">
  <advance width="162"/>
  <unicode hex="0069"/>
  <outline>
    <contour>
      <point x="16" y="547" type="qcurve" smooth="yes"/>
      <point x="20" y="554"/>
      <point x="34" y="551"/>
      <point x="34" y="543" type="qcurve" smooth="yes"/>
      <point x="34" y="533"/>
      <point x="24" y="527"/>
      <point x="13" y="542"/>
    </contour>
    <contour>
      <point x="22" y="429" type="qcurve" smooth="yes"/>
      <point x="24" y="433"/>
      <point x="34" y="434"/>
      <point x="35" y="430" type="qcurve" smooth="yes"/>
      <point x="35" y="429"/>
      <point x="36" y="409"/>
      <point x="37" y="371"/>
      <point x="37" y="355" type="qcurve" smooth="yes"/>
      <point x="40" y="250"/>
      <point x="59" y="224" type="qcurve" smooth="yes"/>
      <point x="68" y="212" type="line"/>
      <point x="101" y="227" type="line" smooth="yes"/>
      <point x="133" y="243"/>
      <point x="141" y="243" type="qcurve" smooth="yes"/>
      <point x="146" y="243"/>
      <point x="146" y="237" type="qcurve" smooth="yes"/>
      <point x="146" y="233"/>
      <point x="145" y="230" type="qcurve" smooth="yes"/>
      <point x="138" y="204"/>
      <point x="100" y="168"/>
      <point x="79" y="168" type="qcurve" smooth="yes"/>
      <point x="71" y="168"/>
      <point x="68" y="169" type="qcurve" smooth="yes"/>
      <point x="53" y="173"/>
      <point x="23" y="216"/>
      <point x="18" y="242" type="qcurve" smooth="yes"/>
      <point x="15" y="257"/>
      <point x="15" y="310" type="qcurve" smooth="yes"/>
      <point x="15" y="418"/>
    </contour>
  </outline>
</glyph>
<glyph name="j" format="2">
  <advance width="283"/>
  <unicode hex="006A"/>
  <outline>
    <contour>
      <point x="95" y="94" type="qcurve" smooth="yes"/>
      <point x="102" y="124"/>
      <point x="102" y="129" type="qcurve" smooth="yes"/>
      <point x="102" y="135"/>
      <point x="99" y="135" type="qcurve" smooth="yes"/>
      <point x="94" y="135"/>
      <point x="79" y="119" type="qcurve" smooth="yes"/>
      <point x="58" y="96"/>
      <point x="54" y="80" type="qcurve" smooth="yes"/>
      <point x="53" y="77"/>
      <point x="53" y="70" type="qcurve" smooth="yes"/>
      <point x="53" y="58"/>
      <point x="61" y="37"/>
      <point x="66" y="37" type="qcurve" smooth="yes"/>
      <point x="80" y="37"/>
    </contour>
    <contour>
      <point x="151" y="475" type="qcurve" smooth="yes"/>
      <point x="209" y="490"/>
      <point x="225" y="490" type="qcurve" smooth="yes"/>
      <point x="237" y="491"/>
      <point x="242" y="487"/>
      <point x="240" y="477" type="qcurve" smooth="yes"/>
      <point x="239" y="462"/>
      <point x="226" y="461" type="qcurve" smooth="yes"/>
      <point x="135" y="452"/>
      <point x="124" y="445" type="qcurve" smooth="yes"/>
      <point x="120" y="442"/>
      <point x="120" y="414"/>
      <point x="123" y="382" type="qcurve" smooth="yes"/>
      <point x="128" y="329"/>
      <point x="128" y="268" type="qcurve" smooth="yes"/>
      <point x="128" y="213" type="line"/>
      <point x="170" y="233" type="line" smooth="yes"/>
      <point x="214" y="254"/>
      <point x="240" y="254" type="qcurve" smooth="yes"/>
      <point x="250" y="254"/>
      <point x="259" y="251" type="qcurve" smooth="yes"/>
      <point x="267" y="248"/>
      <point x="267" y="244" type="qcurve" smooth="yes"/>
      <point x="267" y="238"/>
      <point x="251" y="221" type="qcurve" smooth="yes"/>
      <point x="242" y="210"/>
      <point x="209" y="192"/>
      <point x="164" y="174"/>
      <point x="154" y="169" type="qcurve" smooth="yes"/>
      <point x="128" y="156" type="line"/>
      <point x="128" y="127" type="line" smooth="yes"/>
      <point x="128" y="72"/>
      <point x="88" y="-4"/>
      <point x="63" y="-4" type="qcurve" smooth="yes"/>
      <point x="41" y="-4"/>
      <point x="25" y="27" type="qcurve" smooth="yes"/>
      <point x="15" y="49"/>
      <point x="15" y="71" type="qcurve" smooth="yes"/>
      <point x="15" y="96"/>
      <point x="26" y="118" type="qcurve" smooth="yes"/>
      <point x="34" y="134"/>
      <point x="96" y="197"/>
      <point x="104" y="197" type="qcurve" smooth="yes"/>
      <point x="107" y="197"/>
      <point x="107" y="270" type="qcurve" smooth="yes"/>
      <point x="107" y="320" type="line" smooth="yes"/>
      <point x="104" y="441"/>
      <point x="100" y="441" type="qcurve" smooth="yes"/>
      <point x="93" y="441"/>
      <point x="29" y="428"/>
      <point x="21" y="428" type="qcurve" smooth="yes"/>
      <point x="17" y="429" type="line" smooth="yes"/>
      <point x="16" y="430"/>
      <point x="22" y="434"/>
      <point x="35" y="439"/>
      <point x="53" y="446"/>
      <point x="76" y="453"/>
      <point x="103" y="462"/>
      <point x="134" y="471"/>
    </contour>
  </outline>
</glyph>
<glyph name="k" format="2">
  <advance width="302"/>
  <unicode hex="006B"/>
  <outline>
    <contour>
      <point x="81" y="145" type="qcurve" smooth="yes"/>
      <point x="96" y="166"/>
      <point x="96" y="205" type="qcurve" smooth="yes"/>
      <point x="96" y="210"/>
      <point x="95" y="234"/>
      <point x="95" y="241" type="qcurve" smooth="yes"/>
      <point x="93" y="292" type="line"/>
      <point x="77" y="266" type="line" smooth="yes"/>
      <point x="43" y="214"/>
      <point x="43" y="176" type="qcurve" smooth="yes"/>
      <point x="43" y="149"/>
      <point x="61" y="140" type="qcurve" smooth="yes"/>
      <point x="71" y="134"/>
    </contour>
    <contour>
      <point x="77" y="590" type="qcurve" smooth="yes"/>
      <point x="76" y="598"/>
      <point x="76" y="609" type="qcurve" smooth="yes"/>
      <point x="76" y="619"/>
      <point x="78" y="619" type="qcurve" smooth="yes"/>
      <point x="84" y="619"/>
      <point x="90" y="580" type="qcurve" smooth="yes"/>
      <point x="93" y="555"/>
      <point x="106" y="390"/>
      <point x="106" y="370" type="qcurve" smooth="yes"/>
      <point x="106" y="368"/>
      <point x="142" y="401"/>
      <point x="172" y="430" type="qcurve" smooth="yes"/>
      <point x="217" y="475"/>
      <point x="259" y="506"/>
      <point x="274" y="506" type="qcurve" smooth="yes"/>
      <point x="282" y="506"/>
      <point x="282" y="490" type="qcurve" smooth="yes"/>
      <point x="282" y="476"/>
      <point x="266" y="444"/>
      <point x="223" y="410" type="qcurve" smooth="yes"/>
      <point x="172" y="368"/>
      <point x="157" y="354" type="qcurve" smooth="yes"/>
      <point x="132" y="331" type="line"/>
      <point x="153" y="268" type="line" smooth="yes"/>
      <point x="187" y="165"/>
      <point x="214" y="151" type="qcurve" smooth="yes"/>
      <point x="218" y="149"/>
      <point x="221" y="149" type="qcurve" smooth="yes"/>
      <point x="231" y="149"/>
      <point x="263" y="207" type="qcurve" smooth="yes"/>
      <point x="280" y="236"/>
      <point x="283" y="236" type="qcurve" smooth="yes"/>
      <point x="284" y="236"/>
      <point x="286" y="230" type="qcurve" smooth="yes"/>
      <point x="286" y="228"/>
      <point x="287" y="222"/>
      <point x="287" y="221" type="qcurve" smooth="yes"/>
      <point x="287" y="191"/>
      <point x="253" y="122"/>
      <point x="235" y="117" type="qcurve" smooth="yes"/>
      <point x="233" y="116"/>
      <point x="230" y="116" type="qcurve" smooth="yes"/>
      <point x="210" y="116"/>
      <point x="187" y="142" type="qcurve" smooth="yes"/>
      <point x="171" y="161"/>
      <point x="140" y="248"/>
      <point x="122" y="313"/>
      <point x="119" y="313" type="qcurve" smooth="yes"/>
      <point x="115" y="313"/>
      <point x="115" y="268" type="qcurve" smooth="yes"/>
      <point x="115" y="248" type="line"/>
      <point x="115" y="224" type="line" smooth="yes"/>
      <point x="115" y="109"/>
      <point x="68" y="109" type="qcurve" smooth="yes"/>
      <point x="53" y="109"/>
      <point x="20" y="144"/>
      <point x="16" y="163" type="qcurve" smooth="yes"/>
      <point x="15" y="168"/>
      <point x="15" y="179" type="qcurve" smooth="yes"/>
      <point x="15" y="209"/>
      <point x="47" y="288"/>
      <point x="72" y="322" type="qcurve" smooth="yes"/>
      <point x="90" y="346" type="line"/>
      <point x="86" y="453" type="line" smooth="yes"/>
      <point x="80" y="563"/>
    </contour>
  </outline>
</glyph>
<glyph name="l" format="2">
  <advance width="209"/>
  <unicode hex="006C"/>
  <outline>
    <contour>
      <point x="33" y="584" type="qcurve" smooth="yes"/>
      <point x="36" y="588"/>
      <point x="37" y="588" type="qcurve" smooth="yes"/>
      <point x="44" y="588"/>
      <point x="44" y="451" type="qcurve" smooth="yes"/>
      <point x="44" y="411" type="line" smooth="yes"/>
      <point x="44" y="316"/>
      <point x="55" y="264" type="qcurve" smooth="yes"/>
      <point x="73" y="180"/>
      <point x="97" y="159" type="qcurve" smooth="yes"/>
      <point x="101" y="155"/>
      <point x="103" y="155" type="qcurve" smooth="yes"/>
      <point x="108" y="155"/>
      <point x="146" y="197" type="qcurve" smooth="yes"/>
      <point x="182" y="240"/>
      <point x="191" y="240" type="qcurve" smooth="yes"/>
      <point x="193" y="240"/>
      <point x="193" y="228" type="qcurve" smooth="yes"/>
      <point x="193" y="183"/>
      <point x="175" y="143" type="qcurve" smooth="yes"/>
      <point x="150" y="94"/>
      <point x="116" y="94" type="qcurve" smooth="yes"/>
      <point x="85" y="94"/>
      <point x="58" y="136" type="qcurve" smooth="yes"/>
      <point x="15" y="206"/>
      <point x="15" y="372" type="qcurve" smooth="yes"/>
      <point x="16" y="434"/>
      <point x="27" y="575"/>
    </contour>
  </outline>
</glyph>
<glyph name="m" format="2">
  <advance width="471"/>
  <unicode hex="006D"/>
  <outline>
    <contour>
      <point x="113" y="460" type="qcurve" smooth="yes"/>
      <point x="126" y="464"/>
      <point x="148" y="464"/>
      <point x="165" y="455" type="qcurve" smooth="yes"/>
      <point x="191" y="438"/>
      <point x="205" y="375" type="qcurve" smooth="yes"/>
      <point x="211" y="344" type="line"/>
      <point x="223" y="367" type="line" smooth="yes"/>
      <point x="250" y="422"/>
      <point x="284" y="422" type="qcurve" smooth="yes"/>
      <point x="294" y="422"/>
      <point x="303" y="416" type="qcurve" smooth="yes"/>
      <point x="317" y="407"/>
      <point x="332" y="365"/>
      <point x="341" y="312" type="qcurve" smooth="yes"/>
      <point x="350" y="258"/>
      <point x="360" y="225" type="qcurve" smooth="yes"/>
      <point x="367" y="201"/>
      <point x="398" y="151"/>
      <point x="406" y="151" type="qcurve" smooth="yes"/>
      <point x="416" y="151"/>
      <point x="431" y="163" type="qcurve" smooth="yes"/>
      <point x="448" y="176"/>
      <point x="451" y="176" type="qcurve" smooth="yes"/>
      <point x="455" y="176"/>
      <point x="455" y="163" type="qcurve" smooth="yes"/>
      <point x="455" y="139"/>
      <point x="447" y="125" type="qcurve" smooth="yes"/>
      <point x="436" y="104"/>
      <point x="416" y="104" type="qcurve" smooth="yes"/>
      <point x="398" y="104"/>
      <point x="381" y="120" type="qcurve" smooth="yes"/>
      <point x="355" y="142"/>
      <point x="322" y="235"/>
      <point x="306" y="329" type="qcurve" smooth="yes"/>
      <point x="297" y="380"/>
      <point x="285" y="380" type="qcurve" smooth="yes"/>
      <point x="276" y="380"/>
      <point x="261" y="349" type="qcurve" smooth="yes"/>
      <point x="235" y="291"/>
      <point x="235" y="226" type="qcurve" smooth="yes"/>
      <point x="235" y="194"/>
      <point x="241" y="156" type="qcurve" smooth="yes"/>
      <point x="242" y="152"/>
      <point x="242" y="145" type="qcurve" smooth="yes"/>
      <point x="242" y="133"/>
      <point x="234" y="125" type="qcurve" smooth="yes"/>
      <point x="224" y="112"/>
      <point x="215" y="120" type="qcurve" smooth="yes"/>
      <point x="205" y="128"/>
      <point x="187" y="172"/>
      <point x="187" y="189" type="qcurve" smooth="yes"/>
      <point x="186" y="216"/>
      <point x="160" y="385"/>
      <point x="155" y="396" type="qcurve" smooth="yes"/>
      <point x="148" y="412"/>
      <point x="137" y="412" type="qcurve" smooth="yes"/>
      <point x="127" y="412"/>
      <point x="112" y="397" type="qcurve" smooth="yes"/>
      <point x="70" y="358"/>
      <point x="70" y="246" type="qcurve" smooth="yes"/>
      <point x="70" y="220"/>
      <point x="73" y="191" type="qcurve" smooth="yes"/>
      <point x="76" y="164"/>
      <point x="76" y="134"/>
      <point x="73" y="125" type="qcurve" smooth="yes"/>
      <point x="67" y="109"/>
      <point x="58" y="109" type="qcurve" smooth="yes"/>
      <point x="39" y="109"/>
      <point x="31" y="153" type="qcurve" smooth="yes"/>
      <point x="27" y="180"/>
      <point x="15" y="383"/>
      <point x="15" y="428" type="qcurve" smooth="yes"/>
      <point x="15" y="445"/>
      <point x="16" y="446" type="qcurve" smooth="yes"/>
      <point x="18" y="448"/>
      <point x="19" y="448" type="qcurve" smooth="yes"/>
      <point x="30" y="448"/>
      <point x="35" y="401" type="qcurve" smooth="yes"/>
      <point x="39" y="370" type="line"/>
      <point x="50" y="395" type="line" smooth="yes"/>
      <point x="60" y="417"/>
      <point x="97" y="455"/>
    </contour>
  </outline>
</glyph>
